Orbitron Bold.ufo
<glyph name="exclam" format="1">
  <advance width="220"/>
  <unicode hex="0021"/>
  <outline>
    <contour>
      <point x="189" y="0" type="line"/>
      <point x="189" y="131" type="line"/>
      <point x="58" y="131" type="line"/>
      <point x="58" y="0" type="line"/>
    </contour>
    <contour>
      <point x="58" y="197" type="line"/>
      <point x="189" y="197" type="line"/>
      <point x="189" y="720" type="line"/>
      <point x="58" y="720" type="line"/>
    </contour>
  </outline>
</glyph>
<glyph name="quotedbl" format="1">
  <advance width="372"/>
  <unicode hex="0022"/>
  <outline>
    <contour>
      <point x="191" y="719" type="line"/>
      <point x="59" y="719" type="line"/>
      <point x="59" y="537" type="line"/>
      <point x="191" y="537" type="line"/>
    </contour>
    <contour>
      <point x="350" y="719" type="line"/>
      <point x="219" y="719" type="line"/>
      <point x="219" y="537" type="line"/>
      <point x="350" y="537" type="line"/>
    </contour>
  </outline>
</glyph>
<glyph name="numbersign" format="1">
  <advance width="797"/>
  <unicode hex="0023"/>
  <outline>
    <contour>
      <point x="757" y="566" type="line"/>
      <point x="682" y="566" type="line"/>
      <point x="734" y="720" type="line"/>
      <point x="601" y="720" type="line"/>
      <point x="550" y="566" type="line"/>
      <point x="375" y="566" type="line"/>
      <point x="427" y="720" type="line"/>
      <point x="293" y="720" type="line"/>
      <point x="243" y="566" type="line"/>
      <point x="61" y="566" type="line"/>
      <point x="61" y="435" type="line"/>
      <point x="201" y="435" type="line"/>
      <point x="155" y="291" type="line"/>
      <point x="32" y="291" type="line"/>
      <point x="32" y="160" type="line"/>
      <point x="115" y="160" type="line"/>
      <point x="66" y="0" type="line"/>
      <point x="198" y="0" type="line"/>
      <point x="213" y="48"/>
      <point x="231" y="110"/>
      <point x="246" y="160" type="curve"/>
      <point x="422" y="160" type="line"/>
      <point x="373" y="0" type="line"/>
      <point x="505" y="0" type="line"/>
      <point x="520" y="48"/>
      <point x="538" y="110"/>
      <point x="553" y="160" type="curve"/>
      <point x="728" y="160" type="line"/>
      <point x="728" y="291" type="line"/>
      <point x="594" y="291" type="line"/>
      <point x="640" y="435" type="line"/>
      <point x="757" y="435" type="line"/>
    </contour>
    <contour>
      <point x="287" y="291" type="line"/>
      <point x="333" y="435" type="line"/>
      <point x="508" y="435" type="line"/>
      <point x="462" y="291" type="line"/>
    </contour>
  </outline>
</glyph>
<glyph name="dollar" format="1">
  <advance width="788"/>
  <unicode hex="0024"/>
  <outline>
    <contour>
      <point x="747" y="582" type="line" smooth="yes"/>
      <point x="747" y="658"/>
      <point x="685" y="720"/>
      <point x="609" y="720" type="curve" smooth="yes"/>
      <point x="456" y="720" type="line"/>
      <point x="456" y="823" type="line"/>
      <point x="325" y="823" type="line"/>
      <point x="325" y="720" type="line"/>
      <point x="172" y="720" type="line" smooth="yes"/>
      <point x="96" y="720"/>
      <point x="34" y="658"/>
      <point x="34" y="582" type="curve" smooth="yes"/>
      <point x="34" y="433" type="line" smooth="yes"/>
      <point x="34" y="357"/>
      <point x="96" y="295"/>
      <point x="172" y="295" type="curve" smooth="yes"/>
      <point x="325" y="295" type="line"/>
      <point x="325" y="131" type="line"/>
      <point x="172" y="131" type="line" smooth="yes"/>
      <point x="168" y="131"/>
      <point x="165" y="134"/>
      <point x="165" y="138" type="curve" smooth="yes"/>
      <point x="165" y="192" type="line"/>
      <point x="34" y="192" type="line"/>
      <point x="34" y="138" type="line" smooth="yes"/>
      <point x="34" y="62"/>
      <point x="96" y="0"/>
      <point x="172" y="0" type="curve" smooth="yes"/>
      <point x="325" y="0" type="line"/>
      <point x="325" y="-103" type="line"/>
      <point x="456" y="-103" type="line"/>
      <point x="456" y="0" type="line"/>
      <point x="609" y="0" type="line" smooth="yes"/>
      <point x="685" y="0"/>
      <point x="747" y="62"/>
      <point x="747" y="138" type="curve" smooth="yes"/>
      <point x="747" y="288" type="line" smooth="yes"/>
      <point x="747" y="364"/>
      <point x="685" y="426"/>
      <point x="609" y="426" type="curve" smooth="yes"/>
      <point x="456" y="426" type="line"/>
      <point x="456" y="589" type="line"/>
      <point x="609" y="589" type="line" smooth="yes"/>
      <point x="613" y="589"/>
      <point x="616" y="586"/>
      <point x="616" y="582" type="curve" smooth="yes"/>
      <point x="616" y="528" type="line"/>
      <point x="747" y="528" type="line"/>
    </contour>
    <contour>
      <point x="609" y="295" type="line" smooth="yes"/>
      <point x="613" y="295"/>
      <point x="616" y="292"/>
      <point x="616" y="288" type="curve" smooth="yes"/>
      <point x="616" y="138" type="line" smooth="yes"/>
      <point x="616" y="134"/>
      <point x="613" y="131"/>
      <point x="609" y="131" type="curve" smooth="yes"/>
      <point x="456" y="131" type="line"/>
      <point x="456" y="295" type="line"/>
    </contour>
    <contour>
      <point x="325" y="426" type="line"/>
      <point x="172" y="426" type="line" smooth="yes"/>
      <point x="168" y="426"/>
      <point x="165" y="429"/>
      <point x="165" y="433" type="curve" smooth="yes"/>
      <point x="165" y="582" type="line" smooth="yes"/>
      <point x="165" y="586"/>
      <point x="168" y="589"/>
      <point x="172" y="589" type="curve" smooth="yes"/>
      <point x="325" y="589" type="line"/>
    </contour>
  </outline>
</glyph>
<glyph name="percent" format="1">
  <advance width="966"/>
  <unicode hex="0025"/>
  <outline>
    <contour>
      <point x="808" y="720" type="line"/>
      <point x="128" y="143" type="line"/>
      <point x="128" y="0" type="line"/>
      <point x="161" y="0" type="line"/>
      <point x="841" y="577" type="line"/>
      <point x="841" y="720" type="line"/>
    </contour>
    <contour>
      <point x="186" y="713" type="line" smooth="yes"/>
      <point x="110" y="713"/>
      <point x="48" y="651"/>
      <point x="48" y="575" type="curve" smooth="yes"/>
      <point x="48" y="499" type="line" smooth="yes"/>
      <point x="48" y="423"/>
      <point x="110" y="361"/>
      <point x="186" y="361" type="curve" smooth="yes"/>
      <point x="272" y="361" type="line" smooth="yes"/>
      <point x="348" y="361"/>
      <point x="410" y="423"/>
      <point x="410" y="499" type="curve" smooth="yes"/>
      <point x="410" y="575" type="line" smooth="yes"/>
      <point x="410" y="651"/>
      <point x="348" y="713"/>
      <point x="272" y="713" type="curve" smooth="yes"/>
    </contour>
    <contour>
      <point x="167" y="474" type="line" smooth="yes"/>
      <point x="163" y="474"/>
      <point x="160" y="476"/>
      <point x="160" y="480" type="curve" smooth="yes"/>
      <point x="160" y="594" type="line" smooth="yes"/>
      <point x="160" y="598"/>
      <point x="163" y="601"/>
      <point x="167" y="601" type="curve" smooth="yes"/>
      <point x="291" y="601" type="line" smooth="yes"/>
      <point x="294" y="601"/>
      <point x="297" y="598"/>
      <point x="297" y="594" type="curve" smooth="yes"/>
      <point x="297" y="480" type="line" smooth="yes"/>
      <point x="297" y="476"/>
      <point x="294" y="474"/>
      <point x="291" y="474" type="curve" smooth="yes"/>
    </contour>
    <contour>
      <point x="679" y="351" type="line" smooth="yes"/>
      <point x="603" y="351"/>
      <point x="541" y="289"/>
      <point x="541" y="213" type="curve" smooth="yes"/>
      <point x="541" y="137" type="line" smooth="yes"/>
      <point x="541" y="61"/>
      <point x="603" y="-1"/>
      <point x="679" y="-1" type="curve" smooth="yes"/>
      <point x="764" y="-1" type="line" smooth="yes"/>
      <point x="840" y="-1"/>
      <point x="902" y="61"/>
      <point x="902" y="137" type="curve" smooth="yes"/>
      <point x="902" y="213" type="line" smooth="yes"/>
      <point x="902" y="289"/>
      <point x="840" y="351"/>
      <point x="764" y="351" type="curve" smooth="yes"/>
    </contour>
    <contour>
      <point x="660" y="111" type="line" smooth="yes"/>
      <point x="656" y="111"/>
      <point x="653" y="114"/>
      <point x="653" y="118" type="curve" smooth="yes"/>
      <point x="653" y="232" type="line" smooth="yes"/>
      <point x="653" y="236"/>
      <point x="656" y="239"/>
      <point x="660" y="239" type="curve" smooth="yes"/>
      <point x="783" y="239" type="line" smooth="yes"/>
      <point x="787" y="239"/>
      <point x="790" y="236"/>
      <point x="790" y="232" type="curve" smooth="yes"/>
      <point x="790" y="118" type="line" smooth="yes"/>
      <point x="790" y="114"/>
      <point x="787" y="111"/>
      <point x="783" y="111" type="curve" smooth="yes"/>
    </contour>
  </outline>
</glyph>
<glyph name="ampersand" format="1">
  <advance width="938"/>
  <unicode hex="0026"/>
  <outline>
    <contour>
      <point x="766" y="195" type="line"/>
      <point x="766" y="358" type="line"/>
      <point x="635" y="358" type="line"/>
      <point x="635" y="249" type="line"/>
      <point x="222" y="457" type="line"/>
      <point x="222" y="581" type="line" smooth="yes"/>
      <point x="222" y="585"/>
      <point x="225" y="588"/>
      <point x="229" y="588" type="curve" smooth="yes"/>
      <point x="600" y="588" type="line" smooth="yes"/>
      <point x="603" y="588"/>
      <point x="606" y="585"/>
      <point x="606" y="581" type="curve" smooth="yes"/>
      <point x="606" y="521" type="line"/>
      <point x="737" y="521" type="line"/>
      <point x="737" y="606" type="line"/>
      <point x="726" y="671"/>
      <point x="667" y="720"/>
      <point x="600" y="720" type="curve" smooth="yes"/>
      <point x="229" y="720" type="line" smooth="yes"/>
      <point x="153" y="720"/>
      <point x="91" y="658"/>
      <point x="91" y="582" type="curve" smooth="yes"/>
      <point x="91" y="476" type="line" smooth="yes"/>
      <point x="91" y="454"/>
      <point x="92" y="433"/>
      <point x="103" y="414" type="curve"/>
      <point x="70" y="399"/>
      <point x="53" y="358"/>
      <point x="53" y="332" type="curve" smooth="yes"/>
      <point x="53" y="138" type="line" smooth="yes"/>
      <point x="53" y="62"/>
      <point x="115" y="0"/>
      <point x="191" y="0" type="curve" smooth="yes"/>
      <point x="628" y="0" type="line" smooth="yes"/>
      <point x="680" y="0"/>
      <point x="726" y="28"/>
      <point x="749" y="70" type="curve"/>
      <point x="887" y="-8" type="line"/>
      <point x="887" y="124" type="line"/>
    </contour>
    <contour>
      <point x="191" y="131" type="line" smooth="yes"/>
      <point x="187" y="131"/>
      <point x="184" y="134"/>
      <point x="184" y="138" type="curve" smooth="yes"/>
      <point x="184" y="332" type="line" smooth="yes"/>
      <point x="184" y="336"/>
      <point x="187" y="338"/>
      <point x="191" y="338" type="curve" smooth="yes"/>
      <point x="198" y="338" type="line"/>
      <point x="336" y="269"/>
      <point x="471" y="200"/>
      <point x="608" y="131" type="curve"/>
    </contour>
  </outline>
</glyph>
<glyph name="parenleft" format="1">
  <advance width="277"/>
  <unicode hex="0028"/>
  <outline>
    <contour>
      <point x="189" y="131" type="line" smooth="yes"/>
      <point x="186" y="131"/>
      <point x="183" y="134"/>
      <point x="183" y="138" type="curve" smooth="yes"/>
      <point x="183" y="582" type="line" smooth="yes"/>
      <point x="183" y="586"/>
      <point x="186" y="589"/>
      <point x="189" y="589" type="curve" smooth="yes"/>
      <point x="244" y="589" type="line"/>
      <point x="244" y="720" type="line"/>
      <point x="189" y="720" type="line" smooth="yes"/>
      <point x="113" y="720"/>
      <point x="52" y="658"/>
      <point x="52" y="582" type="curve" smooth="yes"/>
      <point x="52" y="138" type="line" smooth="yes"/>
      <point x="52" y="62"/>
      <point x="113" y="0"/>
      <point x="189" y="0" type="curve" smooth="yes"/>
      <point x="244" y="0" type="line"/>
      <point x="244" y="131" type="line"/>
    </contour>
  </outline>
</glyph>
<glyph name="parenright" format="1">
  <advance width="278"/>
  <unicode hex="0029"/>
  <outline>
    <contour>
      <point x="56" y="0" type="line"/>
      <point x="111" y="0" type="line" smooth="yes"/>
      <point x="186" y="0"/>
      <point x="249" y="62"/>
      <point x="249" y="138" type="curve" smooth="yes"/>
      <point x="249" y="582" type="line" smooth="yes"/>
      <point x="249" y="658"/>
      <point x="186" y="720"/>
      <point x="111" y="720" type="curve" smooth="yes"/>
      <point x="56" y="720" type="line"/>
      <point x="56" y="589" type="line"/>
      <point x="111" y="589" type="line" smooth="yes"/>
      <point x="114" y="589"/>
      <point x="117" y="586"/>
      <point x="117" y="582" type="curve" smooth="yes"/>
      <point x="117" y="138" type="line" smooth="yes"/>
      <point x="117" y="134"/>
      <point x="114" y="131"/>
      <point x="111" y="131" type="curve" smooth="yes"/>
      <point x="56" y="131" type="line"/>
    </contour>
  </outline>
</glyph>
<glyph name="asterisk" format="1">
  <advance width="491"/>
  <unicode hex="002A"/>
  <outline>
    <contour>
      <point x="439" y="632" type="line"/>
      <point x="318" y="592" type="line"/>
      <point x="318" y="719" type="line"/>
      <point x="186" y="719" type="line"/>
      <point x="186" y="591" type="line"/>
      <point x="65" y="632" type="line"/>
      <point x="25" y="506" type="line"/>
      <point x="146" y="467" type="line"/>
      <point x="71" y="364" type="line"/>
      <point x="177" y="287" type="line"/>
      <point x="251" y="390" type="line"/>
      <point x="328" y="287" type="line"/>
      <point x="434" y="364" type="line"/>
      <point x="358" y="467" type="line"/>
      <point x="480" y="506" type="line"/>
    </contour>
  </outline>
</glyph>
<glyph name="plus" format="1">
  <advance width="433"/>
  <unicode hex="002B"/>
  <outline>
    <contour>
      <point x="154" y="499" type="line"/>
      <point x="154" y="361" type="line"/>
      <point x="17" y="361" type="line"/>
      <point x="17" y="230" type="line"/>
      <point x="154" y="230" type="line"/>
      <point x="154" y="90" type="line"/>
      <point x="285" y="90" type="line"/>
      <point x="285" y="230" type="line"/>
      <point x="426" y="230" type="line"/>
      <point x="426" y="361" type="line"/>
      <point x="285" y="361" type="line"/>
      <point x="285" y="499" type="line"/>
    </contour>
  </outline>
</glyph>
<glyph name="comma" format="1">
  <advance width="220"/>
  <unicode hex="002C"/>
  <outline>
    <contour>
      <point x="54" y="119" type="line"/>
      <point x="54" y="-137" type="line"/>
      <point x="128" y="-124"/>
      <point x="185" y="-67"/>
      <point x="185" y="2" type="curve" smooth="yes"/>
      <point x="185" y="119" type="line"/>
    </contour>
  </outline>
</glyph>
<glyph name="hyphen" format="1">
  <advance width="517"/>
  <unicode hex="002D"/>
  <outline>
    <contour>
      <point x="468" y="361" type="line"/>
      <point x="59" y="361" type="line"/>
      <point x="59" y="230" type="line"/>
      <point x="468" y="230" type="line"/>
    </contour>
  </outline>
</glyph>
<glyph name="period" format="1">
  <advance width="214"/>
  <unicode hex="002E"/>
  <outline>
    <contour>
      <point x="185" y="131" type="line"/>
      <point x="54" y="131" type="line"/>
      <point x="54" y="0" type="line"/>
      <point x="185" y="0" type="line"/>
    </contour>
  </outline>
</glyph>
<glyph name="slash" format="1">
  <advance width="521"/>
  <unicode hex="002F"/>
  <outline>
    <contour>
      <point x="6" y="142" type="line"/>
      <point x="6" y="0" type="line"/>
      <point x="41" y="0" type="line"/>
      <point x="519" y="579" type="line"/>
      <point x="519" y="720" type="line"/>
      <point x="484" y="720" type="line"/>
    </contour>
  </outline>
</glyph>
<glyph name="zero" format="1">
  <advance width="834"/>
  <unicode hex="0030"/>
  <outline>
    <contour>
      <point x="195" y="720" type="line" smooth="yes"/>
      <point x="119" y="720"/>
      <point x="57" y="655"/>
      <point x="57" y="579" type="curve" smooth="yes"/>
      <point x="57" y="142" type="line" smooth="yes"/>
      <point x="57" y="66"/>
      <point x="119" y="0"/>
      <point x="195" y="0" type="curve" smooth="yes"/>
      <point x="632" y="0" type="line" smooth="yes"/>
      <point x="708" y="0"/>
      <point x="770" y="66"/>
      <point x="770" y="142" type="curve" smooth="yes"/>
      <point x="770" y="579" type="line" smooth="yes"/>
      <point x="770" y="655"/>
      <point x="708" y="720"/>
      <point x="632" y="720" type="curve" smooth="yes"/>
    </contour>
    <contour>
      <point x="580" y="586" type="line"/>
      <point x="188" y="257" type="line"/>
      <point x="188" y="579" type="line" smooth="yes"/>
      <point x="188" y="583"/>
      <point x="191" y="586"/>
      <point x="195" y="586" type="curve" smooth="yes"/>
    </contour>
    <contour>
      <point x="247" y="135" type="line"/>
      <point x="639" y="464" type="line"/>
      <point x="639" y="142" type="line" smooth="yes"/>
      <point x="639" y="138"/>
      <point x="636" y="135"/>
      <point x="632" y="135" type="curve" smooth="yes"/>
    </contour>
  </outline>
</glyph>
<glyph name="one" format="1">
  <advance width="391"/>
  <unicode hex="0031"/>
  <outline>
    <contour>
      <point x="1" y="461" type="line"/>
      <point x="174" y="461" type="line"/>
      <point x="192" y="483"/>
      <point x="212" y="505"/>
      <point x="232" y="529" type="curve"/>
      <point x="232" y="0" type="line"/>
      <point x="363" y="0" type="line"/>
      <point x="363" y="720" type="line"/>
      <point x="218" y="720" type="line"/>
    </contour>
  </outline>
</glyph>
<glyph name="two" format="1">
  <advance width="830"/>
  <unicode hex="0032"/>
  <outline>
    <contour>
      <point x="195" y="720" type="line" smooth="yes"/>
      <point x="119" y="720"/>
      <point x="57" y="658"/>
      <point x="57" y="582" type="curve" smooth="yes"/>
      <point x="57" y="528" type="line"/>
      <point x="188" y="528" type="line"/>
      <point x="188" y="582" type="line" smooth="yes"/>
      <point x="188" y="586"/>
      <point x="191" y="589"/>
      <point x="195" y="589" type="curve" smooth="yes"/>
      <point x="632" y="589" type="line" smooth="yes"/>
      <point x="636" y="589"/>
      <point x="639" y="586"/>
      <point x="639" y="582" type="curve" smooth="yes"/>
      <point x="639" y="422" type="line" smooth="yes"/>
      <point x="639" y="419"/>
      <point x="636" y="416"/>
      <point x="632" y="416" type="curve" smooth="yes"/>
      <point x="195" y="416" type="line" smooth="yes"/>
      <point x="119" y="416"/>
      <point x="57" y="354"/>
      <point x="57" y="278" type="curve" smooth="yes"/>
      <point x="57" y="0" type="line"/>
      <point x="770" y="0" type="line"/>
      <point x="770" y="131" type="line"/>
      <point x="195" y="131" type="line" smooth="yes"/>
      <point x="191" y="131"/>
      <point x="188" y="134"/>
      <point x="188" y="138" type="curve" smooth="yes"/>
      <point x="188" y="278" type="line" smooth="yes"/>
      <point x="188" y="282"/>
      <point x="191" y="284"/>
      <point x="195" y="284" type="curve" smooth="yes"/>
      <point x="632" y="284" type="line" smooth="yes"/>
      <point x="708" y="284"/>
      <point x="770" y="346"/>
      <point x="770" y="422" type="curve" smooth="yes"/>
      <point x="770" y="582" type="line" smooth="yes"/>
      <point x="770" y="658"/>
      <point x="708" y="720"/>
      <point x="632" y="720" type="curve" smooth="yes"/>
    </contour>
  </outline>
</glyph>
<glyph name="three" format="1">
  <advance width="826"/>
  <unicode hex="0033"/>
  <outline>
    <contour>
      <point x="738" y="582" type="line" smooth="yes"/>
      <point x="738" y="658"/>
      <point x="676" y="720"/>
      <point x="600" y="720" type="curve" smooth="yes"/>
      <point x="191" y="720" type="line" smooth="yes"/>
      <point x="115" y="720"/>
      <point x="53" y="658"/>
      <point x="53" y="582" type="curve" smooth="yes"/>
      <point x="53" y="530" type="line"/>
      <point x="184" y="530" type="line"/>
      <point x="184" y="582" type="line" smooth="yes"/>
      <point x="184" y="586"/>
      <point x="187" y="589"/>
      <point x="191" y="589" type="curve" smooth="yes"/>
      <point x="600" y="589" type="line" smooth="yes"/>
      <point x="604" y="589"/>
      <point x="607" y="586"/>
      <point x="607" y="582" type="curve" smooth="yes"/>
      <point x="607" y="438" type="line" smooth="yes"/>
      <point x="607" y="435"/>
      <point x="604" y="432"/>
      <point x="600" y="432" type="curve" smooth="yes"/>
      <point x="177" y="432" type="line"/>
      <point x="177" y="301" type="line"/>
      <point x="629" y="301" type="line" smooth="yes"/>
      <point x="632" y="301"/>
      <point x="635" y="298"/>
      <point x="635" y="294" type="curve" smooth="yes"/>
      <point x="635" y="138" type="line" smooth="yes"/>
      <point x="635" y="134"/>
      <point x="632" y="131"/>
      <point x="629" y="131" type="curve" smooth="yes"/>
      <point x="191" y="131" type="line" smooth="yes"/>
      <point x="187" y="131"/>
      <point x="184" y="134"/>
      <point x="184" y="138" type="curve" smooth="yes"/>
      <point x="184" y="181" type="line"/>
      <point x="53" y="181" type="line"/>
      <point x="53" y="138" type="line" smooth="yes"/>
      <point x="53" y="62"/>
      <point x="115" y="0"/>
      <point x="191" y="0" type="curve" smooth="yes"/>
      <point x="629" y="0" type="line" smooth="yes"/>
      <point x="705" y="0"/>
      <point x="766" y="62"/>
      <point x="766" y="138" type="curve" smooth="yes"/>
      <point x="766" y="294" type="line" smooth="yes"/>
      <point x="766" y="330"/>
      <point x="751" y="364"/>
      <point x="728" y="388" type="curve"/>
      <point x="735" y="403"/>
      <point x="738" y="420"/>
      <point x="738" y="438" type="curve" smooth="yes"/>
    </contour>
  </outline>
</glyph>
<glyph name="four" format="1">
  <advance width="730"/>
  <unicode hex="0034"/>
  <outline>
    <contour>
      <point x="590" y="312" type="line"/>
      <point x="590" y="720" type="line"/>
      <point x="467" y="720" type="line"/>
      <point x="6" y="304" type="line"/>
      <point x="6" y="181" type="line"/>
      <point x="459" y="181" type="line"/>
      <point x="459" y="0" type="line"/>
      <point x="590" y="0" type="line"/>
      <point x="590" y="181" type="line"/>
      <point x="691" y="181" type="line"/>
      <point x="691" y="312" type="line"/>
    </contour>
    <contour>
      <point x="459" y="514" type="line"/>
      <point x="459" y="312" type="line"/>
      <point x="210" y="312" type="line"/>
    </contour>
  </outline>
</glyph>
<glyph name="six" format="1">
  <advance width="820"/>
  <unicode hex="0036"/>
  <outline>
    <contour>
      <point x="195" y="435" type="line" smooth="yes"/>
      <point x="191" y="435"/>
      <point x="188" y="438"/>
      <point x="188" y="441" type="curve" smooth="yes"/>
      <point x="188" y="582" type="line" smooth="yes"/>
      <point x="188" y="586"/>
      <point x="191" y="589"/>
      <point x="195" y="589" type="curve" smooth="yes"/>
      <point x="656" y="589" type="line"/>
      <point x="656" y="720" type="line"/>
      <point x="195" y="720" type="line" smooth="yes"/>
      <point x="119" y="720"/>
      <point x="57" y="658"/>
      <point x="57" y="582" type="curve" smooth="yes"/>
      <point x="57" y="138" type="line" smooth="yes"/>
      <point x="57" y="62"/>
      <point x="119" y="0"/>
      <point x="195" y="0" type="curve" smooth="yes"/>
      <point x="632" y="0" type="line" smooth="yes"/>
      <point x="708" y="0"/>
      <point x="770" y="62"/>
      <point x="770" y="138" type="curve" smooth="yes"/>
      <point x="770" y="297" type="line" smooth="yes"/>
      <point x="770" y="373"/>
      <point x="708" y="435"/>
      <point x="632" y="435" type="curve" smooth="yes"/>
    </contour>
    <contour>
      <point x="639" y="138" type="line" smooth="yes"/>
      <point x="639" y="134"/>
      <point x="636" y="131"/>
      <point x="632" y="131" type="curve" smooth="yes"/>
      <point x="195" y="131" type="line" smooth="yes"/>
      <point x="191" y="131"/>
      <point x="188" y="134"/>
      <point x="188" y="138" type="curve" smooth="yes"/>
      <point x="188" y="303" type="line"/>
      <point x="632" y="303" type="line" smooth="yes"/>
      <point x="636" y="303"/>
      <point x="639" y="301"/>
      <point x="639" y="297" type="curve" smooth="yes"/>
    </contour>
  </outline>
</glyph>
<glyph name="seven" format="1">
  <advance width="660"/>
  <unicode hex="0037"/>
  <outline>
    <contour>
      <point x="3" y="720" type="line"/>
      <point x="3" y="589" type="line"/>
      <point x="464" y="589" type="line" smooth="yes"/>
      <point x="468" y="589"/>
      <point x="471" y="586"/>
      <point x="471" y="582" type="curve" smooth="yes"/>
      <point x="471" y="0" type="line"/>
      <point x="602" y="0" type="line"/>
      <point x="602" y="582" type="line" smooth="yes"/>
      <point x="602" y="658"/>
      <point x="540" y="720"/>
      <point x="464" y="720" type="curve" smooth="yes"/>
    </contour>
  </outline>
</glyph>
<glyph name="eight" format="1">
  <advance width="834"/>
  <unicode hex="0038"/>
  <outline>
    <contour>
      <point x="770" y="606" type="line"/>
      <point x="759" y="671"/>
      <point x="700" y="720"/>
      <point x="632" y="720" type="curve" smooth="yes"/>
      <point x="195" y="720" type="line" smooth="yes"/>
      <point x="119" y="720"/>
      <point x="57" y="658"/>
      <point x="57" y="582" type="curve" smooth="yes"/>
      <point x="57" y="441" type="line" smooth="yes"/>
      <point x="57" y="416"/>
      <point x="64" y="390"/>
      <point x="77" y="369" type="curve"/>
      <point x="64" y="348"/>
      <point x="57" y="322"/>
      <point x="57" y="297" type="curve" smooth="yes"/>
      <point x="57" y="138" type="line" smooth="yes"/>
      <point x="57" y="62"/>
      <point x="119" y="0"/>
      <point x="195" y="0" type="curve" smooth="yes"/>
      <point x="632" y="0" type="line" smooth="yes"/>
      <point x="708" y="0"/>
      <point x="770" y="62"/>
      <point x="770" y="138" type="curve" smooth="yes"/>
      <point x="770" y="297" type="line" smooth="yes"/>
      <point x="770" y="322"/>
      <point x="764" y="348"/>
      <point x="750" y="369" type="curve"/>
      <point x="764" y="390"/>
      <point x="770" y="416"/>
      <point x="770" y="441" type="curve" smooth="yes"/>
    </contour>
    <contour>
      <point x="639" y="138" type="line" smooth="yes"/>
      <point x="639" y="134"/>
      <point x="636" y="131"/>
      <point x="632" y="131" type="curve" smooth="yes"/>
      <point x="195" y="131" type="line" smooth="yes"/>
      <point x="191" y="131"/>
      <point x="188" y="134"/>
      <point x="188" y="138" type="curve" smooth="yes"/>
      <point x="188" y="297" type="line" smooth="yes"/>
      <point x="188" y="301"/>
      <point x="191" y="303"/>
      <point x="195" y="303" type="curve" smooth="yes"/>
      <point x="632" y="303" type="line" smooth="yes"/>
      <point x="636" y="303"/>
      <point x="639" y="301"/>
      <point x="639" y="297" type="curve" smooth="yes"/>
    </contour>
    <contour>
      <point x="639" y="431" type="line" smooth="yes"/>
      <point x="639" y="427"/>
      <point x="636" y="424"/>
      <point x="632" y="424" type="curve" smooth="yes"/>
      <point x="195" y="424" type="line" smooth="yes"/>
      <point x="191" y="424"/>
      <point x="188" y="427"/>
      <point x="188" y="431" type="curve" smooth="yes"/>
      <point x="188" y="581" type="line" smooth="yes"/>
      <point x="188" y="585"/>
      <point x="191" y="588"/>
      <point x="195" y="588" type="curve" smooth="yes"/>
      <point x="632" y="588" type="line" smooth="yes"/>
      <point x="636" y="588"/>
      <point x="639" y="585"/>
      <point x="639" y="581" type="curve" smooth="yes"/>
    </contour>
  </outline>
</glyph>
<glyph name="nine" format="1">
  <advance width="828"/>
  <unicode hex="0039"/>
  <outline>
    <contour>
      <point x="628" y="288" type="line" smooth="yes"/>
      <point x="631" y="288"/>
      <point x="634" y="286"/>
      <point x="634" y="282" type="curve" smooth="yes"/>
      <point x="634" y="138" type="line" smooth="yes"/>
      <point x="634" y="134"/>
      <point x="631" y="131"/>
      <point x="628" y="131" type="curve" smooth="yes"/>
      <point x="51" y="131" type="line"/>
      <point x="64" y="57"/>
      <point x="122" y="0"/>
      <point x="190" y="0" type="curve" smooth="yes"/>
      <point x="628" y="0" type="line" smooth="yes"/>
      <point x="704" y="0"/>
      <point x="765" y="62"/>
      <point x="765" y="138" type="curve" smooth="yes"/>
      <point x="765" y="582" type="line" smooth="yes"/>
      <point x="765" y="658"/>
      <point x="704" y="720"/>
      <point x="628" y="720" type="curve" smooth="yes"/>
      <point x="190" y="720" type="line" smooth="yes"/>
      <point x="114" y="720"/>
      <point x="52" y="658"/>
      <point x="52" y="582" type="curve" smooth="yes"/>
      <point x="52" y="426" type="line" smooth="yes"/>
      <point x="52" y="350"/>
      <point x="114" y="288"/>
      <point x="190" y="288" type="curve" smooth="yes"/>
    </contour>
    <contour>
      <point x="184" y="582" type="line" smooth="yes"/>
      <point x="184" y="586"/>
      <point x="186" y="589"/>
      <point x="190" y="589" type="curve" smooth="yes"/>
      <point x="628" y="589" type="line" smooth="yes"/>
      <point x="631" y="589"/>
      <point x="634" y="586"/>
      <point x="634" y="582" type="curve" smooth="yes"/>
      <point x="634" y="420" type="line"/>
      <point x="190" y="420" type="line" smooth="yes"/>
      <point x="186" y="420"/>
      <point x="184" y="423"/>
      <point x="184" y="426" type="curve" smooth="yes"/>
    </contour>
  </outline>
</glyph>
<glyph name="colon" format="1">
  <advance width="214"/>
  <unicode hex="003A"/>
  <outline>
    <contour>
      <point x="54" y="131" type="line"/>
      <point x="54" y="0" type="line"/>
      <point x="185" y="0" type="line"/>
      <point x="185" y="131" type="line"/>
    </contour>
    <contour>
      <point x="185" y="588" type="line"/>
      <point x="54" y="588" type="line"/>
      <point x="54" y="456" type="line"/>
      <point x="185" y="456" type="line"/>
    </contour>
  </outline>
</glyph>
<glyph name="semicolon" format="1">
  <advance width="217"/>
  <unicode hex="003B"/>
  <outline>
    <contour>
      <point x="182" y="588" type="line"/>
      <point x="51" y="588" type="line"/>
      <point x="51" y="456" type="line"/>
      <point x="182" y="456" type="line"/>
    </contour>
    <contour>
      <point x="51" y="119" type="line"/>
      <point x="51" y="-137" type="line"/>
      <point x="125" y="-124"/>
      <point x="182" y="-67"/>
      <point x="182" y="2" type="curve" smooth="yes"/>
      <point x="182" y="119" type="line"/>
    </contour>
  </outline>
</glyph>
<glyph name="less" format="1">
  <advance width="473"/>
  <unicode hex="003C"/>
  <outline>
    <contour>
      <point x="163" y="296" type="line"/>
      <point x="424" y="446" type="line"/>
      <point x="424" y="597" type="line"/>
      <point x="5" y="355" type="line"/>
      <point x="5" y="237" type="line"/>
      <point x="424" y="-7" type="line"/>
      <point x="424" y="145" type="line"/>
    </contour>
  </outline>
</glyph>
<glyph name="equal" format="1">
  <advance width="638"/>
  <unicode hex="003D"/>
  <outline>
    <contour>
      <point x="582" y="267" type="line"/>
      <point x="59" y="267" type="line"/>
      <point x="59" y="136" type="line"/>
      <point x="582" y="136" type="line"/>
    </contour>
    <contour>
      <point x="582" y="448" type="line"/>
      <point x="59" y="448" type="line"/>
      <point x="59" y="317" type="line"/>
      <point x="582" y="317" type="line"/>
    </contour>
  </outline>
</glyph>
<glyph name="greater" format="1">
  <advance width="475"/>
  <unicode hex="003E"/>
  <outline>
    <contour>
      <point x="59" y="-9" type="line"/>
      <point x="479" y="235" type="line"/>
      <point x="479" y="353" type="line"/>
      <point x="59" y="595" type="line"/>
      <point x="59" y="444" type="line"/>
      <point x="143" y="396"/>
      <point x="233" y="342"/>
      <point x="319" y="294" type="curve"/>
      <point x="59" y="143" type="line"/>
    </contour>
  </outline>
</glyph>
<glyph name="question" format="1">
  <advance width="678"/>
  <unicode hex="003F"/>
  <outline>
    <contour>
      <point x="31" y="720" type="line"/>
      <point x="31" y="589" type="line"/>
      <point x="517" y="589" type="line" smooth="yes"/>
      <point x="521" y="589"/>
      <point x="524" y="586"/>
      <point x="524" y="582" type="curve" smooth="yes"/>
      <point x="524" y="407" type="line" smooth="yes"/>
      <point x="524" y="403"/>
      <point x="521" y="401"/>
      <point x="517" y="401" type="curve" smooth="yes"/>
      <point x="271" y="401" type="line" smooth="yes"/>
      <point x="195" y="401"/>
      <point x="133" y="339"/>
      <point x="133" y="263" type="curve" smooth="yes"/>
      <point x="133" y="196" type="line"/>
      <point x="265" y="196" type="line"/>
      <point x="265" y="263" type="line" smooth="yes"/>
      <point x="265" y="267"/>
      <point x="267" y="269"/>
      <point x="271" y="269" type="curve" smooth="yes"/>
      <point x="517" y="269" type="line" smooth="yes"/>
      <point x="594" y="269"/>
      <point x="655" y="331"/>
      <point x="655" y="407" type="curve" smooth="yes"/>
      <point x="655" y="582" type="line" smooth="yes"/>
      <point x="655" y="658"/>
      <point x="594" y="720"/>
      <point x="517" y="720" type="curve" smooth="yes"/>
    </contour>
    <contour>
      <point x="265" y="0" type="line"/>
      <point x="265" y="131" type="line"/>
      <point x="133" y="131" type="line"/>
      <point x="133" y="0" type="line"/>
    </contour>
  </outline>
</glyph>
<glyph name="at" format="1">
  <advance width="831"/>
  <unicode hex="0040"/>
  <outline>
    <contour>
      <point x="381" y="529" type="line" smooth="yes"/>
      <point x="305" y="529"/>
      <point x="243" y="468"/>
      <point x="243" y="392" type="curve" smooth="yes"/>
      <point x="243" y="336" type="line" smooth="yes"/>
      <point x="243" y="259"/>
      <point x="305" y="198"/>
      <point x="381" y="198" type="curve" smooth="yes"/>
      <point x="770" y="198" type="line"/>
      <point x="770" y="582" type="line" smooth="yes"/>
      <point x="770" y="658"/>
      <point x="708" y="720"/>
      <point x="632" y="720" type="curve" smooth="yes"/>
      <point x="195" y="720" type="line" smooth="yes"/>
      <point x="119" y="720"/>
      <point x="57" y="658"/>
      <point x="57" y="582" type="curve" smooth="yes"/>
      <point x="57" y="138" type="line" smooth="yes"/>
      <point x="57" y="62"/>
      <point x="119" y="0"/>
      <point x="195" y="0" type="curve" smooth="yes"/>
      <point x="770" y="0" type="line"/>
      <point x="770" y="131" type="line"/>
      <point x="195" y="131" type="line" smooth="yes"/>
      <point x="191" y="131"/>
      <point x="188" y="134"/>
      <point x="188" y="138" type="curve" smooth="yes"/>
      <point x="188" y="582" type="line" smooth="yes"/>
      <point x="188" y="586"/>
      <point x="191" y="589"/>
      <point x="195" y="589" type="curve" smooth="yes"/>
      <point x="632" y="589" type="line" smooth="yes"/>
      <point x="636" y="589"/>
      <point x="639" y="586"/>
      <point x="639" y="582" type="curve" smooth="yes"/>
      <point x="639" y="310" type="line"/>
      <point x="584" y="310" type="line"/>
      <point x="584" y="392" type="line" smooth="yes"/>
      <point x="584" y="468"/>
      <point x="523" y="529"/>
      <point x="447" y="529" type="curve" smooth="yes"/>
    </contour>
    <contour>
      <point x="352" y="310" type="line" smooth="yes"/>
      <point x="348" y="310"/>
      <point x="345" y="313"/>
      <point x="345" y="317" type="curve" smooth="yes"/>
      <point x="345" y="421" type="line" smooth="yes"/>
      <point x="345" y="424"/>
      <point x="348" y="427"/>
      <point x="352" y="427" type="curve" smooth="yes"/>
      <point x="476" y="427" type="line" smooth="yes"/>
      <point x="479" y="427"/>
      <point x="482" y="424"/>
      <point x="482" y="421" type="curve" smooth="yes"/>
      <point x="482" y="310" type="line"/>
    </contour>
  </outline>
</glyph>
<glyph name="B" format="1">
  <advance width="832"/>
  <unicode hex="0042"/>
  <outline>
    <contour>
      <point x="750" y="581" type="line" smooth="yes"/>
      <point x="750" y="658"/>
      <point x="687" y="720"/>
      <point x="611" y="720" type="curve" smooth="yes"/>
      <point x="59" y="720" type="line"/>
      <point x="59" y="0" type="line"/>
      <point x="639" y="0" type="line" smooth="yes"/>
      <point x="716" y="0"/>
      <point x="779" y="62"/>
      <point x="779" y="139" type="curve" smooth="yes"/>
      <point x="779" y="294" type="line" smooth="yes"/>
      <point x="779" y="330"/>
      <point x="763" y="365"/>
      <point x="740" y="389" type="curve"/>
      <point x="747" y="404"/>
      <point x="750" y="421"/>
      <point x="750" y="440" type="curve" smooth="yes"/>
    </contour>
    <contour>
      <point x="611" y="588" type="line" smooth="yes"/>
      <point x="614" y="588"/>
      <point x="617" y="585"/>
      <point x="617" y="581" type="curve" smooth="yes"/>
      <point x="617" y="440" type="line" smooth="yes"/>
      <point x="617" y="436"/>
      <point x="614" y="433"/>
      <point x="611" y="433" type="curve" smooth="yes"/>
      <point x="198" y="433" type="line" smooth="yes"/>
      <point x="194" y="433"/>
      <point x="191" y="436"/>
      <point x="191" y="440" type="curve" smooth="yes"/>
      <point x="191" y="581" type="line" smooth="yes"/>
      <point x="191" y="585"/>
      <point x="194" y="588"/>
      <point x="198" y="588" type="curve" smooth="yes"/>
    </contour>
    <contour>
      <point x="646" y="139" type="line" smooth="yes"/>
      <point x="646" y="135"/>
      <point x="643" y="132"/>
      <point x="639" y="132" type="curve" smooth="yes"/>
      <point x="198" y="132" type="line" smooth="yes"/>
      <point x="194" y="132"/>
      <point x="191" y="135"/>
      <point x="191" y="139" type="curve" smooth="yes"/>
      <point x="191" y="294" type="line" smooth="yes"/>
      <point x="191" y="298"/>
      <point x="194" y="300"/>
      <point x="198" y="300" type="curve" smooth="yes"/>
      <point x="639" y="300" type="line" smooth="yes"/>
      <point x="643" y="300"/>
      <point x="646" y="298"/>
      <point x="646" y="294" type="curve" smooth="yes"/>
    </contour>
  </outline>
</glyph>
<glyph name="C" format="1">
  <advance width="822"/>
  <unicode hex="0043"/>
  <outline>
    <contour>
      <point x="774" y="588" type="line"/>
      <point x="774" y="720" type="line"/>
      <point x="195" y="720" type="line" smooth="yes"/>
      <point x="118" y="720"/>
      <point x="56" y="658"/>
      <point x="56" y="581" type="curve" smooth="yes"/>
      <point x="56" y="139" type="line" smooth="yes"/>
      <point x="56" y="62"/>
      <point x="118" y="0"/>
      <point x="195" y="0" type="curve" smooth="yes"/>
      <point x="774" y="0" type="line"/>
      <point x="774" y="132" type="line"/>
      <point x="195" y="132" type="line" smooth="yes"/>
      <point x="191" y="132"/>
      <point x="188" y="135"/>
      <point x="188" y="139" type="curve" smooth="yes"/>
      <point x="188" y="581" type="line" smooth="yes"/>
      <point x="188" y="585"/>
      <point x="191" y="588"/>
      <point x="195" y="588" type="curve" smooth="yes"/>
    </contour>
  </outline>
</glyph>
<glyph name="D" format="1">
  <advance width="834"/>
  <unicode hex="0044"/>
  <outline>
    <contour>
      <point x="58" y="720" type="line"/>
      <point x="58" y="0" type="line"/>
      <point x="638" y="0" type="line" smooth="yes"/>
      <point x="715" y="0"/>
      <point x="778" y="62"/>
      <point x="778" y="139" type="curve" smooth="yes"/>
      <point x="778" y="581" type="line" smooth="yes"/>
      <point x="778" y="658"/>
      <point x="715" y="720"/>
      <point x="638" y="720" type="curve" smooth="yes"/>
    </contour>
    <contour>
      <point x="645" y="139" type="line" smooth="yes"/>
      <point x="645" y="135"/>
      <point x="642" y="132"/>
      <point x="638" y="132" type="curve" smooth="yes"/>
      <point x="197" y="132" type="line" smooth="yes"/>
      <point x="193" y="132"/>
      <point x="190" y="135"/>
      <point x="190" y="139" type="curve" smooth="yes"/>
      <point x="190" y="581" type="line" smooth="yes"/>
      <point x="190" y="585"/>
      <point x="193" y="588"/>
      <point x="197" y="588" type="curve" smooth="yes"/>
      <point x="638" y="588" type="line" smooth="yes"/>
      <point x="642" y="588"/>
      <point x="645" y="585"/>
      <point x="645" y="581" type="curve" smooth="yes"/>
    </contour>
  </outline>
</glyph>
<glyph name="E" format="1">
  <advance width="766"/>
  <unicode hex="0045"/>
  <outline>
    <contour>
      <point x="720" y="720" type="line"/>
      <point x="58" y="720" type="line"/>
      <point x="58" y="0" type="line"/>
      <point x="720" y="0" type="line"/>
      <point x="720" y="132" type="line"/>
      <point x="191" y="132" type="line"/>
      <point x="191" y="294" type="line"/>
      <point x="617" y="294" type="line"/>
      <point x="617" y="426" type="line"/>
      <point x="191" y="426" type="line"/>
      <point x="191" y="588" type="line"/>
      <point x="720" y="588" type="line"/>
    </contour>
  </outline>
</glyph>
<glyph name="F" format="1">
  <advance width="723"/>
  <unicode hex="0046"/>
  <outline>
    <contour>
      <point x="58" y="720" type="line"/>
      <point x="58" y="0" type="line"/>
      <point x="191" y="0" type="line"/>
      <point x="191" y="294" type="line"/>
      <point x="617" y="294" type="line"/>
      <point x="617" y="426" type="line"/>
      <point x="191" y="426" type="line"/>
      <point x="191" y="588" type="line"/>
      <point x="720" y="588" type="line"/>
      <point x="720" y="720" type="line"/>
    </contour>
  </outline>
</glyph>
<glyph name="G" format="1">
  <advance width="830"/>
  <unicode hex="0047"/>
  <outline>
    <contour>
      <point x="776" y="581" type="line" smooth="yes"/>
      <point x="776" y="658"/>
      <point x="713" y="720"/>
      <point x="636" y="720" type="curve" smooth="yes"/>
      <point x="195" y="720" type="line" smooth="yes"/>
      <point x="118" y="720"/>
      <point x="56" y="658"/>
      <point x="56" y="581" type="curve" smooth="yes"/>
      <point x="56" y="139" type="line" smooth="yes"/>
      <point x="56" y="62"/>
      <point x="118" y="0"/>
      <point x="195" y="0" type="curve" smooth="yes"/>
      <point x="636" y="0" type="line" smooth="yes"/>
      <point x="713" y="0"/>
      <point x="776" y="62"/>
      <point x="776" y="139" type="curve" smooth="yes"/>
      <point x="776" y="407" type="line"/>
      <point x="480" y="407" type="line"/>
      <point x="480" y="275" type="line"/>
      <point x="643" y="275" type="line"/>
      <point x="643" y="139" type="line" smooth="yes"/>
      <point x="643" y="135"/>
      <point x="640" y="132"/>
      <point x="636" y="132" type="curve" smooth="yes"/>
      <point x="195" y="132" type="line" smooth="yes"/>
      <point x="191" y="132"/>
      <point x="188" y="135"/>
      <point x="188" y="139" type="curve" smooth="yes"/>
      <point x="188" y="581" type="line" smooth="yes"/>
      <point x="188" y="585"/>
      <point x="191" y="588"/>
      <point x="195" y="588" type="curve" smooth="yes"/>
      <point x="636" y="588" type="line" smooth="yes"/>
      <point x="640" y="588"/>
      <point x="643" y="585"/>
      <point x="643" y="581" type="curve" smooth="yes"/>
      <point x="643" y="525" type="line"/>
      <point x="776" y="525" type="line"/>
    </contour>
  </outline>
</glyph>
<glyph name="H" format="1">
  <advance width="851"/>
  <unicode hex="0048"/>
  <outline>
    <contour>
      <point x="661" y="720" type="line"/>
      <point x="661" y="426" type="line"/>
      <point x="189" y="426" type="line"/>
      <point x="189" y="720" type="line"/>
      <point x="57" y="720" type="line"/>
      <point x="57" y="0" type="line"/>
      <point x="189" y="0" type="line"/>
      <point x="189" y="294" type="line"/>
      <point x="661" y="294" type="line"/>
      <point x="661" y="0" type="line"/>
      <point x="793" y="0" type="line"/>
      <point x="793" y="720" type="line"/>
    </contour>
  </outline>
</glyph>
<glyph name="J" format="1">
  <advance width="780"/>
  <unicode hex="004A"/>
  <outline>
    <contour>
      <point x="591" y="139" type="line" smooth="yes"/>
      <point x="591" y="135"/>
      <point x="588" y="132"/>
      <point x="585" y="132" type="curve" smooth="yes"/>
      <point x="143" y="132" type="line" smooth="yes"/>
      <point x="139" y="132"/>
      <point x="136" y="135"/>
      <point x="136" y="139" type="curve" smooth="yes"/>
      <point x="136" y="221" type="line"/>
      <point x="4" y="221" type="line"/>
      <point x="4" y="139" type="line" smooth="yes"/>
      <point x="4" y="62"/>
      <point x="66" y="0"/>
      <point x="143" y="0" type="curve" smooth="yes"/>
      <point x="585" y="0" type="line" smooth="yes"/>
      <point x="661" y="0"/>
      <point x="724" y="62"/>
      <point x="724" y="139" type="curve" smooth="yes"/>
      <point x="724" y="720" type="line"/>
      <point x="591" y="720" type="line"/>
    </contour>
  </outline>
</glyph>
<glyph name="K" format="1">
  <advance width="797"/>
  <unicode hex="004B"/>
  <outline>
    <contour>
      <point x="606" y="720" type="line"/>
      <point x="527" y="624"/>
      <point x="440" y="522"/>
      <point x="360" y="426" type="curve"/>
      <point x="190" y="426" type="line"/>
      <point x="190" y="720" type="line"/>
      <point x="57" y="720" type="line"/>
      <point x="57" y="0" type="line"/>
      <point x="190" y="0" type="line"/>
      <point x="190" y="294" type="line"/>
      <point x="360" y="294" type="line"/>
      <point x="606" y="0" type="line"/>
      <point x="751" y="0" type="line"/>
      <point x="751" y="35" type="line"/>
      <point x="479" y="360" type="line"/>
      <point x="751" y="685" type="line"/>
      <point x="751" y="720" type="line"/>
    </contour>
  </outline>
</glyph>
<glyph name="M" format="1">
  <advance width="928"/>
  <unicode hex="004D"/>
  <outline>
    <contour>
      <point x="462" y="408" type="line"/>
      <point x="200" y="720" type="line"/>
      <point x="56" y="720" type="line"/>
      <point x="56" y="0" type="line"/>
      <point x="188" y="0" type="line"/>
      <point x="188" y="528" type="line"/>
      <point x="462" y="203" type="line"/>
      <point x="735" y="528" type="line"/>
      <point x="735" y="0" type="line"/>
      <point x="868" y="0" type="line"/>
      <point x="868" y="720" type="line"/>
      <point x="723" y="720" type="line"/>
    </contour>
  </outline>
</glyph>
<glyph name="N" format="1">
  <advance width="832"/>
  <unicode hex="004E"/>
  <outline>
    <contour>
      <point x="643" y="192" type="line"/>
      <point x="200" y="720" type="line"/>
      <point x="56" y="720" type="line"/>
      <point x="56" y="0" type="line"/>
      <point x="188" y="0" type="line"/>
      <point x="188" y="528" type="line"/>
      <point x="632" y="0" type="line"/>
      <point x="776" y="0" type="line"/>
      <point x="776" y="720" type="line"/>
      <point x="643" y="720" type="line"/>
    </contour>
  </outline>
</glyph>
<glyph name="P" format="1">
  <advance width="791"/>
  <unicode hex="0050"/>
  <outline>
    <contour>
      <point x="56" y="719" type="line"/>
      <point x="56" y="0" type="line"/>
      <point x="188" y="0" type="line"/>
      <point x="188" y="247" type="line"/>
      <point x="191" y="246" type="line"/>
      <point x="636" y="247" type="line" smooth="yes"/>
      <point x="713" y="247"/>
      <point x="776" y="310"/>
      <point x="776" y="386" type="curve" smooth="yes"/>
      <point x="776" y="580" type="line" smooth="yes"/>
      <point x="776" y="656"/>
      <point x="713" y="719"/>
      <point x="636" y="719" type="curve" smooth="yes"/>
    </contour>
    <contour>
      <point x="643" y="386" type="line" smooth="yes"/>
      <point x="643" y="382"/>
      <point x="640" y="379"/>
      <point x="636" y="379" type="curve" smooth="yes"/>
      <point x="195" y="379" type="line" smooth="yes"/>
      <point x="191" y="379"/>
      <point x="188" y="382"/>
      <point x="188" y="386" type="curve" smooth="yes"/>
      <point x="188" y="580" type="line" smooth="yes"/>
      <point x="188" y="584"/>
      <point x="191" y="587"/>
      <point x="195" y="587" type="curve" smooth="yes"/>
      <point x="636" y="587" type="line" smooth="yes"/>
      <point x="640" y="587"/>
      <point x="643" y="584"/>
      <point x="643" y="580" type="curve" smooth="yes"/>
    </contour>
  </outline>
</glyph>
<glyph name="R" format="1">
  <advance width="825"/>
  <unicode hex="0052"/>
  <outline>
    <contour>
      <point x="775" y="580" type="line" smooth="yes"/>
      <point x="775" y="656"/>
      <point x="712" y="719"/>
      <point x="635" y="719" type="curve" smooth="yes"/>
      <point x="55" y="719" type="line"/>
      <point x="55" y="0" type="line"/>
      <point x="187" y="0" type="line"/>
      <point x="187" y="247" type="line"/>
      <point x="190" y="247" type="line"/>
      <point x="423" y="247" type="line"/>
      <point x="631" y="0" type="line"/>
      <point x="775" y="0" type="line"/>
      <point x="775" y="34" type="line"/>
      <point x="596" y="247" type="line"/>
      <point x="635" y="247" type="line" smooth="yes"/>
      <point x="712" y="247"/>
      <point x="775" y="310"/>
      <point x="775" y="386" type="curve" smooth="yes"/>
    </contour>
    <contour>
      <point x="194" y="379" type="line" smooth="yes"/>
      <point x="190" y="379"/>
      <point x="187" y="382"/>
      <point x="187" y="386" type="curve" smooth="yes"/>
      <point x="187" y="580" type="line" smooth="yes"/>
      <point x="187" y="584"/>
      <point x="190" y="587"/>
      <point x="194" y="587" type="curve" smooth="yes"/>
      <point x="635" y="587" type="line" smooth="yes"/>
      <point x="639" y="587"/>
      <point x="642" y="584"/>
      <point x="642" y="580" type="curve" smooth="yes"/>
      <point x="642" y="386" type="line" smooth="yes"/>
      <point x="642" y="382"/>
      <point x="639" y="379"/>
      <point x="635" y="379" type="curve" smooth="yes"/>
    </contour>
  </outline>
</glyph>
<glyph name="T" format="1">
  <advance width="759"/>
  <unicode hex="0054"/>
  <outline>
    <contour>
      <point x="20" y="720" type="line"/>
      <point x="20" y="588" type="line"/>
      <point x="314" y="588" type="line"/>
      <point x="314" y="0" type="line"/>
      <point x="447" y="0" type="line"/>
      <point x="447" y="588" type="line"/>
      <point x="740" y="588" type="line"/>
      <point x="740" y="720" type="line"/>
    </contour>
  </outline>
</glyph>
<glyph name="V" format="1">
  <advance width="1003"/>
  <unicode hex="0056"/>
  <outline>
    <contour>
      <point x="511" y="160" type="line"/>
      <point x="188" y="720" type="line"/>
      <point x="35" y="720" type="line"/>
      <point x="451" y="0" type="line"/>
      <point x="570" y="0" type="line"/>
      <point x="986" y="720" type="line"/>
      <point x="833" y="720" type="line"/>
    </contour>
  </outline>
</glyph>
<glyph name="W" format="1">
  <advance width="1179"/>
  <unicode hex="0057"/>
  <outline>
    <contour>
      <point x="1000" y="720" type="line"/>
      <point x="826" y="245" type="line"/>
      <point x="652" y="720" type="line"/>
      <point x="523" y="720" type="line"/>
      <point x="349" y="245" type="line"/>
      <point x="175" y="720" type="line"/>
      <point x="35" y="720" type="line"/>
      <point x="297" y="0" type="line"/>
      <point x="400" y="0" type="line"/>
      <point x="460" y="167"/>
      <point x="526" y="343"/>
      <point x="587" y="511" type="curve"/>
      <point x="774" y="0" type="line"/>
      <point x="878" y="0" type="line"/>
      <point x="1140" y="720" type="line"/>
    </contour>
  </outline>
</glyph>
<glyph name="X" format="1">
  <advance width="812"/>
  <unicode hex="0058"/>
  <outline>
    <contour>
      <point x="621" y="720" type="line"/>
      <point x="551" y="636"/>
      <point x="477" y="549"/>
      <point x="406" y="465" type="curve"/>
      <point x="191" y="720" type="line"/>
      <point x="46" y="720" type="line"/>
      <point x="46" y="685" type="line"/>
      <point x="319" y="360" type="line"/>
      <point x="46" y="35" type="line"/>
      <point x="46" y="0" type="line"/>
      <point x="191" y="0" type="line"/>
      <point x="261" y="84"/>
      <point x="335" y="171"/>
      <point x="406" y="255" type="curve"/>
      <point x="621" y="0" type="line"/>
      <point x="766" y="0" type="line"/>
      <point x="766" y="35" type="line"/>
      <point x="492" y="360" type="line"/>
      <point x="766" y="685" type="line"/>
      <point x="766" y="720" type="line"/>
    </contour>
  </outline>
</glyph>
<glyph name="Y" format="1">
  <advance width="806"/>
  <unicode hex="0059"/>
  <outline>
    <contour>
      <point x="657" y="720" type="line"/>
      <point x="416" y="414" type="line"/>
      <point x="174" y="720" type="line"/>
      <point x="17" y="720" type="line"/>
      <point x="121" y="577"/>
      <point x="245" y="412"/>
      <point x="350" y="269" type="curve"/>
      <point x="350" y="0" type="line"/>
      <point x="482" y="0" type="line"/>
      <point x="482" y="269" type="line"/>
      <point x="815" y="720" type="line"/>
    </contour>
  </outline>
</glyph>
<glyph name="Z" format="1">
  <advance width="821"/>
  <unicode hex="005A"/>
  <outline>
    <contour>
      <point x="51" y="588" type="line"/>
      <point x="579" y="588" type="line"/>
      <point x="51" y="144" type="line"/>
      <point x="51" y="0" type="line"/>
      <point x="771" y="0" type="line"/>
      <point x="771" y="132" type="line"/>
      <point x="243" y="132" type="line"/>
      <point x="771" y="576" type="line"/>
      <point x="771" y="720" type="line"/>
      <point x="51" y="720" type="line"/>
    </contour>
  </outline>
</glyph>
<glyph name="bracketleft" format="1">
  <advance width="275"/>
  <unicode hex="005B"/>
  <outline>
    <contour>
      <point x="54" y="0" type="line"/>
      <point x="246" y="0" type="line"/>
      <point x="246" y="131" type="line"/>
      <point x="185" y="131" type="line"/>
      <point x="185" y="589" type="line"/>
      <point x="246" y="589" type="line"/>
      <point x="246" y="720" type="line"/>
      <point x="54" y="720" type="line"/>
    </contour>
  </outline>
</glyph>
<glyph name="backslash" format="1">
  <advance width="520"/>
  <unicode hex="005C"/>
  <outline>
    <contour>
      <point x="5" y="720" type="line"/>
      <point x="5" y="579" type="line"/>
      <point x="483" y="0" type="line"/>
      <point x="518" y="0" type="line"/>
      <point x="518" y="141" type="line"/>
      <point x="40" y="720" type="line"/>
    </contour>
  </outline>
</glyph>
<glyph name="bracketright" format="1">
  <advance width="276"/>
  <unicode hex="005D"/>
  <outline>
    <contour>
      <point x="51" y="589" type="line"/>
      <point x="111" y="589" type="line"/>
      <point x="111" y="131" type="line"/>
      <point x="51" y="131" type="line"/>
      <point x="51" y="0" type="line"/>
      <point x="243" y="0" type="line"/>
      <point x="243" y="720" type="line"/>
      <point x="51" y="720" type="line"/>
    </contour>
  </outline>
</glyph>
<glyph name="underscore" format="1">
  <advance width="828"/>
  <unicode hex="005F"/>
  <outline>
    <contour>
      <point x="767" y="0" type="line"/>
      <point x="54" y="0" type="line"/>
      <point x="54" y="-131" type="line"/>
      <point x="767" y="-131" type="line"/>
    </contour>
  </outline>
</glyph>
<glyph name="grave" format="1">
  <advance width="213"/>
  <unicode hex="0060"/>
  <outline>
    <contour>
      <point x="165" y="969" type="line"/>
      <point x="32" y="969" type="line"/>
      <point x="78" y="786" type="line"/>
      <point x="211" y="786" type="line"/>
    </contour>
  </outline>
</glyph>
<glyph name="b" format="1">
  <advance width="667"/>
  <unicode hex="0062"/>
  <outline>
    <contour>
      <point x="185" y="580" type="line"/>
      <point x="185" y="770" type="line"/>
      <point x="54" y="770" type="line"/>
      <point x="54" y="0" type="line"/>
      <point x="505" y="0" type="line" smooth="yes"/>
      <point x="581" y="0"/>
      <point x="643" y="62"/>
      <point x="643" y="138" type="curve" smooth="yes"/>
      <point x="643" y="442" type="line" smooth="yes"/>
      <point x="643" y="518"/>
      <point x="581" y="580"/>
      <point x="505" y="580" type="curve" smooth="yes"/>
    </contour>
    <contour>
      <point x="512" y="138" type="line" smooth="yes"/>
      <point x="512" y="134"/>
      <point x="509" y="131"/>
      <point x="505" y="131" type="curve" smooth="yes"/>
      <point x="192" y="131" type="line" smooth="yes"/>
      <point x="188" y="131"/>
      <point x="185" y="134"/>
      <point x="185" y="138" type="curve" smooth="yes"/>
      <point x="185" y="442" type="line" smooth="yes"/>
      <point x="185" y="446"/>
      <point x="188" y="449"/>
      <point x="192" y="449" type="curve" smooth="yes"/>
      <point x="505" y="449" type="line" smooth="yes"/>
      <point x="509" y="449"/>
      <point x="512" y="446"/>
      <point x="512" y="442" type="curve" smooth="yes"/>
    </contour>
  </outline>
</glyph>
<glyph name="c" format="1">
  <advance width="695"/>
  <unicode hex="0063"/>
  <outline>
    <contour>
      <point x="189" y="131" type="line" smooth="yes"/>
      <point x="185" y="131"/>
      <point x="182" y="134"/>
      <point x="182" y="138" type="curve" smooth="yes"/>
      <point x="182" y="442" type="line" smooth="yes"/>
      <point x="182" y="446"/>
      <point x="185" y="449"/>
      <point x="189" y="449" type="curve" smooth="yes"/>
      <point x="638" y="449" type="line"/>
      <point x="638" y="580" type="line"/>
      <point x="189" y="580" type="line" smooth="yes"/>
      <point x="113" y="580"/>
      <point x="51" y="518"/>
      <point x="51" y="442" type="curve" smooth="yes"/>
      <point x="51" y="138" type="line" smooth="yes"/>
      <point x="51" y="62"/>
      <point x="113" y="0"/>
      <point x="189" y="0" type="curve" smooth="yes"/>
      <point x="640" y="0" type="line"/>
      <point x="640" y="131" type="line"/>
    </contour>
  </outline>
</glyph>
<glyph name="d" format="1">
  <advance width="667"/>
  <unicode hex="0064"/>
  <outline>
    <contour>
      <point x="482" y="770" type="line"/>
      <point x="482" y="580" type="line"/>
      <point x="161" y="580" type="line" smooth="yes"/>
      <point x="85" y="580"/>
      <point x="23" y="518"/>
      <point x="23" y="442" type="curve" smooth="yes"/>
      <point x="23" y="138" type="line" smooth="yes"/>
      <point x="23" y="62"/>
      <point x="85" y="0"/>
      <point x="161" y="0" type="curve" smooth="yes"/>
      <point x="613" y="0" type="line"/>
      <point x="613" y="770" type="line"/>
    </contour>
    <contour>
      <point x="161" y="131" type="line" smooth="yes"/>
      <point x="157" y="131"/>
      <point x="155" y="134"/>
      <point x="155" y="138" type="curve" smooth="yes"/>
      <point x="155" y="442" type="line" smooth="yes"/>
      <point x="155" y="446"/>
      <point x="157" y="449"/>
      <point x="161" y="449" type="curve" smooth="yes"/>
      <point x="475" y="449" type="line" smooth="yes"/>
      <point x="479" y="449"/>
      <point x="482" y="446"/>
      <point x="482" y="442" type="curve" smooth="yes"/>
      <point x="482" y="138" type="line" smooth="yes"/>
      <point x="482" y="134"/>
      <point x="479" y="131"/>
      <point x="475" y="131" type="curve" smooth="yes"/>
    </contour>
  </outline>
</glyph>
<glyph name="e" format="1">
  <advance width="692"/>
  <unicode hex="0065"/>
  <outline>
    <contour>
      <point x="189" y="580" type="line" smooth="yes"/>
      <point x="113" y="580"/>
      <point x="51" y="518"/>
      <point x="51" y="442" type="curve" smooth="yes"/>
      <point x="51" y="138" type="line" smooth="yes"/>
      <point x="51" y="62"/>
      <point x="113" y="0"/>
      <point x="189" y="0" type="curve" smooth="yes"/>
      <point x="640" y="0" type="line"/>
      <point x="640" y="131" type="line"/>
      <point x="189" y="131" type="line" smooth="yes"/>
      <point x="185" y="131"/>
      <point x="182" y="134"/>
      <point x="182" y="138" type="curve" smooth="yes"/>
      <point x="182" y="224" type="line"/>
      <point x="640" y="224" type="line"/>
      <point x="640" y="442" type="line" smooth="yes"/>
      <point x="640" y="518"/>
      <point x="578" y="580"/>
      <point x="502" y="580" type="curve" smooth="yes"/>
    </contour>
    <contour>
      <point x="182" y="356" type="line"/>
      <point x="182" y="442" type="line" smooth="yes"/>
      <point x="182" y="446"/>
      <point x="185" y="449"/>
      <point x="189" y="449" type="curve" smooth="yes"/>
      <point x="502" y="449" type="line" smooth="yes"/>
      <point x="506" y="449"/>
      <point x="509" y="446"/>
      <point x="509" y="442" type="curve" smooth="yes"/>
      <point x="509" y="356" type="line"/>
    </contour>
  </outline>
</glyph>
<glyph name="f" format="1">
  <advance width="437"/>
  <unicode hex="0066"/>
  <outline>
    <contour>
      <point x="410" y="638" type="line"/>
      <point x="410" y="770" type="line"/>
      <point x="191" y="770" type="line" smooth="yes"/>
      <point x="114" y="770"/>
      <point x="53" y="708"/>
      <point x="53" y="632" type="curve" smooth="yes"/>
      <point x="53" y="0" type="line"/>
      <point x="184" y="0" type="line"/>
      <point x="184" y="449" type="line"/>
      <point x="410" y="449" type="line"/>
      <point x="410" y="580" type="line"/>
      <point x="184" y="580" type="line"/>
      <point x="184" y="632" type="line" smooth="yes"/>
      <point x="184" y="636"/>
      <point x="187" y="638"/>
      <point x="191" y="638" type="curve" smooth="yes"/>
    </contour>
  </outline>
</glyph>
<glyph name="g" format="1">
  <advance width="683"/>
  <unicode hex="0067"/>
  <outline>
    <contour>
      <point x="630" y="442" type="line" smooth="yes"/>
      <point x="630" y="518"/>
      <point x="569" y="580"/>
      <point x="493" y="580" type="curve" smooth="yes"/>
      <point x="179" y="580" type="line" smooth="yes"/>
      <point x="103" y="580"/>
      <point x="41" y="518"/>
      <point x="41" y="442" type="curve" smooth="yes"/>
      <point x="41" y="138" type="line" smooth="yes"/>
      <point x="41" y="62"/>
      <point x="103" y="0"/>
      <point x="179" y="0" type="curve" smooth="yes"/>
      <point x="499" y="0" type="line"/>
      <point x="499" y="-92" type="line" smooth="yes"/>
      <point x="499" y="-96"/>
      <point x="496" y="-98"/>
      <point x="493" y="-98" type="curve" smooth="yes"/>
      <point x="138" y="-98" type="line"/>
      <point x="138" y="-230" type="line"/>
      <point x="493" y="-230" type="line" smooth="yes"/>
      <point x="569" y="-230"/>
      <point x="630" y="-168"/>
      <point x="630" y="-92" type="curve" smooth="yes"/>
    </contour>
    <contour>
      <point x="179" y="131" type="line" smooth="yes"/>
      <point x="175" y="131"/>
      <point x="172" y="134"/>
      <point x="172" y="138" type="curve" smooth="yes"/>
      <point x="172" y="442" type="line" smooth="yes"/>
      <point x="172" y="446"/>
      <point x="175" y="449"/>
      <point x="179" y="449" type="curve" smooth="yes"/>
      <point x="493" y="449" type="line" smooth="yes"/>
      <point x="496" y="449"/>
      <point x="499" y="446"/>
      <point x="499" y="442" type="curve" smooth="yes"/>
      <point x="499" y="138" type="line" smooth="yes"/>
      <point x="499" y="134"/>
      <point x="496" y="131"/>
      <point x="493" y="131" type="curve" smooth="yes"/>
    </contour>
  </outline>
</glyph>
<glyph name="h" format="1">
  <advance width="668"/>
  <unicode hex="0068"/>
  <outline>
    <contour>
      <point x="185" y="580" type="line"/>
      <point x="185" y="770" type="line"/>
      <point x="54" y="770" type="line"/>
      <point x="54" y="0" type="line"/>
      <point x="185" y="0" type="line"/>
      <point x="185" y="442" type="line" smooth="yes"/>
      <point x="185" y="446"/>
      <point x="188" y="449"/>
      <point x="192" y="449" type="curve" smooth="yes"/>
      <point x="505" y="449" type="line" smooth="yes"/>
      <point x="509" y="449"/>
      <point x="512" y="446"/>
      <point x="512" y="442" type="curve" smooth="yes"/>
      <point x="512" y="0" type="line"/>
      <point x="643" y="0" type="line"/>
      <point x="643" y="442" type="line" smooth="yes"/>
      <point x="643" y="518"/>
      <point x="580" y="580"/>
      <point x="505" y="580" type="curve" smooth="yes"/>
    </contour>
  </outline>
</glyph>
<glyph name="i" format="1">
  <advance width="233"/>
  <unicode hex="0069"/>
  <outline>
    <contour>
      <point x="52" y="0" type="line"/>
      <point x="183" y="0" type="line"/>
      <point x="183" y="580" type="line"/>
      <point x="52" y="580" type="line"/>
    </contour>
    <contour>
      <point x="52" y="770" type="line"/>
      <point x="52" y="638" type="line"/>
      <point x="183" y="638" type="line"/>
      <point x="183" y="770" type="line"/>
    </contour>
  </outline>
</glyph>
<glyph name="j" format="1">
  <advance width="239"/>
  <unicode hex="006A"/>
  <outline>
    <contour>
      <point x="70" y="770" type="line"/>
      <point x="70" y="638" type="line"/>
      <point x="201" y="638" type="line"/>
      <point x="201" y="770" type="line"/>
    </contour>
    <contour>
      <point x="201" y="580" type="line"/>
      <point x="70" y="580" type="line"/>
      <point x="70" y="-81" type="line" smooth="yes"/>
      <point x="70" y="-85"/>
      <point x="67" y="-87"/>
      <point x="63" y="-87" type="curve" smooth="yes"/>
      <point x="-187" y="-87" type="line"/>
      <point x="-187" y="-219" type="line"/>
      <point x="63" y="-219" type="line" smooth="yes"/>
      <point x="139" y="-219"/>
      <point x="201" y="-157"/>
      <point x="201" y="-81" type="curve" smooth="yes"/>
    </contour>
  </outline>
</glyph>
<glyph name="l" format="1">
  <advance width="344"/>
  <unicode hex="006C"/>
  <outline>
    <contour>
      <point x="52" y="770" type="line"/>
      <point x="52" y="138" type="line" smooth="yes"/>
      <point x="52" y="62"/>
      <point x="114" y="0"/>
      <point x="190" y="0" type="curve" smooth="yes"/>
      <point x="307" y="0" type="line"/>
      <point x="307" y="131" type="line"/>
      <point x="190" y="131" type="line" smooth="yes"/>
      <point x="186" y="131"/>
      <point x="184" y="134"/>
      <point x="184" y="138" type="curve" smooth="yes"/>
      <point x="184" y="770" type="line"/>
    </contour>
  </outline>
</glyph>
<glyph name="m" format="1">
  <advance width="978"/>
  <unicode hex="006D"/>
  <outline>
    <contour>
      <point x="54" y="580" type="line"/>
      <point x="54" y="0" type="line"/>
      <point x="185" y="0" type="line"/>
      <point x="185" y="442" type="line" smooth="yes"/>
      <point x="185" y="446"/>
      <point x="188" y="449"/>
      <point x="192" y="449" type="curve" smooth="yes"/>
      <point x="411" y="449" type="line" smooth="yes"/>
      <point x="414" y="449"/>
      <point x="417" y="446"/>
      <point x="417" y="442" type="curve" smooth="yes"/>
      <point x="417" y="0" type="line"/>
      <point x="549" y="0" type="line"/>
      <point x="549" y="442" type="line" smooth="yes"/>
      <point x="549" y="446"/>
      <point x="551" y="449"/>
      <point x="555" y="449" type="curve" smooth="yes"/>
      <point x="773" y="449" type="line" smooth="yes"/>
      <point x="778" y="449"/>
      <point x="781" y="446"/>
      <point x="781" y="442" type="curve" smooth="yes"/>
      <point x="781" y="0" type="line"/>
      <point x="911" y="0" type="line"/>
      <point x="911" y="442" type="line" smooth="yes"/>
      <point x="911" y="518"/>
      <point x="849" y="580"/>
      <point x="773" y="580" type="curve" smooth="yes"/>
    </contour>
  </outline>
</glyph>
<glyph name="n" format="1">
  <advance width="696"/>
  <unicode hex="006E"/>
  <outline>
    <contour>
      <point x="54" y="580" type="line"/>
      <point x="54" y="0" type="line"/>
      <point x="185" y="0" type="line"/>
      <point x="185" y="442" type="line" smooth="yes"/>
      <point x="185" y="446"/>
      <point x="188" y="449"/>
      <point x="192" y="449" type="curve" smooth="yes"/>
      <point x="505" y="449" type="line" smooth="yes"/>
      <point x="509" y="449"/>
      <point x="512" y="446"/>
      <point x="512" y="442" type="curve" smooth="yes"/>
      <point x="512" y="0" type="line"/>
      <point x="643" y="0" type="line"/>
      <point x="643" y="442" type="line" smooth="yes"/>
      <point x="643" y="518"/>
      <point x="581" y="580"/>
      <point x="505" y="580" type="curve" smooth="yes"/>
    </contour>
  </outline>
</glyph>
<glyph name="p" format="1">
  <advance width="664"/>
  <unicode hex="0070"/>
  <outline>
    <contour>
      <point x="54" y="580" type="line"/>
      <point x="54" y="-230" type="line"/>
      <point x="185" y="-230" type="line"/>
      <point x="185" y="0" type="line"/>
      <point x="505" y="0" type="line" smooth="yes"/>
      <point x="581" y="0"/>
      <point x="643" y="62"/>
      <point x="643" y="138" type="curve" smooth="yes"/>
      <point x="643" y="442" type="line" smooth="yes"/>
      <point x="643" y="518"/>
      <point x="581" y="580"/>
      <point x="505" y="580" type="curve" smooth="yes"/>
    </contour>
    <contour>
      <point x="512" y="138" type="line" smooth="yes"/>
      <point x="512" y="134"/>
      <point x="509" y="131"/>
      <point x="505" y="131" type="curve" smooth="yes"/>
      <point x="192" y="131" type="line" smooth="yes"/>
      <point x="188" y="131"/>
      <point x="185" y="134"/>
      <point x="185" y="138" type="curve" smooth="yes"/>
      <point x="185" y="442" type="line" smooth="yes"/>
      <point x="185" y="446"/>
      <point x="188" y="449"/>
      <point x="192" y="449" type="curve" smooth="yes"/>
      <point x="505" y="449" type="line" smooth="yes"/>
      <point x="509" y="449"/>
      <point x="512" y="446"/>
      <point x="512" y="442" type="curve" smooth="yes"/>
    </contour>
  </outline>
</glyph>
<glyph name="q" format="1">
  <advance width="664"/>
  <unicode hex="0071"/>
  <outline>
    <contour>
      <point x="20" y="138" type="line" smooth="yes"/>
      <point x="20" y="62"/>
      <point x="82" y="0"/>
      <point x="158" y="0" type="curve" smooth="yes"/>
      <point x="479" y="0" type="line"/>
      <point x="479" y="-230" type="line"/>
      <point x="610" y="-230" type="line"/>
      <point x="610" y="580" type="line"/>
      <point x="158" y="580" type="line" smooth="yes"/>
      <point x="82" y="580"/>
      <point x="20" y="518"/>
      <point x="20" y="442" type="curve" smooth="yes"/>
    </contour>
    <contour>
      <point x="152" y="442" type="line" smooth="yes"/>
      <point x="152" y="446"/>
      <point x="155" y="449"/>
      <point x="158" y="449" type="curve" smooth="yes"/>
      <point x="472" y="449" type="line" smooth="yes"/>
      <point x="476" y="449"/>
      <point x="479" y="446"/>
      <point x="479" y="442" type="curve" smooth="yes"/>
      <point x="479" y="138" type="line" smooth="yes"/>
      <point x="479" y="134"/>
      <point x="476" y="131"/>
      <point x="472" y="131" type="curve" smooth="yes"/>
      <point x="158" y="131" type="line" smooth="yes"/>
      <point x="155" y="131"/>
      <point x="152" y="134"/>
      <point x="152" y="138" type="curve" smooth="yes"/>
    </contour>
  </outline>
</glyph>
<glyph name="r" format="1">
  <advance width="528"/>
  <unicode hex="0072"/>
  <outline>
    <contour>
      <point x="190" y="580" type="line" smooth="yes"/>
      <point x="114" y="580"/>
      <point x="52" y="518"/>
      <point x="52" y="442" type="curve" smooth="yes"/>
      <point x="52" y="0" type="line"/>
      <point x="183" y="0" type="line"/>
      <point x="183" y="442" type="line" smooth="yes"/>
      <point x="183" y="446"/>
      <point x="186" y="449"/>
      <point x="190" y="449" type="curve" smooth="yes"/>
      <point x="512" y="449" type="line"/>
      <point x="512" y="580" type="line"/>
    </contour>
  </outline>
</glyph>
<glyph name="s" format="1">
  <advance width="686"/>
  <unicode hex="0073"/>
  <outline>
    <contour>
      <point x="637" y="442" type="line" smooth="yes"/>
      <point x="637" y="518"/>
      <point x="576" y="580"/>
      <point x="499" y="580" type="curve" smooth="yes"/>
      <point x="186" y="580" type="line" smooth="yes"/>
      <point x="110" y="580"/>
      <point x="48" y="518"/>
      <point x="48" y="442" type="curve" smooth="yes"/>
      <point x="48" y="362" type="line" smooth="yes"/>
      <point x="48" y="286"/>
      <point x="110" y="224"/>
      <point x="186" y="224" type="curve" smooth="yes"/>
      <point x="499" y="224" type="line" smooth="yes"/>
      <point x="503" y="224"/>
      <point x="506" y="222"/>
      <point x="506" y="218" type="curve" smooth="yes"/>
      <point x="506" y="138" type="line" smooth="yes"/>
      <point x="506" y="134"/>
      <point x="503" y="131"/>
      <point x="499" y="131" type="curve" smooth="yes"/>
      <point x="186" y="131" type="line" smooth="yes"/>
      <point x="182" y="131"/>
      <point x="179" y="134"/>
      <point x="179" y="138" type="curve" smooth="yes"/>
      <point x="179" y="163" type="line"/>
      <point x="48" y="163" type="line"/>
      <point x="48" y="138" type="line" smooth="yes"/>
      <point x="48" y="62"/>
      <point x="110" y="0"/>
      <point x="186" y="0" type="curve" smooth="yes"/>
      <point x="499" y="0" type="line" smooth="yes"/>
      <point x="576" y="0"/>
      <point x="637" y="62"/>
      <point x="637" y="138" type="curve" smooth="yes"/>
      <point x="637" y="218" type="line" smooth="yes"/>
      <point x="637" y="294"/>
      <point x="576" y="356"/>
      <point x="499" y="356" type="curve" smooth="yes"/>
      <point x="186" y="356" type="line" smooth="yes"/>
      <point x="182" y="356"/>
      <point x="179" y="358"/>
      <point x="179" y="362" type="curve" smooth="yes"/>
      <point x="179" y="442" type="line" smooth="yes"/>
      <point x="179" y="446"/>
      <point x="182" y="449"/>
      <point x="186" y="449" type="curve" smooth="yes"/>
      <point x="499" y="449" type="line" smooth="yes"/>
      <point x="503" y="449"/>
      <point x="506" y="446"/>
      <point x="506" y="442" type="curve" smooth="yes"/>
      <point x="506" y="417" type="line"/>
      <point x="637" y="417" type="line"/>
    </contour>
  </outline>
</glyph>
<glyph name="t" format="1">
  <advance width="437"/>
  <unicode hex="0074"/>
  <outline>
    <contour>
      <point x="410" y="449" type="line"/>
      <point x="410" y="580" type="line"/>
      <point x="184" y="580" type="line"/>
      <point x="184" y="770" type="line"/>
      <point x="53" y="770" type="line"/>
      <point x="53" y="138" type="line" smooth="yes"/>
      <point x="53" y="62"/>
      <point x="114" y="0"/>
      <point x="191" y="0" type="curve" smooth="yes"/>
      <point x="410" y="0" type="line"/>
      <point x="410" y="131" type="line"/>
      <point x="191" y="131" type="line" smooth="yes"/>
      <point x="187" y="131"/>
      <point x="184" y="134"/>
      <point x="184" y="138" type="curve" smooth="yes"/>
      <point x="184" y="449" type="line"/>
    </contour>
  </outline>
</glyph>
<glyph name="v" format="1">
  <advance width="790"/>
  <unicode hex="0076"/>
  <outline>
    <contour>
      <point x="629" y="580" type="line"/>
      <point x="400" y="159" type="line"/>
      <point x="172" y="580" type="line"/>
      <point x="21" y="580" type="line"/>
      <point x="340" y="0" type="line"/>
      <point x="460" y="0" type="line"/>
      <point x="780" y="580" type="line"/>
    </contour>
  </outline>
</glyph>
<glyph name="w" format="1">
  <advance width="1056"/>
  <unicode hex="0077"/>
  <outline>
    <contour>
      <point x="888" y="580" type="line"/>
      <point x="846" y="468"/>
      <point x="801" y="349"/>
      <point x="757" y="236" type="curve"/>
      <point x="599" y="580" type="line"/>
      <point x="463" y="580" type="line"/>
      <point x="415" y="468"/>
      <point x="363" y="351"/>
      <point x="314" y="238" type="curve"/>
      <point x="174" y="580" type="line"/>
      <point x="35" y="580" type="line"/>
      <point x="263" y="0" type="line"/>
      <point x="364" y="0" type="line"/>
      <point x="532" y="388" type="line"/>
      <point x="707" y="0" type="line"/>
      <point x="809" y="0" type="line"/>
      <point x="1027" y="580" type="line"/>
    </contour>
  </outline>
</glyph>
<glyph name="x" format="1">
  <advance width="692"/>
  <unicode hex="0078"/>
  <outline>
    <contour>
      <point x="502" y="580" type="line"/>
      <point x="453" y="521"/>
      <point x="396" y="455"/>
      <point x="345" y="396" type="curve"/>
      <point x="189" y="580" type="line"/>
      <point x="46" y="580" type="line"/>
      <point x="46" y="547" type="line"/>
      <point x="260" y="295" type="line"/>
      <point x="46" y="33" type="line"/>
      <point x="46" y="0" type="line"/>
      <point x="189" y="0" type="line"/>
      <point x="345" y="192" type="line"/>
      <point x="502" y="0" type="line"/>
      <point x="645" y="0" type="line"/>
      <point x="645" y="33" type="line"/>
      <point x="575" y="119"/>
      <point x="500" y="208"/>
      <point x="430" y="295" type="curve"/>
      <point x="645" y="547" type="line"/>
      <point x="645" y="580" type="line"/>
    </contour>
  </outline>
</glyph>
<glyph name="y" format="1">
  <advance width="685"/>
  <unicode hex="0079"/>
  <outline>
    <contour>
      <point x="631" y="578" type="line"/>
      <point x="500" y="578" type="line"/>
      <point x="500" y="138" type="line" smooth="yes"/>
      <point x="500" y="134"/>
      <point x="497" y="131"/>
      <point x="494" y="131" type="curve" smooth="yes"/>
      <point x="180" y="131" type="line" smooth="yes"/>
      <point x="176" y="131"/>
      <point x="173" y="134"/>
      <point x="173" y="138" type="curve" smooth="yes"/>
      <point x="173" y="578" type="line"/>
      <point x="42" y="578" type="line"/>
      <point x="42" y="138" type="line" smooth="yes"/>
      <point x="42" y="62"/>
      <point x="104" y="0"/>
      <point x="180" y="0" type="curve" smooth="yes"/>
      <point x="500" y="0" type="line"/>
      <point x="500" y="-92" type="line" smooth="yes"/>
      <point x="500" y="-96"/>
      <point x="497" y="-98"/>
      <point x="494" y="-98" type="curve" smooth="yes"/>
      <point x="139" y="-98" type="line"/>
      <point x="139" y="-230" type="line"/>
      <point x="494" y="-230" type="line" smooth="yes"/>
      <point x="570" y="-230"/>
      <point x="631" y="-168"/>
      <point x="631" y="-92" type="curve" smooth="yes"/>
    </contour>
  </outline>
</glyph>
<glyph name="z" format="1">
  <advance width="698"/>
  <unicode hex="007A"/>
  <outline>
    <contour>
      <point x="54" y="449" type="line"/>
      <point x="450" y="449" type="line"/>
      <point x="54" y="143" type="line"/>
      <point x="54" y="0" type="line"/>
      <point x="643" y="0" type="line"/>
      <point x="643" y="131" type="line"/>
      <point x="247" y="131" type="line"/>
      <point x="643" y="437" type="line"/>
      <point x="643" y="580" type="line"/>
      <point x="54" y="580" type="line"/>
    </contour>
  </outline>
</glyph>
<glyph name="braceleft" format="1">
  <advance width="289"/>
  <unicode hex="007B"/>
  <outline>
    <contour>
      <point x="196" y="318" type="line"/>
      <point x="179" y="332"/>
      <point x="158" y="350"/>
      <point x="139" y="365" type="curve"/>
      <point x="196" y="411" type="line"/>
      <point x="196" y="582" type="line" smooth="yes"/>
      <point x="196" y="586"/>
      <point x="199" y="589"/>
      <point x="203" y="589" type="curve" smooth="yes"/>
      <point x="257" y="589" type="line"/>
      <point x="257" y="720" type="line"/>
      <point x="203" y="720" type="line" smooth="yes"/>
      <point x="126" y="720"/>
      <point x="65" y="658"/>
      <point x="65" y="582" type="curve" smooth="yes"/>
      <point x="65" y="448" type="line"/>
      <point x="23" y="425" type="line"/>
      <point x="23" y="306" type="line"/>
      <point x="33" y="301"/>
      <point x="51" y="288"/>
      <point x="65" y="281" type="curve"/>
      <point x="65" y="138" type="line" smooth="yes"/>
      <point x="65" y="62"/>
      <point x="126" y="0"/>
      <point x="203" y="0" type="curve" smooth="yes"/>
      <point x="257" y="0" type="line"/>
      <point x="257" y="131" type="line"/>
      <point x="203" y="131" type="line" smooth="yes"/>
      <point x="199" y="131"/>
      <point x="196" y="134"/>
      <point x="196" y="138" type="curve" smooth="yes"/>
    </contour>
  </outline>
</glyph>
<glyph name="bar" format="1">
  <advance width="214"/>
  <unicode hex="007C"/>
  <outline>
    <contour>
      <point x="54" y="-104" type="line"/>
      <point x="185" y="-104" type="line"/>
      <point x="185" y="816" type="line"/>
      <point x="54" y="816" type="line"/>
    </contour>
  </outline>
</glyph>
<glyph name="braceright" format="1">
  <advance width="289"/>
  <unicode hex="007D"/>
  <outline>
    <contour>
      <point x="112" y="138" type="line" smooth="yes"/>
      <point x="112" y="134"/>
      <point x="109" y="131"/>
      <point x="105" y="131" type="curve" smooth="yes"/>
      <point x="51" y="131" type="line"/>
      <point x="51" y="0" type="line"/>
      <point x="105" y="0" type="line" smooth="yes"/>
      <point x="181" y="0"/>
      <point x="243" y="62"/>
      <point x="243" y="138" type="curve" smooth="yes"/>
      <point x="243" y="281" type="line"/>
      <point x="285" y="306" type="line"/>
      <point x="285" y="424" type="line"/>
      <point x="273" y="431"/>
      <point x="257" y="445"/>
      <point x="243" y="453" type="curve"/>
      <point x="243" y="582" type="line" smooth="yes"/>
      <point x="243" y="658"/>
      <point x="181" y="720"/>
      <point x="105" y="720" type="curve" smooth="yes"/>
      <point x="51" y="720" type="line"/>
      <point x="51" y="589" type="line"/>
      <point x="105" y="589" type="line" smooth="yes"/>
      <point x="109" y="589"/>
      <point x="112" y="586"/>
      <point x="112" y="582" type="curve" smooth="yes"/>
      <point x="112" y="411" type="line"/>
      <point x="169" y="365" type="line"/>
      <point x="112" y="318" type="line"/>
    </contour>
  </outline>
</glyph>
<glyph name="asciitilde" format="1">
  <advance width="404"/>
  <unicode hex="007E"/>
  <outline>
    <contour>
      <point x="230" y="322"/>
      <point x="180" y="377"/>
      <point x="109" y="377" type="curve" smooth="yes"/>
      <point x="79" y="377"/>
      <point x="49" y="369"/>
      <point x="24" y="358" type="curve"/>
      <point x="24" y="254" type="line"/>
      <point x="54" y="283"/>
      <point x="84" y="285"/>
      <point x="103" y="285" type="curve" smooth="yes"/>
      <point x="176" y="285"/>
      <point x="227" y="221"/>
      <point x="299" y="221" type="curve" smooth="yes"/>
      <point x="332" y="221"/>
      <point x="362" y="231"/>
      <point x="388" y="242" type="curve"/>
      <point x="388" y="338" type="line"/>
      <point x="355" y="316"/>
      <point x="326" y="312"/>
      <point x="301" y="312" type="curve"/>
    </contour>
  </outline>
</glyph>
<glyph name="cent" format="1">
  <advance width="636"/>
  <unicode hex="00A2"/>
  <outline>
    <contour>
      <point x="621" y="458" type="line"/>
      <point x="621" y="590" type="line"/>
      <point x="424" y="590" type="line"/>
      <point x="424" y="711" type="line"/>
      <point x="292" y="711" type="line"/>
      <point x="292" y="590" type="line"/>
      <point x="171" y="590" type="line" smooth="yes"/>
      <point x="95" y="590"/>
      <point x="33" y="528"/>
      <point x="33" y="452" type="curve" smooth="yes"/>
      <point x="33" y="138" type="line" smooth="yes"/>
      <point x="33" y="62"/>
      <point x="95" y="0"/>
      <point x="171" y="0" type="curve" smooth="yes"/>
      <point x="292" y="0" type="line"/>
      <point x="292" y="-104" type="line"/>
      <point x="424" y="-104" type="line"/>
      <point x="424" y="0" type="line"/>
      <point x="621" y="0" type="line"/>
      <point x="621" y="131" type="line"/>
      <point x="424" y="131" type="line"/>
      <point x="424" y="458" type="line"/>
    </contour>
    <contour>
      <point x="292" y="131" type="line"/>
      <point x="171" y="131" type="line" smooth="yes"/>
      <point x="167" y="131"/>
      <point x="164" y="134"/>
      <point x="164" y="138" type="curve" smooth="yes"/>
      <point x="164" y="452" type="line" smooth="yes"/>
      <point x="164" y="455"/>
      <point x="167" y="458"/>
      <point x="171" y="458" type="curve" smooth="yes"/>
      <point x="292" y="458" type="line"/>
    </contour>
  </outline>
</glyph>
<glyph name="sterling" format="1">
  <advance width="734"/>
  <unicode hex="00A3"/>
  <outline>
    <contour>
      <point x="683" y="539" type="line"/>
      <point x="683" y="582" type="line" smooth="yes"/>
      <point x="683" y="658"/>
      <point x="622" y="720"/>
      <point x="546" y="720" type="curve" smooth="yes"/>
      <point x="272" y="720" type="line" smooth="yes"/>
      <point x="196" y="720"/>
      <point x="134" y="658"/>
      <point x="134" y="582" type="curve" smooth="yes"/>
      <point x="134" y="422" type="line"/>
      <point x="39" y="422" type="line"/>
      <point x="39" y="291" type="line"/>
      <point x="134" y="291" type="line"/>
      <point x="134" y="131" type="line"/>
      <point x="39" y="131" type="line"/>
      <point x="39" y="0" type="line"/>
      <point x="683" y="0" type="line"/>
      <point x="683" y="131" type="line"/>
      <point x="265" y="131" type="line"/>
      <point x="265" y="291" type="line"/>
      <point x="583" y="291" type="line"/>
      <point x="583" y="422" type="line"/>
      <point x="265" y="422" type="line"/>
      <point x="265" y="582" type="line" smooth="yes"/>
      <point x="265" y="586"/>
      <point x="268" y="589"/>
      <point x="272" y="589" type="curve" smooth="yes"/>
      <point x="546" y="589" type="line" smooth="yes"/>
      <point x="549" y="589"/>
      <point x="552" y="586"/>
      <point x="552" y="582" type="curve" smooth="yes"/>
      <point x="552" y="539" type="line"/>
    </contour>
  </outline>
</glyph>
<glyph name="dieresis" format="1">
  <advance width="385"/>
  <unicode hex="00A8"/>
  <outline>
    <contour>
      <point x="357" y="918" type="line"/>
      <point x="225" y="918" type="line"/>
      <point x="225" y="786" type="line"/>
      <point x="357" y="786" type="line"/>
    </contour>
    <contour>
      <point x="185" y="918" type="line"/>
      <point x="54" y="918" type="line"/>
      <point x="54" y="786" type="line"/>
      <point x="185" y="786" type="line"/>
    </contour>
  </outline>
</glyph>
<glyph name="degree" format="1">
  <advance width="439"/>
  <unicode hex="00B0"/>
  <outline>
    <contour>
      <point x="183" y="713" type="line" smooth="yes"/>
      <point x="107" y="713"/>
      <point x="45" y="651"/>
      <point x="45" y="575" type="curve" smooth="yes"/>
      <point x="45" y="499" type="line" smooth="yes"/>
      <point x="45" y="423"/>
      <point x="107" y="361"/>
      <point x="183" y="361" type="curve" smooth="yes"/>
      <point x="268" y="361" type="line" smooth="yes"/>
      <point x="344" y="361"/>
      <point x="406" y="423"/>
      <point x="406" y="499" type="curve" smooth="yes"/>
      <point x="406" y="575" type="line" smooth="yes"/>
      <point x="406" y="651"/>
      <point x="344" y="713"/>
      <point x="268" y="713" type="curve" smooth="yes"/>
    </contour>
    <contour>
      <point x="164" y="474" type="line" smooth="yes"/>
      <point x="160" y="474"/>
      <point x="157" y="476"/>
      <point x="157" y="480" type="curve" smooth="yes"/>
      <point x="157" y="594" type="line" smooth="yes"/>
      <point x="157" y="598"/>
      <point x="160" y="601"/>
      <point x="164" y="601" type="curve" smooth="yes"/>
      <point x="287" y="601" type="line" smooth="yes"/>
      <point x="291" y="601"/>
      <point x="294" y="598"/>
      <point x="294" y="594" type="curve" smooth="yes"/>
      <point x="294" y="480" type="line" smooth="yes"/>
      <point x="294" y="476"/>
      <point x="291" y="474"/>
      <point x="287" y="474" type="curve" smooth="yes"/>
    </contour>
  </outline>
</glyph>
<glyph name="acute" format="1">
  <advance width="213"/>
  <unicode hex="00B4"/>
  <outline>
    <contour>
      <point x="33" y="786" type="line"/>
      <point x="166" y="786" type="line"/>
      <point x="212" y="969" type="line"/>
      <point x="79" y="969" type="line"/>
    </contour>
  </outline>
</glyph>
<glyph name="paragraph" format="1">
  <advance width="833"/>
  <unicode hex="00B6"/>
  <outline>
    <contour>
      <point x="56" y="382" type="line" smooth="yes"/>
      <point x="56" y="307"/>
      <point x="118" y="244"/>
      <point x="194" y="244" type="curve" smooth="yes"/>
      <point x="429" y="244" type="line"/>
      <point x="429" y="0" type="line"/>
      <point x="561" y="0" type="line"/>
      <point x="561" y="244" type="line"/>
      <point x="638" y="244" type="line"/>
      <point x="638" y="0" type="line"/>
      <point x="769" y="0" type="line"/>
      <point x="769" y="712" type="line"/>
      <point x="194" y="712" type="line" smooth="yes"/>
      <point x="118" y="712"/>
      <point x="56" y="649"/>
      <point x="56" y="574" type="curve" smooth="yes"/>
    </contour>
    <contour>
      <point x="561" y="581" type="line"/>
      <point x="638" y="581" type="line"/>
      <point x="638" y="376" type="line"/>
      <point x="561" y="376" type="line"/>
    </contour>
    <contour>
      <point x="187" y="574" type="line" smooth="yes"/>
      <point x="187" y="578"/>
      <point x="190" y="581"/>
      <point x="194" y="581" type="curve" smooth="yes"/>
      <point x="429" y="581" type="line"/>
      <point x="429" y="376" type="line"/>
      <point x="194" y="376" type="line" smooth="yes"/>
      <point x="190" y="376"/>
      <point x="187" y="378"/>
      <point x="187" y="382" type="curve" smooth="yes"/>
    </contour>
  </outline>
</glyph>
<glyph name="cedilla" format="1">
  <advance width="213"/>
  <unicode hex="00B8"/>
  <outline>
    <contour>
      <point x="33" y="-154" type="line"/>
      <point x="166" y="-154" type="line"/>
      <point x="212" y="29" type="line"/>
      <point x="79" y="29" type="line"/>
    </contour>
  </outline>
</glyph>
<glyph name="questiondown" format="1">
  <advance width="675"/>
  <unicode hex="00BF"/>
  <outline>
    <contour>
      <point x="644" y="0" type="line"/>
      <point x="644" y="131" type="line"/>
      <point x="157" y="131" type="line" smooth="yes"/>
      <point x="153" y="131"/>
      <point x="150" y="134"/>
      <point x="150" y="138" type="curve" smooth="yes"/>
      <point x="150" y="313" type="line" smooth="yes"/>
      <point x="150" y="317"/>
      <point x="153" y="319"/>
      <point x="157" y="319" type="curve" smooth="yes"/>
      <point x="403" y="319" type="line" smooth="yes"/>
      <point x="479" y="319"/>
      <point x="541" y="381"/>
      <point x="541" y="457" type="curve" smooth="yes"/>
      <point x="541" y="530" type="line"/>
      <point x="410" y="530" type="line"/>
      <point x="410" y="457" type="line" smooth="yes"/>
      <point x="410" y="454"/>
      <point x="407" y="451"/>
      <point x="403" y="451" type="curve" smooth="yes"/>
      <point x="157" y="451" type="line" smooth="yes"/>
      <point x="81" y="451"/>
      <point x="19" y="389"/>
      <point x="19" y="313" type="curve" smooth="yes"/>
      <point x="19" y="138" type="line" smooth="yes"/>
      <point x="19" y="62"/>
      <point x="81" y="0"/>
      <point x="157" y="0" type="curve" smooth="yes"/>
    </contour>
    <contour>
      <point x="541" y="720" type="line"/>
      <point x="410" y="720" type="line"/>
      <point x="410" y="589" type="line"/>
      <point x="541" y="589" type="line"/>
    </contour>
  </outline>
</glyph>
<glyph name="Agrave" format="1">
  <advance width="836"/>
  <unicode hex="00C0"/>
  <outline>
    <contour>
      <point x="197" y="720" type="line" smooth="yes"/>
      <point x="120" y="720"/>
      <point x="58" y="658"/>
      <point x="58" y="581" type="curve" smooth="yes"/>
      <point x="58" y="0" type="line"/>
      <point x="190" y="0" type="line"/>
      <point x="190" y="242" type="line"/>
      <point x="645" y="242" type="line"/>
      <point x="645" y="0" type="line"/>
      <point x="778" y="0" type="line"/>
      <point x="778" y="581" type="line" smooth="yes"/>
      <point x="778" y="658"/>
      <point x="715" y="720"/>
      <point x="638" y="720" type="curve" smooth="yes"/>
    </contour>
    <contour>
      <point x="190" y="374" type="line"/>
      <point x="190" y="581" type="line" smooth="yes"/>
      <point x="190" y="585"/>
      <point x="193" y="588"/>
      <point x="197" y="588" type="curve" smooth="yes"/>
      <point x="638" y="588" type="line" smooth="yes"/>
      <point x="642" y="588"/>
      <point x="645" y="585"/>
      <point x="645" y="581" type="curve" smooth="yes"/>
      <point x="645" y="374" type="line"/>
    </contour>
    <contour>
      <point x="477" y="962" type="line"/>
      <point x="344" y="962" type="line"/>
      <point x="390" y="779" type="line"/>
      <point x="523" y="779" type="line"/>
    </contour>
  </outline>
</glyph>
<glyph name="Acircumflex" format="1">
  <advance width="836"/>
  <unicode hex="00C2"/>
  <outline>
    <contour>
      <point x="197" y="720" type="line" smooth="yes"/>
      <point x="120" y="720"/>
      <point x="58" y="658"/>
      <point x="58" y="581" type="curve" smooth="yes"/>
      <point x="58" y="0" type="line"/>
      <point x="190" y="0" type="line"/>
      <point x="190" y="242" type="line"/>
      <point x="645" y="242" type="line"/>
      <point x="645" y="0" type="line"/>
      <point x="778" y="0" type="line"/>
      <point x="778" y="581" type="line" smooth="yes"/>
      <point x="778" y="658"/>
      <point x="715" y="720"/>
      <point x="638" y="720" type="curve" smooth="yes"/>
    </contour>
    <contour>
      <point x="190" y="374" type="line"/>
      <point x="190" y="581" type="line" smooth="yes"/>
      <point x="190" y="585"/>
      <point x="193" y="588"/>
      <point x="197" y="588" type="curve" smooth="yes"/>
      <point x="638" y="588" type="line" smooth="yes"/>
      <point x="642" y="588"/>
      <point x="645" y="585"/>
      <point x="645" y="581" type="curve" smooth="yes"/>
      <point x="645" y="374" type="line"/>
    </contour>
    <contour>
      <point x="400" y="778" type="line"/>
      <point x="411" y="795"/>
      <point x="424" y="818"/>
      <point x="436" y="837" type="curve"/>
      <point x="473" y="778" type="line"/>
      <point x="579" y="778" type="line"/>
      <point x="481" y="941" type="line"/>
      <point x="394" y="941" type="line"/>
      <point x="296" y="778" type="line"/>
    </contour>
  </outline>
</glyph>
<glyph name="Atilde" format="1">
  <advance width="836"/>
  <unicode hex="00C3"/>
  <outline>
    <contour>
      <point x="197" y="720" type="line" smooth="yes"/>
      <point x="120" y="720"/>
      <point x="58" y="658"/>
      <point x="58" y="581" type="curve" smooth="yes"/>
      <point x="58" y="0" type="line"/>
      <point x="190" y="0" type="line"/>
      <point x="190" y="242" type="line"/>
      <point x="645" y="242" type="line"/>
      <point x="645" y="0" type="line"/>
      <point x="778" y="0" type="line"/>
      <point x="778" y="581" type="line" smooth="yes"/>
      <point x="778" y="658"/>
      <point x="715" y="720"/>
      <point x="638" y="720" type="curve" smooth="yes"/>
    </contour>
    <contour>
      <point x="190" y="374" type="line"/>
      <point x="190" y="581" type="line" smooth="yes"/>
      <point x="190" y="585"/>
      <point x="193" y="588"/>
      <point x="197" y="588" type="curve" smooth="yes"/>
      <point x="638" y="588" type="line" smooth="yes"/>
      <point x="642" y="588"/>
      <point x="645" y="585"/>
      <point x="645" y="581" type="curve" smooth="yes"/>
      <point x="645" y="374" type="line"/>
    </contour>
    <contour>
      <point x="449" y="883"/>
      <point x="399" y="939"/>
      <point x="327" y="939" type="curve" smooth="yes"/>
      <point x="297" y="939"/>
      <point x="267" y="931"/>
      <point x="242" y="921" type="curve"/>
      <point x="242" y="810" type="line"/>
      <point x="269" y="845"/>
      <point x="296" y="848"/>
      <point x="315" y="848" type="curve" smooth="yes"/>
      <point x="327" y="848" type="line" smooth="yes"/>
      <point x="396" y="848"/>
      <point x="446" y="783"/>
      <point x="517" y="783" type="curve" smooth="yes"/>
      <point x="550" y="783"/>
      <point x="580" y="794"/>
      <point x="606" y="805" type="curve"/>
      <point x="606" y="901" type="line"/>
      <point x="573" y="879"/>
      <point x="544" y="874"/>
      <point x="519" y="874" type="curve"/>
    </contour>
  </outline>
</glyph>
<glyph name="Adieresis" format="1">
  <advance width="836"/>
  <unicode hex="00C4"/>
  <outline>
    <contour>
      <point x="197" y="720" type="line" smooth="yes"/>
      <point x="120" y="720"/>
      <point x="58" y="658"/>
      <point x="58" y="581" type="curve" smooth="yes"/>
      <point x="58" y="0" type="line"/>
      <point x="190" y="0" type="line"/>
      <point x="190" y="242" type="line"/>
      <point x="645" y="242" type="line"/>
      <point x="645" y="0" type="line"/>
      <point x="778" y="0" type="line"/>
      <point x="778" y="581" type="line" smooth="yes"/>
      <point x="778" y="658"/>
      <point x="715" y="720"/>
      <point x="638" y="720" type="curve" smooth="yes"/>
    </contour>
    <contour>
      <point x="190" y="374" type="line"/>
      <point x="190" y="581" type="line" smooth="yes"/>
      <point x="190" y="585"/>
      <point x="193" y="588"/>
      <point x="197" y="588" type="curve" smooth="yes"/>
      <point x="638" y="588" type="line" smooth="yes"/>
      <point x="642" y="588"/>
      <point x="645" y="585"/>
      <point x="645" y="581" type="curve" smooth="yes"/>
      <point x="645" y="374" type="line"/>
    </contour>
    <contour>
      <point x="582" y="901" type="line"/>
      <point x="450" y="901" type="line"/>
      <point x="450" y="769" type="line"/>
      <point x="582" y="769" type="line"/>
    </contour>
    <contour>
      <point x="410" y="901" type="line"/>
      <point x="279" y="901" type="line"/>
      <point x="279" y="769" type="line"/>
      <point x="410" y="769" type="line"/>
    </contour>
  </outline>
</glyph>
<glyph name="Aring" format="1">
  <advance width="836"/>
  <unicode hex="00C5"/>
  <outline>
    <contour>
      <point x="197" y="720" type="line" smooth="yes"/>
      <point x="120" y="720"/>
      <point x="58" y="658"/>
      <point x="58" y="581" type="curve" smooth="yes"/>
      <point x="58" y="0" type="line"/>
      <point x="190" y="0" type="line"/>
      <point x="190" y="242" type="line"/>
      <point x="645" y="242" type="line"/>
      <point x="645" y="0" type="line"/>
      <point x="778" y="0" type="line"/>
      <point x="778" y="581" type="line" smooth="yes"/>
      <point x="778" y="658"/>
      <point x="715" y="720"/>
      <point x="638" y="720" type="curve" smooth="yes"/>
    </contour>
    <contour>
      <point x="190" y="374" type="line"/>
      <point x="190" y="581" type="line" smooth="yes"/>
      <point x="190" y="585"/>
      <point x="193" y="588"/>
      <point x="197" y="588" type="curve" smooth="yes"/>
      <point x="638" y="588" type="line" smooth="yes"/>
      <point x="642" y="588"/>
      <point x="645" y="585"/>
      <point x="645" y="581" type="curve" smooth="yes"/>
      <point x="645" y="374" type="line"/>
    </contour>
    <contour>
      <point x="388" y="961" type="line" smooth="yes"/>
      <point x="352" y="961"/>
      <point x="323" y="931"/>
      <point x="323" y="896" type="curve" smooth="yes"/>
      <point x="323" y="845" type="line" smooth="yes"/>
      <point x="323" y="810"/>
      <point x="352" y="780"/>
      <point x="388" y="780" type="curve" smooth="yes"/>
      <point x="442" y="780" type="line" smooth="yes"/>
      <point x="478" y="780"/>
      <point x="507" y="810"/>
      <point x="507" y="845" type="curve" smooth="yes"/>
      <point x="507" y="896" type="line" smooth="yes"/>
      <point x="507" y="931"/>
      <point x="478" y="961"/>
      <point x="442" y="961" type="curve" smooth="yes"/>
    </contour>
    <contour>
      <point x="389" y="894" type="line"/>
      <point x="441" y="894" type="line"/>
      <point x="441" y="847" type="line"/>
      <point x="389" y="847" type="line"/>
    </contour>
  </outline>
</glyph>
<glyph name="AE" format="1">
  <advance width="1375"/>
  <unicode hex="00C6"/>
  <outline>
    <contour>
      <point x="774" y="588" type="line"/>
      <point x="1304" y="588" type="line"/>
      <point x="1304" y="720" type="line"/>
      <point x="193" y="720" type="line" smooth="yes"/>
      <point x="117" y="720"/>
      <point x="54" y="658"/>
      <point x="54" y="581" type="curve" smooth="yes"/>
      <point x="54" y="0" type="line"/>
      <point x="187" y="0" type="line"/>
      <point x="187" y="242" type="line"/>
      <point x="642" y="242" type="line"/>
      <point x="642" y="0" type="line"/>
      <point x="1304" y="0" type="line"/>
      <point x="1304" y="132" type="line"/>
      <point x="774" y="132" type="line"/>
      <point x="774" y="294" type="line"/>
      <point x="1200" y="294" type="line"/>
      <point x="1200" y="426" type="line"/>
      <point x="774" y="426" type="line"/>
    </contour>
    <contour>
      <point x="642" y="374" type="line"/>
      <point x="187" y="374" type="line"/>
      <point x="187" y="581" type="line" smooth="yes"/>
      <point x="187" y="585"/>
      <point x="190" y="588"/>
      <point x="193" y="588" type="curve" smooth="yes"/>
      <point x="635" y="588" type="line" smooth="yes"/>
      <point x="639" y="588"/>
      <point x="642" y="585"/>
      <point x="642" y="581" type="curve" smooth="yes"/>
    </contour>
  </outline>
</glyph>
<glyph name="Ccedilla" format="1">
  <advance width="822"/>
  <unicode hex="00C7"/>
  <outline>
    <contour>
      <point x="774" y="588" type="line"/>
      <point x="774" y="720" type="line"/>
      <point x="195" y="720" type="line" smooth="yes"/>
      <point x="118" y="720"/>
      <point x="56" y="658"/>
      <point x="56" y="581" type="curve" smooth="yes"/>
      <point x="56" y="139" type="line" smooth="yes"/>
      <point x="56" y="62"/>
      <point x="118" y="0"/>
      <point x="195" y="0" type="curve" smooth="yes"/>
      <point x="375" y="0" type="line"/>
      <point x="337" y="-154" type="line"/>
      <point x="470" y="-154" type="line"/>
      <point x="508" y="0" type="line"/>
      <point x="774" y="0" type="line"/>
      <point x="774" y="132" type="line"/>
      <point x="195" y="132" type="line" smooth="yes"/>
      <point x="191" y="132"/>
      <point x="188" y="135"/>
      <point x="188" y="139" type="curve" smooth="yes"/>
      <point x="188" y="581" type="line" smooth="yes"/>
      <point x="188" y="585"/>
      <point x="191" y="588"/>
      <point x="195" y="588" type="curve" smooth="yes"/>
    </contour>
  </outline>
</glyph>
<glyph name="Egrave" format="1">
  <advance width="766"/>
  <unicode hex="00C8"/>
  <outline>
    <contour>
      <point x="720" y="720" type="line"/>
      <point x="58" y="720" type="line"/>
      <point x="58" y="0" type="line"/>
      <point x="720" y="0" type="line"/>
      <point x="720" y="132" type="line"/>
      <point x="191" y="132" type="line"/>
      <point x="191" y="294" type="line"/>
      <point x="617" y="294" type="line"/>
      <point x="617" y="426" type="line"/>
      <point x="191" y="426" type="line"/>
      <point x="191" y="588" type="line"/>
      <point x="720" y="588" type="line"/>
    </contour>
    <contour>
      <point x="442" y="962" type="line"/>
      <point x="309" y="962" type="line"/>
      <point x="355" y="779" type="line"/>
      <point x="488" y="779" type="line"/>
    </contour>
  </outline>
</glyph>
<glyph name="Ecircumflex" format="1">
  <advance width="766"/>
  <unicode hex="00CA"/>
  <outline>
    <contour>
      <point x="720" y="720" type="line"/>
      <point x="58" y="720" type="line"/>
      <point x="58" y="0" type="line"/>
      <point x="720" y="0" type="line"/>
      <point x="720" y="132" type="line"/>
      <point x="191" y="132" type="line"/>
      <point x="191" y="294" type="line"/>
      <point x="617" y="294" type="line"/>
      <point x="617" y="426" type="line"/>
      <point x="191" y="426" type="line"/>
      <point x="191" y="588" type="line"/>
      <point x="720" y="588" type="line"/>
    </contour>
    <contour>
      <point x="365" y="778" type="line"/>
      <point x="376" y="795"/>
      <point x="389" y="818"/>
      <point x="401" y="837" type="curve"/>
      <point x="438" y="778" type="line"/>
      <point x="544" y="778" type="line"/>
      <point x="446" y="941" type="line"/>
      <point x="359" y="941" type="line"/>
      <point x="261" y="778" type="line"/>
    </contour>
  </outline>
</glyph>
<glyph name="Edieresis" format="1">
  <advance width="766"/>
  <unicode hex="00CB"/>
  <outline>
    <contour>
      <point x="720" y="720" type="line"/>
      <point x="58" y="720" type="line"/>
      <point x="58" y="0" type="line"/>
      <point x="720" y="0" type="line"/>
      <point x="720" y="132" type="line"/>
      <point x="191" y="132" type="line"/>
      <point x="191" y="294" type="line"/>
      <point x="617" y="294" type="line"/>
      <point x="617" y="426" type="line"/>
      <point x="191" y="426" type="line"/>
      <point x="191" y="588" type="line"/>
      <point x="720" y="588" type="line"/>
    </contour>
    <contour>
      <point x="547" y="911" type="line"/>
      <point x="415" y="911" type="line"/>
      <point x="415" y="779" type="line"/>
      <point x="547" y="779" type="line"/>
    </contour>
    <contour>
      <point x="375" y="911" type="line"/>
      <point x="244" y="911" type="line"/>
      <point x="244" y="779" type="line"/>
      <point x="375" y="779" type="line"/>
    </contour>
  </outline>
</glyph>
<glyph name="Iacute" format="1">
  <advance width="220"/>
  <unicode hex="00CD"/>
  <outline>
    <contour>
      <point x="57" y="0" type="line"/>
      <point x="189" y="0" type="line"/>
      <point x="189" y="720" type="line"/>
      <point x="57" y="720" type="line"/>
    </contour>
    <contour>
      <point x="36" y="779" type="line"/>
      <point x="169" y="779" type="line"/>
      <point x="215" y="962" type="line"/>
      <point x="82" y="962" type="line"/>
    </contour>
  </outline>
</glyph>
<glyph name="Icircumflex" format="1">
  <advance width="220"/>
  <unicode hex="00CE"/>
  <outline>
    <contour>
      <point x="57" y="0" type="line"/>
      <point x="189" y="0" type="line"/>
      <point x="189" y="720" type="line"/>
      <point x="57" y="720" type="line"/>
    </contour>
    <contour>
      <point x="92" y="778" type="line"/>
      <point x="103" y="795"/>
      <point x="116" y="818"/>
      <point x="128" y="837" type="curve"/>
      <point x="165" y="778" type="line"/>
      <point x="271" y="778" type="line"/>
      <point x="173" y="941" type="line"/>
      <point x="86" y="941" type="line"/>
      <point x="-12" y="778" type="line"/>
    </contour>
  </outline>
</glyph>
<glyph name="Idieresis" format="1">
  <advance width="220"/>
  <unicode hex="00CF"/>
  <outline>
    <contour>
      <point x="57" y="0" type="line"/>
      <point x="189" y="0" type="line"/>
      <point x="189" y="720" type="line"/>
      <point x="57" y="720" type="line"/>
    </contour>
    <contour>
      <point x="274" y="911" type="line"/>
      <point x="142" y="911" type="line"/>
      <point x="142" y="779" type="line"/>
      <point x="274" y="779" type="line"/>
    </contour>
    <contour>
      <point x="102" y="911" type="line"/>
      <point x="-29" y="911" type="line"/>
      <point x="-29" y="779" type="line"/>
      <point x="102" y="779" type="line"/>
    </contour>
  </outline>
</glyph>
<glyph name="Ntilde" format="1">
  <advance width="832"/>
  <unicode hex="00D1"/>
  <outline>
    <contour>
      <point x="643" y="192" type="line"/>
      <point x="200" y="720" type="line"/>
      <point x="56" y="720" type="line"/>
      <point x="56" y="0" type="line"/>
      <point x="188" y="0" type="line"/>
      <point x="188" y="528" type="line"/>
      <point x="632" y="0" type="line"/>
      <point x="776" y="0" type="line"/>
      <point x="776" y="720" type="line"/>
      <point x="643" y="720" type="line"/>
    </contour>
    <contour>
      <point x="447" y="883"/>
      <point x="397" y="939"/>
      <point x="325" y="939" type="curve" smooth="yes"/>
      <point x="295" y="939"/>
      <point x="265" y="931"/>
      <point x="240" y="921" type="curve"/>
      <point x="240" y="810" type="line"/>
      <point x="267" y="845"/>
      <point x="294" y="848"/>
      <point x="313" y="848" type="curve" smooth="yes"/>
      <point x="325" y="848" type="line" smooth="yes"/>
      <point x="394" y="848"/>
      <point x="444" y="783"/>
      <point x="515" y="783" type="curve" smooth="yes"/>
      <point x="548" y="783"/>
      <point x="578" y="794"/>
      <point x="604" y="805" type="curve"/>
      <point x="604" y="901" type="line"/>
      <point x="571" y="879"/>
      <point x="542" y="874"/>
      <point x="517" y="874" type="curve"/>
    </contour>
  </outline>
</glyph>
<glyph name="Oacute" format="1">
  <advance width="828"/>
  <unicode hex="00D3"/>
  <outline>
    <contour>
      <point x="193" y="720" type="line" smooth="yes"/>
      <point x="116" y="720"/>
      <point x="54" y="658"/>
      <point x="54" y="581" type="curve" smooth="yes"/>
      <point x="54" y="139" type="line" smooth="yes"/>
      <point x="54" y="62"/>
      <point x="116" y="0"/>
      <point x="193" y="0" type="curve" smooth="yes"/>
      <point x="635" y="0" type="line" smooth="yes"/>
      <point x="711" y="0"/>
      <point x="774" y="62"/>
      <point x="774" y="139" type="curve" smooth="yes"/>
      <point x="774" y="581" type="line" smooth="yes"/>
      <point x="774" y="658"/>
      <point x="711" y="720"/>
      <point x="635" y="720" type="curve" smooth="yes"/>
    </contour>
    <contour>
      <point x="193" y="132" type="line" smooth="yes"/>
      <point x="189" y="132"/>
      <point x="186" y="135"/>
      <point x="186" y="139" type="curve" smooth="yes"/>
      <point x="186" y="581" type="line" smooth="yes"/>
      <point x="186" y="585"/>
      <point x="189" y="588"/>
      <point x="193" y="588" type="curve" smooth="yes"/>
      <point x="635" y="588" type="line" smooth="yes"/>
      <point x="638" y="588"/>
      <point x="641" y="585"/>
      <point x="641" y="581" type="curve" smooth="yes"/>
      <point x="641" y="139" type="line" smooth="yes"/>
      <point x="641" y="135"/>
      <point x="638" y="132"/>
      <point x="635" y="132" type="curve" smooth="yes"/>
    </contour>
    <contour>
      <point x="340" y="779" type="line"/>
      <point x="473" y="779" type="line"/>
      <point x="519" y="962" type="line"/>
      <point x="386" y="962" type="line"/>
    </contour>
  </outline>
</glyph>
<glyph name="Otilde" format="1">
  <advance width="828"/>
  <unicode hex="00D5"/>
  <outline>
    <contour>
      <point x="193" y="720" type="line" smooth="yes"/>
      <point x="116" y="720"/>
      <point x="54" y="658"/>
      <point x="54" y="581" type="curve" smooth="yes"/>
      <point x="54" y="139" type="line" smooth="yes"/>
      <point x="54" y="62"/>
      <point x="116" y="0"/>
      <point x="193" y="0" type="curve" smooth="yes"/>
      <point x="635" y="0" type="line" smooth="yes"/>
      <point x="711" y="0"/>
      <point x="774" y="62"/>
      <point x="774" y="139" type="curve" smooth="yes"/>
      <point x="774" y="581" type="line" smooth="yes"/>
      <point x="774" y="658"/>
      <point x="711" y="720"/>
      <point x="635" y="720" type="curve" smooth="yes"/>
    </contour>
    <contour>
      <point x="193" y="132" type="line" smooth="yes"/>
      <point x="189" y="132"/>
      <point x="186" y="135"/>
      <point x="186" y="139" type="curve" smooth="yes"/>
      <point x="186" y="581" type="line" smooth="yes"/>
      <point x="186" y="585"/>
      <point x="189" y="588"/>
      <point x="193" y="588" type="curve" smooth="yes"/>
      <point x="635" y="588" type="line" smooth="yes"/>
      <point x="638" y="588"/>
      <point x="641" y="585"/>
      <point x="641" y="581" type="curve" smooth="yes"/>
      <point x="641" y="139" type="line" smooth="yes"/>
      <point x="641" y="135"/>
      <point x="638" y="132"/>
      <point x="635" y="132" type="curve" smooth="yes"/>
    </contour>
    <contour>
      <point x="445" y="883"/>
      <point x="395" y="939"/>
      <point x="323" y="939" type="curve" smooth="yes"/>
      <point x="293" y="939"/>
      <point x="263" y="931"/>
      <point x="238" y="921" type="curve"/>
      <point x="238" y="810" type="line"/>
      <point x="265" y="845"/>
      <point x="292" y="848"/>
      <point x="311" y="848" type="curve" smooth="yes"/>
      <point x="323" y="848" type="line" smooth="yes"/>
      <point x="392" y="848"/>
      <point x="442" y="783"/>
      <point x="513" y="783" type="curve" smooth="yes"/>
      <point x="546" y="783"/>
      <point x="576" y="794"/>
      <point x="602" y="805" type="curve"/>
      <point x="602" y="901" type="line"/>
      <point x="569" y="879"/>
      <point x="540" y="874"/>
      <point x="515" y="874" type="curve"/>
    </contour>
  </outline>
</glyph>
<glyph name="multiply" format="1">
  <advance width="546"/>
  <unicode hex="00D7"/>
  <outline>
    <contour>
      <point x="500" y="513" type="line"/>
      <point x="356" y="513" type="line"/>
      <point x="331" y="478"/>
      <point x="303" y="440"/>
      <point x="276" y="404" type="curve"/>
      <point x="196" y="513" type="line"/>
      <point x="53" y="513" type="line"/>
      <point x="53" y="480" type="line"/>
      <point x="98" y="420"/>
      <point x="146" y="360"/>
      <point x="192" y="300" type="curve"/>
      <point x="53" y="119" type="line"/>
      <point x="53" y="86" type="line"/>
      <point x="196" y="86" type="line"/>
      <point x="221" y="121"/>
      <point x="250" y="159"/>
      <point x="276" y="195" type="curve"/>
      <point x="356" y="86" type="line"/>
      <point x="500" y="86" type="line"/>
      <point x="500" y="119" type="line"/>
      <point x="361" y="300" type="line"/>
      <point x="500" y="480" type="line"/>
    </contour>
  </outline>
</glyph>
<glyph name="Uacute" format="1">
  <advance width="828"/>
  <unicode hex="00DA"/>
  <outline>
    <contour>
      <point x="641" y="139" type="line" smooth="yes"/>
      <point x="641" y="135"/>
      <point x="638" y="132"/>
      <point x="635" y="132" type="curve" smooth="yes"/>
      <point x="193" y="132" type="line" smooth="yes"/>
      <point x="189" y="132"/>
      <point x="186" y="135"/>
      <point x="186" y="139" type="curve" smooth="yes"/>
      <point x="186" y="720" type="line"/>
      <point x="54" y="720" type="line"/>
      <point x="54" y="139" type="line" smooth="yes"/>
      <point x="54" y="62"/>
      <point x="116" y="0"/>
      <point x="193" y="0" type="curve" smooth="yes"/>
      <point x="635" y="0" type="line" smooth="yes"/>
      <point x="711" y="0"/>
      <point x="774" y="62"/>
      <point x="774" y="139" type="curve" smooth="yes"/>
      <point x="774" y="720" type="line"/>
      <point x="641" y="720" type="line"/>
    </contour>
    <contour>
      <point x="340" y="779" type="line"/>
      <point x="473" y="779" type="line"/>
      <point x="519" y="962" type="line"/>
      <point x="386" y="962" type="line"/>
    </contour>
  </outline>
</glyph>
<glyph name="Ucircumflex" format="1">
  <advance width="828"/>
  <unicode hex="00DB"/>
  <outline>
    <contour>
      <point x="641" y="139" type="line" smooth="yes"/>
      <point x="641" y="135"/>
      <point x="638" y="132"/>
      <point x="635" y="132" type="curve" smooth="yes"/>
      <point x="193" y="132" type="line" smooth="yes"/>
      <point x="189" y="132"/>
      <point x="186" y="135"/>
      <point x="186" y="139" type="curve" smooth="yes"/>
      <point x="186" y="720" type="line"/>
      <point x="54" y="720" type="line"/>
      <point x="54" y="139" type="line" smooth="yes"/>
      <point x="54" y="62"/>
      <point x="116" y="0"/>
      <point x="193" y="0" type="curve" smooth="yes"/>
      <point x="635" y="0" type="line" smooth="yes"/>
      <point x="711" y="0"/>
      <point x="774" y="62"/>
      <point x="774" y="139" type="curve" smooth="yes"/>
      <point x="774" y="720" type="line"/>
      <point x="641" y="720" type="line"/>
    </contour>
    <contour>
      <point x="396" y="778" type="line"/>
      <point x="407" y="795"/>
      <point x="420" y="818"/>
      <point x="432" y="837" type="curve"/>
      <point x="469" y="778" type="line"/>
      <point x="575" y="778" type="line"/>
      <point x="477" y="941" type="line"/>
      <point x="390" y="941" type="line"/>
      <point x="292" y="778" type="line"/>
    </contour>
  </outline>
</glyph>
<glyph name="Udieresis" format="1">
  <advance width="828"/>
  <unicode hex="00DC"/>
  <outline>
    <contour>
      <point x="641" y="139" type="line" smooth="yes"/>
      <point x="641" y="135"/>
      <point x="638" y="132"/>
      <point x="635" y="132" type="curve" smooth="yes"/>
      <point x="193" y="132" type="line" smooth="yes"/>
      <point x="189" y="132"/>
      <point x="186" y="135"/>
      <point x="186" y="139" type="curve" smooth="yes"/>
      <point x="186" y="720" type="line"/>
      <point x="54" y="720" type="line"/>
      <point x="54" y="139" type="line" smooth="yes"/>
      <point x="54" y="62"/>
      <point x="116" y="0"/>
      <point x="193" y="0" type="curve" smooth="yes"/>
      <point x="635" y="0" type="line" smooth="yes"/>
      <point x="711" y="0"/>
      <point x="774" y="62"/>
      <point x="774" y="139" type="curve" smooth="yes"/>
      <point x="774" y="720" type="line"/>
      <point x="641" y="720" type="line"/>
    </contour>
    <contour>
      <point x="578" y="911" type="line"/>
      <point x="446" y="911" type="line"/>
      <point x="446" y="779" type="line"/>
      <point x="578" y="779" type="line"/>
    </contour>
    <contour>
      <point x="406" y="911" type="line"/>
      <point x="275" y="911" type="line"/>
      <point x="275" y="779" type="line"/>
      <point x="406" y="779" type="line"/>
    </contour>
  </outline>
</glyph>
<glyph name="Yacute" format="1">
  <advance width="806"/>
  <unicode hex="00DD"/>
  <outline>
    <contour>
      <point x="657" y="720" type="line"/>
      <point x="416" y="414" type="line"/>
      <point x="174" y="720" type="line"/>
      <point x="17" y="720" type="line"/>
      <point x="121" y="577"/>
      <point x="245" y="412"/>
      <point x="350" y="269" type="curve"/>
      <point x="350" y="0" type="line"/>
      <point x="482" y="0" type="line"/>
      <point x="482" y="269" type="line"/>
      <point x="815" y="720" type="line"/>
    </contour>
    <contour>
      <point x="329" y="779" type="line"/>
      <point x="462" y="779" type="line"/>
      <point x="508" y="962" type="line"/>
      <point x="375" y="962" type="line"/>
    </contour>
  </outline>
</glyph>
<glyph name="germandbls" format="1">
  <advance width="833"/>
  <unicode hex="00DF"/>
  <outline>
    <contour>
      <point x="770" y="599" type="line"/>
      <point x="759" y="664"/>
      <point x="700" y="713"/>
      <point x="632" y="713" type="curve" smooth="yes"/>
      <point x="195" y="713" type="line" smooth="yes"/>
      <point x="119" y="713"/>
      <point x="57" y="651"/>
      <point x="57" y="575" type="curve" smooth="yes"/>
      <point x="57" y="0" type="line"/>
      <point x="188" y="0" type="line"/>
      <point x="188" y="574" type="line" smooth="yes"/>
      <point x="188" y="578"/>
      <point x="191" y="581"/>
      <point x="195" y="581" type="curve" smooth="yes"/>
      <point x="632" y="581" type="line" smooth="yes"/>
      <point x="636" y="581"/>
      <point x="639" y="578"/>
      <point x="639" y="574" type="curve" smooth="yes"/>
      <point x="639" y="428" type="line" smooth="yes"/>
      <point x="639" y="424"/>
      <point x="636" y="421"/>
      <point x="632" y="421" type="curve" smooth="yes"/>
      <point x="273" y="421" type="line"/>
      <point x="273" y="300" type="line"/>
      <point x="632" y="300" type="line" smooth="yes"/>
      <point x="636" y="300"/>
      <point x="639" y="298"/>
      <point x="639" y="294" type="curve" smooth="yes"/>
      <point x="639" y="138" type="line" smooth="yes"/>
      <point x="639" y="134"/>
      <point x="636" y="131"/>
      <point x="632" y="131" type="curve" smooth="yes"/>
      <point x="273" y="131" type="line"/>
      <point x="273" y="0" type="line"/>
      <point x="632" y="0" type="line" smooth="yes"/>
      <point x="708" y="0"/>
      <point x="770" y="62"/>
      <point x="770" y="138" type="curve" smooth="yes"/>
      <point x="770" y="294" type="line" smooth="yes"/>
      <point x="770" y="319"/>
      <point x="764" y="345"/>
      <point x="750" y="366" type="curve"/>
      <point x="764" y="387"/>
      <point x="770" y="413"/>
      <point x="770" y="438" type="curve" smooth="yes"/>
    </contour>
  </outline>
</glyph>
<glyph name="agrave" format="1">
  <advance width="725"/>
  <unicode hex="00E0"/>
  <outline>
    <contour>
      <point x="52" y="580" type="line"/>
      <point x="52" y="449" type="line"/>
      <point x="503" y="449" type="line" smooth="yes"/>
      <point x="507" y="449"/>
      <point x="510" y="446"/>
      <point x="510" y="442" type="curve" smooth="yes"/>
      <point x="510" y="356" type="line"/>
      <point x="52" y="356" type="line"/>
      <point x="52" y="138" type="line" smooth="yes"/>
      <point x="52" y="62"/>
      <point x="114" y="0"/>
      <point x="190" y="0" type="curve" smooth="yes"/>
      <point x="641" y="0" type="line"/>
      <point x="641" y="442" type="line" smooth="yes"/>
      <point x="641" y="518"/>
      <point x="579" y="580"/>
      <point x="503" y="580" type="curve" smooth="yes"/>
    </contour>
    <contour>
      <point x="510" y="131" type="line"/>
      <point x="190" y="131" type="line" smooth="yes"/>
      <point x="186" y="131"/>
      <point x="183" y="134"/>
      <point x="183" y="138" type="curve" smooth="yes"/>
      <point x="183" y="224" type="line"/>
      <point x="510" y="224" type="line"/>
    </contour>
    <contour>
      <point x="421" y="860" type="line"/>
      <point x="288" y="860" type="line"/>
      <point x="334" y="677" type="line"/>
      <point x="467" y="677" type="line"/>
    </contour>
  </outline>
</glyph>
<glyph name="acircumflex" format="1">
  <advance width="725"/>
  <unicode hex="00E2"/>
  <outline>
    <contour>
      <point x="52" y="580" type="line"/>
      <point x="52" y="449" type="line"/>
      <point x="503" y="449" type="line" smooth="yes"/>
      <point x="507" y="449"/>
      <point x="510" y="446"/>
      <point x="510" y="442" type="curve" smooth="yes"/>
      <point x="510" y="356" type="line"/>
      <point x="52" y="356" type="line"/>
      <point x="52" y="138" type="line" smooth="yes"/>
      <point x="52" y="62"/>
      <point x="114" y="0"/>
      <point x="190" y="0" type="curve" smooth="yes"/>
      <point x="641" y="0" type="line"/>
      <point x="641" y="442" type="line" smooth="yes"/>
      <point x="641" y="518"/>
      <point x="579" y="580"/>
      <point x="503" y="580" type="curve" smooth="yes"/>
    </contour>
    <contour>
      <point x="510" y="131" type="line"/>
      <point x="190" y="131" type="line" smooth="yes"/>
      <point x="186" y="131"/>
      <point x="183" y="134"/>
      <point x="183" y="138" type="curve" smooth="yes"/>
      <point x="183" y="224" type="line"/>
      <point x="510" y="224" type="line"/>
    </contour>
    <contour>
      <point x="344" y="677" type="line"/>
      <point x="355" y="694"/>
      <point x="368" y="717"/>
      <point x="380" y="736" type="curve"/>
      <point x="417" y="677" type="line"/>
      <point x="523" y="677" type="line"/>
      <point x="425" y="840" type="line"/>
      <point x="338" y="840" type="line"/>
      <point x="240" y="677" type="line"/>
    </contour>
  </outline>
</glyph>
<glyph name="atilde" format="1">
  <advance width="725"/>
  <unicode hex="00E3"/>
  <outline>
    <contour>
      <point x="52" y="580" type="line"/>
      <point x="52" y="449" type="line"/>
      <point x="503" y="449" type="line" smooth="yes"/>
      <point x="507" y="449"/>
      <point x="510" y="446"/>
      <point x="510" y="442" type="curve" smooth="yes"/>
      <point x="510" y="356" type="line"/>
      <point x="52" y="356" type="line"/>
      <point x="52" y="138" type="line" smooth="yes"/>
      <point x="52" y="62"/>
      <point x="114" y="0"/>
      <point x="190" y="0" type="curve" smooth="yes"/>
      <point x="641" y="0" type="line"/>
      <point x="641" y="442" type="line" smooth="yes"/>
      <point x="641" y="518"/>
      <point x="579" y="580"/>
      <point x="503" y="580" type="curve" smooth="yes"/>
    </contour>
    <contour>
      <point x="510" y="131" type="line"/>
      <point x="190" y="131" type="line" smooth="yes"/>
      <point x="186" y="131"/>
      <point x="183" y="134"/>
      <point x="183" y="138" type="curve" smooth="yes"/>
      <point x="183" y="224" type="line"/>
      <point x="510" y="224" type="line"/>
    </contour>
    <contour>
      <point x="393" y="780"/>
      <point x="343" y="836"/>
      <point x="271" y="836" type="curve" smooth="yes"/>
      <point x="241" y="836"/>
      <point x="211" y="828"/>
      <point x="186" y="818" type="curve"/>
      <point x="186" y="707" type="line"/>
      <point x="213" y="742"/>
      <point x="240" y="745"/>
      <point x="259" y="745" type="curve" smooth="yes"/>
      <point x="271" y="745" type="line" smooth="yes"/>
      <point x="340" y="745"/>
      <point x="390" y="680"/>
      <point x="461" y="680" type="curve" smooth="yes"/>
      <point x="494" y="680"/>
      <point x="524" y="691"/>
      <point x="550" y="702" type="curve"/>
      <point x="550" y="798" type="line"/>
      <point x="517" y="776"/>
      <point x="488" y="771"/>
      <point x="463" y="771" type="curve"/>
    </contour>
  </outline>
</glyph>
<glyph name="aring" format="1">
  <advance width="725"/>
  <unicode hex="00E5"/>
  <outline>
    <contour>
      <point x="52" y="580" type="line"/>
      <point x="52" y="449" type="line"/>
      <point x="503" y="449" type="line" smooth="yes"/>
      <point x="507" y="449"/>
      <point x="510" y="446"/>
      <point x="510" y="442" type="curve" smooth="yes"/>
      <point x="510" y="356" type="line"/>
      <point x="52" y="356" type="line"/>
      <point x="52" y="138" type="line" smooth="yes"/>
      <point x="52" y="62"/>
      <point x="114" y="0"/>
      <point x="190" y="0" type="curve" smooth="yes"/>
      <point x="641" y="0" type="line"/>
      <point x="641" y="442" type="line" smooth="yes"/>
      <point x="641" y="518"/>
      <point x="579" y="580"/>
      <point x="503" y="580" type="curve" smooth="yes"/>
    </contour>
    <contour>
      <point x="510" y="131" type="line"/>
      <point x="190" y="131" type="line" smooth="yes"/>
      <point x="186" y="131"/>
      <point x="183" y="134"/>
      <point x="183" y="138" type="curve" smooth="yes"/>
      <point x="183" y="224" type="line"/>
      <point x="510" y="224" type="line"/>
    </contour>
    <contour>
      <point x="332" y="858" type="line" smooth="yes"/>
      <point x="296" y="858"/>
      <point x="267" y="828"/>
      <point x="267" y="793" type="curve" smooth="yes"/>
      <point x="267" y="742" type="line" smooth="yes"/>
      <point x="267" y="707"/>
      <point x="296" y="677"/>
      <point x="332" y="677" type="curve" smooth="yes"/>
      <point x="386" y="677" type="line" smooth="yes"/>
      <point x="422" y="677"/>
      <point x="451" y="707"/>
      <point x="451" y="742" type="curve" smooth="yes"/>
      <point x="451" y="793" type="line" smooth="yes"/>
      <point x="451" y="828"/>
      <point x="422" y="858"/>
      <point x="386" y="858" type="curve" smooth="yes"/>
    </contour>
    <contour>
      <point x="333" y="791" type="line"/>
      <point x="385" y="791" type="line"/>
      <point x="385" y="744" type="line"/>
      <point x="333" y="744" type="line"/>
    </contour>
  </outline>
</glyph>
<glyph name="ae" format="1">
  <advance width="1178"/>
  <unicode hex="00E6"/>
  <outline>
    <contour>
      <point x="53" y="580" type="line"/>
      <point x="53" y="449" type="line"/>
      <point x="504" y="449" type="line" smooth="yes"/>
      <point x="508" y="449"/>
      <point x="511" y="446"/>
      <point x="511" y="442" type="curve" smooth="yes"/>
      <point x="511" y="356" type="line"/>
      <point x="53" y="356" type="line"/>
      <point x="53" y="138" type="line" smooth="yes"/>
      <point x="53" y="62"/>
      <point x="114" y="0"/>
      <point x="190" y="0" type="curve" smooth="yes"/>
      <point x="1100" y="0" type="line"/>
      <point x="1100" y="131" type="line"/>
      <point x="649" y="131" type="line" smooth="yes"/>
      <point x="645" y="131"/>
      <point x="642" y="133"/>
      <point x="642" y="136" type="curve" smooth="yes"/>
      <point x="642" y="224" type="line"/>
      <point x="1100" y="224" type="line"/>
      <point x="1100" y="442" type="line" smooth="yes"/>
      <point x="1100" y="518"/>
      <point x="1039" y="580"/>
      <point x="963" y="580" type="curve" smooth="yes"/>
    </contour>
    <contour>
      <point x="511" y="131" type="line"/>
      <point x="190" y="131" type="line" smooth="yes"/>
      <point x="187" y="131"/>
      <point x="184" y="134"/>
      <point x="184" y="138" type="curve" smooth="yes"/>
      <point x="184" y="224" type="line"/>
      <point x="511" y="224" type="line"/>
    </contour>
    <contour>
      <point x="642" y="356" type="line"/>
      <point x="642" y="442" type="line" smooth="yes"/>
      <point x="642" y="446"/>
      <point x="645" y="449"/>
      <point x="649" y="449" type="curve" smooth="yes"/>
      <point x="963" y="449" type="line" smooth="yes"/>
      <point x="966" y="449"/>
      <point x="969" y="446"/>
      <point x="969" y="442" type="curve" smooth="yes"/>
      <point x="969" y="356" type="line"/>
    </contour>
  </outline>
</glyph>
<glyph name="ccedilla" format="1">
  <advance width="693"/>
  <unicode hex="00E7"/>
  <outline>
    <contour>
      <point x="189" y="131" type="line" smooth="yes"/>
      <point x="185" y="131"/>
      <point x="182" y="134"/>
      <point x="182" y="138" type="curve" smooth="yes"/>
      <point x="182" y="442" type="line" smooth="yes"/>
      <point x="182" y="446"/>
      <point x="185" y="449"/>
      <point x="189" y="449" type="curve" smooth="yes"/>
      <point x="638" y="449" type="line"/>
      <point x="638" y="580" type="line"/>
      <point x="189" y="580" type="line" smooth="yes"/>
      <point x="113" y="580"/>
      <point x="51" y="518"/>
      <point x="51" y="442" type="curve" smooth="yes"/>
      <point x="51" y="138" type="line" smooth="yes"/>
      <point x="51" y="62"/>
      <point x="113" y="0"/>
      <point x="189" y="0" type="curve" smooth="yes"/>
      <point x="300" y="0" type="line"/>
      <point x="262" y="-154" type="line"/>
      <point x="395" y="-154" type="line"/>
      <point x="433" y="0" type="line"/>
      <point x="640" y="0" type="line"/>
      <point x="640" y="131" type="line"/>
    </contour>
  </outline>
</glyph>
<glyph name="ecircumflex" format="1">
  <advance width="638"/>
  <unicode hex="00EA"/>
  <outline>
    <contour>
      <point x="189" y="580" type="line" smooth="yes"/>
      <point x="113" y="580"/>
      <point x="51" y="518"/>
      <point x="51" y="442" type="curve" smooth="yes"/>
      <point x="51" y="138" type="line" smooth="yes"/>
      <point x="51" y="62"/>
      <point x="113" y="0"/>
      <point x="189" y="0" type="curve" smooth="yes"/>
      <point x="640" y="0" type="line"/>
      <point x="640" y="131" type="line"/>
      <point x="189" y="131" type="line" smooth="yes"/>
      <point x="185" y="131"/>
      <point x="182" y="134"/>
      <point x="182" y="138" type="curve" smooth="yes"/>
      <point x="182" y="224" type="line"/>
      <point x="640" y="224" type="line"/>
      <point x="640" y="442" type="line" smooth="yes"/>
      <point x="640" y="518"/>
      <point x="578" y="580"/>
      <point x="502" y="580" type="curve" smooth="yes"/>
    </contour>
    <contour>
      <point x="182" y="356" type="line"/>
      <point x="182" y="442" type="line" smooth="yes"/>
      <point x="182" y="446"/>
      <point x="185" y="449"/>
      <point x="189" y="449" type="curve" smooth="yes"/>
      <point x="502" y="449" type="line" smooth="yes"/>
      <point x="506" y="449"/>
      <point x="509" y="446"/>
      <point x="509" y="442" type="curve" smooth="yes"/>
      <point x="509" y="356" type="line"/>
    </contour>
    <contour>
      <point x="301" y="677" type="line"/>
      <point x="312" y="694"/>
      <point x="325" y="717"/>
      <point x="337" y="736" type="curve"/>
      <point x="374" y="677" type="line"/>
      <point x="480" y="677" type="line"/>
      <point x="382" y="840" type="line"/>
      <point x="295" y="840" type="line"/>
      <point x="197" y="677" type="line"/>
    </contour>
  </outline>
</glyph>
<glyph name="igrave" format="1">
  <advance width="214"/>
  <unicode hex="00EC"/>
  <outline>
    <contour>
      <point x="56" y="0" type="line"/>
      <point x="187" y="0" type="line"/>
      <point x="187" y="580" type="line"/>
      <point x="56" y="580" type="line"/>
    </contour>
    <contour>
      <point x="149" y="861" type="line"/>
      <point x="16" y="861" type="line"/>
      <point x="62" y="678" type="line"/>
      <point x="195" y="678" type="line"/>
    </contour>
  </outline>
</glyph>
<glyph name="iacute" format="1">
  <advance width="214"/>
  <unicode hex="00ED"/>
  <outline>
    <contour>
      <point x="51" y="0" type="line"/>
      <point x="182" y="0" type="line"/>
      <point x="182" y="580" type="line"/>
      <point x="51" y="580" type="line"/>
    </contour>
    <contour>
      <point x="49" y="677" type="line"/>
      <point x="182" y="677" type="line"/>
      <point x="228" y="860" type="line"/>
      <point x="95" y="860" type="line"/>
    </contour>
  </outline>
</glyph>
<glyph name="icircumflex" format="1">
  <advance width="214"/>
  <unicode hex="00EE"/>
  <outline>
    <contour>
      <point x="51" y="0" type="line"/>
      <point x="182" y="0" type="line"/>
      <point x="182" y="580" type="line"/>
      <point x="51" y="580" type="line"/>
    </contour>
    <contour>
      <point x="89" y="677" type="line"/>
      <point x="100" y="694"/>
      <point x="113" y="717"/>
      <point x="125" y="736" type="curve"/>
      <point x="162" y="677" type="line"/>
      <point x="268" y="677" type="line"/>
      <point x="170" y="840" type="line"/>
      <point x="83" y="840" type="line"/>
      <point x="-15" y="677" type="line"/>
    </contour>
  </outline>
</glyph>
<glyph name="idieresis" format="1">
  <advance width="214"/>
  <unicode hex="00EF"/>
  <outline>
    <contour>
      <point x="55" y="0" type="line"/>
      <point x="186" y="0" type="line"/>
      <point x="186" y="580" type="line"/>
      <point x="55" y="580" type="line"/>
    </contour>
    <contour>
      <point x="271" y="811" type="line"/>
      <point x="139" y="811" type="line"/>
      <point x="139" y="679" type="line"/>
      <point x="271" y="679" type="line"/>
    </contour>
    <contour>
      <point x="99" y="811" type="line"/>
      <point x="-32" y="811" type="line"/>
      <point x="-32" y="679" type="line"/>
      <point x="99" y="679" type="line"/>
    </contour>
  </outline>
</glyph>
<glyph name="ntilde" format="1">
  <advance width="708"/>
  <unicode hex="00F1"/>
  <outline>
    <contour>
      <point x="54" y="580" type="line"/>
      <point x="54" y="0" type="line"/>
      <point x="185" y="0" type="line"/>
      <point x="185" y="442" type="line" smooth="yes"/>
      <point x="185" y="446"/>
      <point x="188" y="449"/>
      <point x="192" y="449" type="curve" smooth="yes"/>
      <point x="505" y="449" type="line" smooth="yes"/>
      <point x="509" y="449"/>
      <point x="512" y="446"/>
      <point x="512" y="442" type="curve" smooth="yes"/>
      <point x="512" y="0" type="line"/>
      <point x="643" y="0" type="line"/>
      <point x="643" y="442" type="line" smooth="yes"/>
      <point x="643" y="518"/>
      <point x="581" y="580"/>
      <point x="505" y="580" type="curve" smooth="yes"/>
    </contour>
    <contour>
      <point x="385" y="779"/>
      <point x="335" y="835"/>
      <point x="263" y="835" type="curve" smooth="yes"/>
      <point x="233" y="835"/>
      <point x="203" y="827"/>
      <point x="178" y="817" type="curve"/>
      <point x="178" y="706" type="line"/>
      <point x="205" y="741"/>
      <point x="232" y="744"/>
      <point x="251" y="744" type="curve" smooth="yes"/>
      <point x="263" y="744" type="line" smooth="yes"/>
      <point x="332" y="744"/>
      <point x="382" y="679"/>
      <point x="453" y="679" type="curve" smooth="yes"/>
      <point x="486" y="679"/>
      <point x="516" y="690"/>
      <point x="542" y="701" type="curve"/>
      <point x="542" y="797" type="line"/>
      <point x="509" y="775"/>
      <point x="480" y="770"/>
      <point x="455" y="770" type="curve"/>
    </contour>
  </outline>
</glyph>
<glyph name="ocircumflex" format="1">
  <advance width="692"/>
  <unicode hex="00F4"/>
  <outline>
    <contour>
      <point x="189" y="580" type="line" smooth="yes"/>
      <point x="113" y="580"/>
      <point x="51" y="518"/>
      <point x="51" y="442" type="curve" smooth="yes"/>
      <point x="51" y="138" type="line" smooth="yes"/>
      <point x="51" y="62"/>
      <point x="113" y="0"/>
      <point x="189" y="0" type="curve" smooth="yes"/>
      <point x="502" y="0" type="line" smooth="yes"/>
      <point x="578" y="0"/>
      <point x="640" y="62"/>
      <point x="640" y="138" type="curve" smooth="yes"/>
      <point x="640" y="442" type="line" smooth="yes"/>
      <point x="640" y="518"/>
      <point x="578" y="580"/>
      <point x="502" y="580" type="curve" smooth="yes"/>
    </contour>
    <contour>
      <point x="502" y="449" type="line" smooth="yes"/>
      <point x="506" y="449"/>
      <point x="509" y="446"/>
      <point x="509" y="442" type="curve" smooth="yes"/>
      <point x="509" y="138" type="line" smooth="yes"/>
      <point x="509" y="134"/>
      <point x="506" y="131"/>
      <point x="502" y="131" type="curve" smooth="yes"/>
      <point x="189" y="131" type="line" smooth="yes"/>
      <point x="185" y="131"/>
      <point x="182" y="134"/>
      <point x="182" y="138" type="curve" smooth="yes"/>
      <point x="182" y="442" type="line" smooth="yes"/>
      <point x="182" y="446"/>
      <point x="185" y="449"/>
      <point x="189" y="449" type="curve" smooth="yes"/>
    </contour>
    <contour>
      <point x="328" y="677" type="line"/>
      <point x="339" y="694"/>
      <point x="352" y="717"/>
      <point x="364" y="736" type="curve"/>
      <point x="401" y="677" type="line"/>
      <point x="507" y="677" type="line"/>
      <point x="409" y="840" type="line"/>
      <point x="322" y="840" type="line"/>
      <point x="224" y="677" type="line"/>
    </contour>
  </outline>
</glyph>
<glyph name="otilde" format="1">
  <advance width="692"/>
  <unicode hex="00F5"/>
  <outline>
    <contour>
      <point x="189" y="580" type="line" smooth="yes"/>
      <point x="113" y="580"/>
      <point x="51" y="518"/>
      <point x="51" y="442" type="curve" smooth="yes"/>
      <point x="51" y="138" type="line" smooth="yes"/>
      <point x="51" y="62"/>
      <point x="113" y="0"/>
      <point x="189" y="0" type="curve" smooth="yes"/>
      <point x="502" y="0" type="line" smooth="yes"/>
      <point x="578" y="0"/>
      <point x="640" y="62"/>
      <point x="640" y="138" type="curve" smooth="yes"/>
      <point x="640" y="442" type="line" smooth="yes"/>
      <point x="640" y="518"/>
      <point x="578" y="580"/>
      <point x="502" y="580" type="curve" smooth="yes"/>
    </contour>
    <contour>
      <point x="502" y="449" type="line" smooth="yes"/>
      <point x="506" y="449"/>
      <point x="509" y="446"/>
      <point x="509" y="442" type="curve" smooth="yes"/>
      <point x="509" y="138" type="line" smooth="yes"/>
      <point x="509" y="134"/>
      <point x="506" y="131"/>
      <point x="502" y="131" type="curve" smooth="yes"/>
      <point x="189" y="131" type="line" smooth="yes"/>
      <point x="185" y="131"/>
      <point x="182" y="134"/>
      <point x="182" y="138" type="curve" smooth="yes"/>
      <point x="182" y="442" type="line" smooth="yes"/>
      <point x="182" y="446"/>
      <point x="185" y="449"/>
      <point x="189" y="449" type="curve" smooth="yes"/>
    </contour>
    <contour>
      <point x="377" y="779"/>
      <point x="327" y="835"/>
      <point x="255" y="835" type="curve" smooth="yes"/>
      <point x="225" y="835"/>
      <point x="195" y="827"/>
      <point x="170" y="817" type="curve"/>
      <point x="170" y="706" type="line"/>
      <point x="197" y="741"/>
      <point x="224" y="744"/>
      <point x="243" y="744" type="curve" smooth="yes"/>
      <point x="255" y="744" type="line" smooth="yes"/>
      <point x="324" y="744"/>
      <point x="374" y="679"/>
      <point x="445" y="679" type="curve" smooth="yes"/>
      <point x="478" y="679"/>
      <point x="508" y="690"/>
      <point x="534" y="701" type="curve"/>
      <point x="534" y="797" type="line"/>
      <point x="501" y="775"/>
      <point x="472" y="770"/>
      <point x="447" y="770" type="curve"/>
    </contour>
  </outline>
</glyph>
<glyph name="odieresis" format="1">
  <advance width="692"/>
  <unicode hex="00F6"/>
  <outline>
    <contour>
      <point x="189" y="580" type="line" smooth="yes"/>
      <point x="113" y="580"/>
      <point x="51" y="518"/>
      <point x="51" y="442" type="curve" smooth="yes"/>
      <point x="51" y="138" type="line" smooth="yes"/>
      <point x="51" y="62"/>
      <point x="113" y="0"/>
      <point x="189" y="0" type="curve" smooth="yes"/>
      <point x="502" y="0" type="line" smooth="yes"/>
      <point x="578" y="0"/>
      <point x="640" y="62"/>
      <point x="640" y="138" type="curve" smooth="yes"/>
      <point x="640" y="442" type="line" smooth="yes"/>
      <point x="640" y="518"/>
      <point x="578" y="580"/>
      <point x="502" y="580" type="curve" smooth="yes"/>
    </contour>
    <contour>
      <point x="502" y="449" type="line" smooth="yes"/>
      <point x="506" y="449"/>
      <point x="509" y="446"/>
      <point x="509" y="442" type="curve" smooth="yes"/>
      <point x="509" y="138" type="line" smooth="yes"/>
      <point x="509" y="134"/>
      <point x="506" y="131"/>
      <point x="502" y="131" type="curve" smooth="yes"/>
      <point x="189" y="131" type="line" smooth="yes"/>
      <point x="185" y="131"/>
      <point x="182" y="134"/>
      <point x="182" y="138" type="curve" smooth="yes"/>
      <point x="182" y="442" type="line" smooth="yes"/>
      <point x="182" y="446"/>
      <point x="185" y="449"/>
      <point x="189" y="449" type="curve" smooth="yes"/>
    </contour>
    <contour>
      <point x="510" y="811" type="line"/>
      <point x="378" y="811" type="line"/>
      <point x="378" y="679" type="line"/>
      <point x="510" y="679" type="line"/>
    </contour>
    <contour>
      <point x="338" y="811" type="line"/>
      <point x="207" y="811" type="line"/>
      <point x="207" y="679" type="line"/>
      <point x="338" y="679" type="line"/>
    </contour>
  </outline>
</glyph>
<glyph name="divide" format="1">
  <advance width="502"/>
  <unicode hex="00F7"/>
  <outline>
    <contour>
      <point x="503" y="361" type="line"/>
      <point x="18" y="361" type="line"/>
      <point x="18" y="230" type="line"/>
      <point x="503" y="230" type="line"/>
    </contour>
    <contour>
      <point x="201" y="132" type="line"/>
      <point x="201" y="1" type="line"/>
      <point x="332" y="1" type="line"/>
      <point x="332" y="132" type="line"/>
    </contour>
    <contour>
      <point x="332" y="589" type="line"/>
      <point x="201" y="589" type="line"/>
      <point x="201" y="457" type="line"/>
      <point x="332" y="457" type="line"/>
    </contour>
  </outline>
</glyph>
<glyph name="uacute" format="1">
  <advance width="695"/>
  <unicode hex="00FA"/>
  <outline>
    <contour>
      <point x="511" y="580" type="line"/>
      <point x="511" y="138" type="line" smooth="yes"/>
      <point x="511" y="134"/>
      <point x="508" y="131"/>
      <point x="504" y="131" type="curve" smooth="yes"/>
      <point x="191" y="131" type="line" smooth="yes"/>
      <point x="187" y="131"/>
      <point x="184" y="134"/>
      <point x="184" y="138" type="curve" smooth="yes"/>
      <point x="184" y="580" type="line"/>
      <point x="53" y="580" type="line"/>
      <point x="53" y="138" type="line" smooth="yes"/>
      <point x="53" y="62"/>
      <point x="114" y="0"/>
      <point x="191" y="0" type="curve" smooth="yes"/>
      <point x="504" y="0" type="line" smooth="yes"/>
      <point x="580" y="0"/>
      <point x="642" y="62"/>
      <point x="642" y="138" type="curve" smooth="yes"/>
      <point x="642" y="580" type="line"/>
    </contour>
    <contour>
      <point x="273" y="678" type="line"/>
      <point x="406" y="678" type="line"/>
      <point x="452" y="861" type="line"/>
      <point x="319" y="861" type="line"/>
    </contour>
  </outline>
</glyph>
<glyph name="ucircumflex" format="1">
  <advance width="695"/>
  <unicode hex="00FB"/>
  <outline>
    <contour>
      <point x="511" y="580" type="line"/>
      <point x="511" y="138" type="line" smooth="yes"/>
      <point x="511" y="134"/>
      <point x="508" y="131"/>
      <point x="504" y="131" type="curve" smooth="yes"/>
      <point x="191" y="131" type="line" smooth="yes"/>
      <point x="187" y="131"/>
      <point x="184" y="134"/>
      <point x="184" y="138" type="curve" smooth="yes"/>
      <point x="184" y="580" type="line"/>
      <point x="53" y="580" type="line"/>
      <point x="53" y="138" type="line" smooth="yes"/>
      <point x="53" y="62"/>
      <point x="114" y="0"/>
      <point x="191" y="0" type="curve" smooth="yes"/>
      <point x="504" y="0" type="line" smooth="yes"/>
      <point x="580" y="0"/>
      <point x="642" y="62"/>
      <point x="642" y="138" type="curve" smooth="yes"/>
      <point x="642" y="580" type="line"/>
    </contour>
    <contour>
      <point x="329" y="678" type="line"/>
      <point x="340" y="695"/>
      <point x="353" y="718"/>
      <point x="365" y="737" type="curve"/>
      <point x="402" y="678" type="line"/>
      <point x="508" y="678" type="line"/>
      <point x="410" y="841" type="line"/>
      <point x="323" y="841" type="line"/>
      <point x="225" y="678" type="line"/>
    </contour>
  </outline>
</glyph>
<glyph name="ydieresis" format="1">
  <advance width="688"/>
  <unicode hex="00FF"/>
  <outline>
    <contour>
      <point x="631" y="578" type="line"/>
      <point x="500" y="578" type="line"/>
      <point x="500" y="138" type="line" smooth="yes"/>
      <point x="500" y="134"/>
      <point x="497" y="131"/>
      <point x="494" y="131" type="curve" smooth="yes"/>
      <point x="180" y="131" type="line" smooth="yes"/>
      <point x="176" y="131"/>
      <point x="173" y="134"/>
      <point x="173" y="138" type="curve" smooth="yes"/>
      <point x="173" y="578" type="line"/>
      <point x="42" y="578" type="line"/>
      <point x="42" y="138" type="line" smooth="yes"/>
      <point x="42" y="62"/>
      <point x="104" y="0"/>
      <point x="180" y="0" type="curve" smooth="yes"/>
      <point x="500" y="0" type="line"/>
      <point x="500" y="-92" type="line" smooth="yes"/>
      <point x="500" y="-96"/>
      <point x="497" y="-98"/>
      <point x="494" y="-98" type="curve" smooth="yes"/>
      <point x="139" y="-98" type="line"/>
      <point x="139" y="-230" type="line"/>
      <point x="494" y="-230" type="line" smooth="yes"/>
      <point x="570" y="-230"/>
      <point x="631" y="-168"/>
      <point x="631" y="-92" type="curve" smooth="yes"/>
    </contour>
    <contour>
      <point x="508" y="811" type="line"/>
      <point x="376" y="811" type="line"/>
      <point x="376" y="679" type="line"/>
      <point x="508" y="679" type="line"/>
    </contour>
    <contour>
      <point x="336" y="811" type="line"/>
      <point x="205" y="811" type="line"/>
      <point x="205" y="679" type="line"/>
      <point x="336" y="679" type="line"/>
    </contour>
  </outline>
</glyph>
<glyph name="OE" format="1">
  <advance width="1374"/>
  <unicode hex="0152"/>
  <outline>
    <contour>
      <point x="773" y="588" type="line"/>
      <point x="1303" y="588" type="line"/>
      <point x="1303" y="720" type="line"/>
      <point x="192" y="720" type="line" smooth="yes"/>
      <point x="116" y="720"/>
      <point x="53" y="658"/>
      <point x="53" y="581" type="curve" smooth="yes"/>
      <point x="53" y="139" type="line" smooth="yes"/>
      <point x="53" y="62"/>
      <point x="116" y="0"/>
      <point x="192" y="0" type="curve" smooth="yes"/>
      <point x="1303" y="0" type="line"/>
      <point x="1303" y="132" type="line"/>
      <point x="773" y="132" type="line"/>
      <point x="773" y="294" type="line"/>
      <point x="1199" y="294" type="line"/>
      <point x="1199" y="426" type="line"/>
      <point x="773" y="426" type="line"/>
    </contour>
    <contour>
      <point x="192" y="132" type="line" smooth="yes"/>
      <point x="189" y="132"/>
      <point x="186" y="135"/>
      <point x="186" y="139" type="curve" smooth="yes"/>
      <point x="186" y="581" type="line" smooth="yes"/>
      <point x="186" y="585"/>
      <point x="189" y="588"/>
      <point x="192" y="588" type="curve" smooth="yes"/>
      <point x="634" y="588" type="line" smooth="yes"/>
      <point x="638" y="588"/>
      <point x="641" y="585"/>
      <point x="641" y="581" type="curve" smooth="yes"/>
      <point x="641" y="139" type="line" smooth="yes"/>
      <point x="641" y="135"/>
      <point x="638" y="132"/>
      <point x="634" y="132" type="curve" smooth="yes"/>
    </contour>
  </outline>
</glyph>
<glyph name="oe" format="1">
  <advance width="1177"/>
  <unicode hex="0153"/>
  <outline>
    <contour>
      <point x="1099" y="224" type="line"/>
      <point x="1099" y="442" type="line" smooth="yes"/>
      <point x="1099" y="518"/>
      <point x="1038" y="580"/>
      <point x="962" y="580" type="curve" smooth="yes"/>
      <point x="190" y="580" type="line" smooth="yes"/>
      <point x="113" y="580"/>
      <point x="52" y="518"/>
      <point x="52" y="442" type="curve" smooth="yes"/>
      <point x="52" y="138" type="line" smooth="yes"/>
      <point x="52" y="62"/>
      <point x="113" y="0"/>
      <point x="190" y="0" type="curve" smooth="yes"/>
      <point x="1099" y="0" type="line"/>
      <point x="1099" y="131" type="line"/>
      <point x="648" y="131" type="line" smooth="yes"/>
      <point x="644" y="131"/>
      <point x="641" y="134"/>
      <point x="641" y="138" type="curve" smooth="yes"/>
      <point x="641" y="224" type="line"/>
    </contour>
    <contour>
      <point x="962" y="449" type="line" smooth="yes"/>
      <point x="965" y="449"/>
      <point x="968" y="446"/>
      <point x="968" y="442" type="curve" smooth="yes"/>
      <point x="968" y="356" type="line"/>
      <point x="641" y="356" type="line"/>
      <point x="641" y="442" type="line" smooth="yes"/>
      <point x="641" y="446"/>
      <point x="644" y="449"/>
      <point x="648" y="449" type="curve" smooth="yes"/>
    </contour>
    <contour>
      <point x="190" y="131" type="line" smooth="yes"/>
      <point x="186" y="131"/>
      <point x="183" y="134"/>
      <point x="183" y="138" type="curve" smooth="yes"/>
      <point x="183" y="442" type="line" smooth="yes"/>
      <point x="183" y="446"/>
      <point x="186" y="449"/>
      <point x="190" y="449" type="curve" smooth="yes"/>
      <point x="503" y="449" type="line" smooth="yes"/>
      <point x="507" y="449"/>
      <point x="510" y="446"/>
      <point x="510" y="442" type="curve" smooth="yes"/>
      <point x="510" y="138" type="line" smooth="yes"/>
      <point x="510" y="134"/>
      <point x="507" y="131"/>
      <point x="503" y="131" type="curve" smooth="yes"/>
    </contour>
  </outline>
</glyph>
<glyph name="Scaron" format="1">
  <advance width="822"/>
  <unicode hex="0160"/>
  <outline>
    <contour>
      <point x="771" y="581" type="line" smooth="yes"/>
      <point x="771" y="658"/>
      <point x="708" y="720"/>
      <point x="632" y="720" type="curve" smooth="yes"/>
      <point x="190" y="720" type="line" smooth="yes"/>
      <point x="113" y="720"/>
      <point x="51" y="658"/>
      <point x="51" y="581" type="curve" smooth="yes"/>
      <point x="51" y="433" type="line" smooth="yes"/>
      <point x="51" y="356"/>
      <point x="113" y="294"/>
      <point x="190" y="294" type="curve" smooth="yes"/>
      <point x="632" y="294" type="line" smooth="yes"/>
      <point x="635" y="294"/>
      <point x="638" y="291"/>
      <point x="638" y="287" type="curve" smooth="yes"/>
      <point x="638" y="139" type="line" smooth="yes"/>
      <point x="638" y="135"/>
      <point x="635" y="132"/>
      <point x="632" y="132" type="curve" smooth="yes"/>
      <point x="190" y="132" type="line" smooth="yes"/>
      <point x="186" y="132"/>
      <point x="183" y="135"/>
      <point x="183" y="139" type="curve" smooth="yes"/>
      <point x="183" y="194" type="line"/>
      <point x="51" y="194" type="line"/>
      <point x="51" y="139" type="line" smooth="yes"/>
      <point x="51" y="62"/>
      <point x="113" y="0"/>
      <point x="190" y="0" type="curve" smooth="yes"/>
      <point x="632" y="0" type="line" smooth="yes"/>
      <point x="708" y="0"/>
      <point x="771" y="62"/>
      <point x="771" y="139" type="curve" smooth="yes"/>
      <point x="771" y="287" type="line" smooth="yes"/>
      <point x="771" y="364"/>
      <point x="708" y="426"/>
      <point x="632" y="426" type="curve" smooth="yes"/>
      <point x="190" y="426" type="line" smooth="yes"/>
      <point x="186" y="426"/>
      <point x="183" y="429"/>
      <point x="183" y="433" type="curve" smooth="yes"/>
      <point x="183" y="581" type="line" smooth="yes"/>
      <point x="183" y="585"/>
      <point x="186" y="588"/>
      <point x="190" y="588" type="curve" smooth="yes"/>
      <point x="632" y="588" type="line" smooth="yes"/>
      <point x="635" y="588"/>
      <point x="638" y="585"/>
      <point x="638" y="581" type="curve" smooth="yes"/>
      <point x="638" y="526" type="line"/>
      <point x="771" y="526" type="line"/>
    </contour>
    <contour>
      <point x="289" y="941" type="line"/>
      <point x="387" y="778" type="line"/>
      <point x="474" y="778" type="line"/>
      <point x="572" y="941" type="line"/>
      <point x="466" y="941" type="line"/>
      <point x="429" y="882" type="line"/>
      <point x="392" y="941" type="line"/>
    </contour>
  </outline>
</glyph>
<glyph name="Ydieresis" format="1">
  <advance width="806"/>
  <unicode hex="0178"/>
  <outline>
    <contour>
      <point x="657" y="720" type="line"/>
      <point x="416" y="414" type="line"/>
      <point x="174" y="720" type="line"/>
      <point x="17" y="720" type="line"/>
      <point x="121" y="577"/>
      <point x="245" y="412"/>
      <point x="350" y="269" type="curve"/>
      <point x="350" y="0" type="line"/>
      <point x="482" y="0" type="line"/>
      <point x="482" y="269" type="line"/>
      <point x="815" y="720" type="line"/>
    </contour>
    <contour>
      <point x="567" y="911" type="line"/>
      <point x="435" y="911" type="line"/>
      <point x="435" y="779" type="line"/>
      <point x="567" y="779" type="line"/>
    </contour>
    <contour>
      <point x="395" y="911" type="line"/>
      <point x="264" y="911" type="line"/>
      <point x="264" y="779" type="line"/>
      <point x="395" y="779" type="line"/>
    </contour>
  </outline>
</glyph>
<glyph name="Zcaron" format="1">
  <advance width="821"/>
  <unicode hex="017D"/>
  <outline>
    <contour>
      <point x="51" y="588" type="line"/>
      <point x="579" y="588" type="line"/>
      <point x="51" y="144" type="line"/>
      <point x="51" y="0" type="line"/>
      <point x="771" y="0" type="line"/>
      <point x="771" y="132" type="line"/>
      <point x="243" y="132" type="line"/>
      <point x="771" y="576" type="line"/>
      <point x="771" y="720" type="line"/>
      <point x="51" y="720" type="line"/>
    </contour>
    <contour>
      <point x="288" y="941" type="line"/>
      <point x="386" y="778" type="line"/>
      <point x="473" y="778" type="line"/>
      <point x="571" y="941" type="line"/>
      <point x="465" y="941" type="line"/>
      <point x="428" y="882" type="line"/>
      <point x="391" y="941" type="line"/>
    </contour>
  </outline>
</glyph>
<glyph name="zcaron" format="1">
  <advance width="698"/>
  <unicode hex="017E"/>
  <outline>
    <contour>
      <point x="54" y="449" type="line"/>
      <point x="450" y="449" type="line"/>
      <point x="54" y="143" type="line"/>
      <point x="54" y="0" type="line"/>
      <point x="643" y="0" type="line"/>
      <point x="643" y="131" type="line"/>
      <point x="247" y="131" type="line"/>
      <point x="643" y="437" type="line"/>
      <point x="643" y="580" type="line"/>
      <point x="54" y="580" type="line"/>
    </contour>
    <contour>
      <point x="227" y="843" type="line"/>
      <point x="325" y="680" type="line"/>
      <point x="412" y="680" type="line"/>
      <point x="510" y="843" type="line"/>
      <point x="404" y="843" type="line"/>
      <point x="367" y="784" type="line"/>
      <point x="330" y="843" type="line"/>
    </contour>
  </outline>
</glyph>
<glyph name="circumflex" format="1">
  <advance width="300"/>
  <unicode hex="02C6"/>
  <outline>
    <contour>
      <point x="132" y="785" type="line"/>
      <point x="143" y="802"/>
      <point x="156" y="825"/>
      <point x="168" y="844" type="curve"/>
      <point x="205" y="785" type="line"/>
      <point x="311" y="785" type="line"/>
      <point x="213" y="948" type="line"/>
      <point x="126" y="948" type="line"/>
      <point x="28" y="785" type="line"/>
    </contour>
  </outline>
</glyph>
<glyph name="caron" format="1">
  <advance width="297"/>
  <unicode hex="02C7"/>
  <outline>
    <contour>
      <point x="27" y="948" type="line"/>
      <point x="125" y="785" type="line"/>
      <point x="212" y="785" type="line"/>
      <point x="310" y="948" type="line"/>
      <point x="204" y="948" type="line"/>
      <point x="167" y="889" type="line"/>
      <point x="130" y="948" type="line"/>
    </contour>
  </outline>
</glyph>
<glyph name="breve" format="1">
  <advance width="287"/>
  <unicode hex="02D8"/>
  <outline>
    <contour>
      <point x="189" y="895" type="line"/>
      <point x="189" y="864" type="line"/>
      <point x="117" y="864" type="line"/>
      <point x="117" y="895" type="line"/>
      <point x="40" y="895" type="line"/>
      <point x="40" y="874" type="line" smooth="yes"/>
      <point x="40" y="826"/>
      <point x="77" y="786"/>
      <point x="128" y="786" type="curve" smooth="yes"/>
      <point x="177" y="786" type="line" smooth="yes"/>
      <point x="228" y="786"/>
      <point x="265" y="826"/>
      <point x="265" y="874" type="curve" smooth="yes"/>
      <point x="265" y="895" type="line"/>
    </contour>
  </outline>
</glyph>
<glyph name="dotaccent" format="1">
  <advance width="233"/>
  <unicode hex="02D9"/>
  <outline>
    <contour>
      <point x="111" y="949" type="line" smooth="yes"/>
      <point x="75" y="949"/>
      <point x="45" y="919"/>
      <point x="45" y="884" type="curve" smooth="yes"/>
      <point x="45" y="852" type="line" smooth="yes"/>
      <point x="45" y="817"/>
      <point x="75" y="787"/>
      <point x="111" y="787" type="curve" smooth="yes"/>
      <point x="145" y="787" type="line" smooth="yes"/>
      <point x="181" y="787"/>
      <point x="211" y="817"/>
      <point x="211" y="852" type="curve" smooth="yes"/>
      <point x="211" y="884" type="line" smooth="yes"/>
      <point x="211" y="919"/>
      <point x="181" y="949"/>
      <point x="145" y="949" type="curve" smooth="yes"/>
    </contour>
  </outline>
</glyph>
<glyph name="ring" format="1">
  <advance width="233"/>
  <unicode hex="02DA"/>
  <outline>
    <contour>
      <point x="87" y="968" type="line" smooth="yes"/>
      <point x="51" y="968"/>
      <point x="22" y="938"/>
      <point x="22" y="903" type="curve" smooth="yes"/>
      <point x="22" y="852" type="line" smooth="yes"/>
      <point x="22" y="817"/>
      <point x="51" y="787"/>
      <point x="87" y="787" type="curve" smooth="yes"/>
      <point x="141" y="787" type="line" smooth="yes"/>
      <point x="177" y="787"/>
      <point x="206" y="817"/>
      <point x="206" y="852" type="curve" smooth="yes"/>
      <point x="206" y="903" type="line" smooth="yes"/>
      <point x="206" y="938"/>
      <point x="177" y="968"/>
      <point x="141" y="968" type="curve" smooth="yes"/>
    </contour>
    <contour>
      <point x="88" y="901" type="line"/>
      <point x="140" y="901" type="line"/>
      <point x="140" y="854" type="line"/>
      <point x="88" y="854" type="line"/>
    </contour>
  </outline>
</glyph>
<glyph name="tilde" format="1">
  <advance width="403"/>
  <unicode hex="02DC"/>
  <outline>
    <contour>
      <point x="230" y="890"/>
      <point x="180" y="946"/>
      <point x="108" y="946" type="curve" smooth="yes"/>
      <point x="78" y="946"/>
      <point x="48" y="938"/>
      <point x="23" y="928" type="curve"/>
      <point x="23" y="817" type="line"/>
      <point x="50" y="852"/>
      <point x="77" y="855"/>
      <point x="96" y="855" type="curve" smooth="yes"/>
      <point x="108" y="855" type="line" smooth="yes"/>
      <point x="177" y="855"/>
      <point x="227" y="790"/>
      <point x="298" y="790" type="curve" smooth="yes"/>
      <point x="331" y="790"/>
      <point x="361" y="801"/>
      <point x="387" y="812" type="curve"/>
      <point x="387" y="908" type="line"/>
      <point x="354" y="886"/>
      <point x="325" y="881"/>
      <point x="300" y="881" type="curve"/>
    </contour>
  </outline>
</glyph>
<glyph name="endash" format="1">
  <advance width="708"/>
  <unicode hex="2013"/>
  <outline>
    <contour>
      <point x="653" y="360" type="line"/>
      <point x="54" y="360" type="line"/>
      <point x="54" y="229" type="line"/>
      <point x="653" y="229" type="line"/>
    </contour>
  </outline>
</glyph>
<glyph name="emdash" format="1">
  <advance width="822"/>
  <unicode hex="2014"/>
  <outline>
    <contour>
      <point x="762" y="360" type="line"/>
      <point x="54" y="360" type="line"/>
      <point x="54" y="229" type="line"/>
      <point x="762" y="229" type="line"/>
    </contour>
  </outline>
</glyph>
<glyph name="quoteleft" format="1">
  <advance width="217"/>
  <unicode hex="2018"/>
  <outline>
    <contour>
      <point x="165" y="467" type="line"/>
      <point x="165" y="723" type="line"/>
      <point x="91" y="711"/>
      <point x="34" y="654"/>
      <point x="34" y="584" type="curve" smooth="yes"/>
      <point x="34" y="467" type="line"/>
    </contour>
  </outline>
</glyph>
<glyph name="quoteright" format="1">
  <advance width="216"/>
  <unicode hex="2019"/>
  <outline>
    <contour>
      <point x="54" y="720" type="line"/>
      <point x="54" y="464" type="line"/>
      <point x="128" y="477"/>
      <point x="185" y="534"/>
      <point x="185" y="603" type="curve" smooth="yes"/>
      <point x="185" y="720" type="line"/>
    </contour>
  </outline>
</glyph>
<glyph name="quotedblleft" format="1">
  <advance width="402"/>
  <unicode hex="201C"/>
  <outline>
    <contour>
      <point x="176" y="467" type="line"/>
      <point x="176" y="723" type="line"/>
      <point x="102" y="711"/>
      <point x="45" y="654"/>
      <point x="45" y="584" type="curve" smooth="yes"/>
      <point x="45" y="467" type="line"/>
    </contour>
    <contour>
      <point x="349" y="467" type="line"/>
      <point x="349" y="723" type="line"/>
      <point x="275" y="711"/>
      <point x="218" y="654"/>
      <point x="218" y="584" type="curve" smooth="yes"/>
      <point x="218" y="467" type="line"/>
    </contour>
  </outline>
</glyph>
<glyph name="quotedblright" format="1">
  <advance width="401"/>
  <unicode hex="201D"/>
  <outline>
    <contour>
      <point x="226" y="720" type="line"/>
      <point x="226" y="464" type="line"/>
      <point x="301" y="477"/>
      <point x="358" y="534"/>
      <point x="358" y="603" type="curve" smooth="yes"/>
      <point x="358" y="720" type="line"/>
    </contour>
    <contour>
      <point x="54" y="720" type="line"/>
      <point x="54" y="464" type="line"/>
      <point x="128" y="477"/>
      <point x="185" y="534"/>
      <point x="185" y="603" type="curve" smooth="yes"/>
      <point x="185" y="720" type="line"/>
    </contour>
  </outline>
</glyph>
<glyph name="bullet" format="1">
  <advance width="371"/>
  <unicode hex="2022"/>
  <outline>
    <contour>
      <point x="172" y="420" type="line" smooth="yes"/>
      <point x="137" y="420"/>
      <point x="118" y="401"/>
      <point x="118" y="366" type="curve" smooth="yes"/>
      <point x="118" y="347" type="line" smooth="yes"/>
      <point x="118" y="312"/>
      <point x="137" y="293"/>
      <point x="172" y="293" type="curve" smooth="yes"/>
      <point x="194" y="293" type="line" smooth="yes"/>
      <point x="230" y="293"/>
      <point x="249" y="312"/>
      <point x="249" y="347" type="curve" smooth="yes"/>
      <point x="249" y="366" type="line" smooth="yes"/>
      <point x="249" y="401"/>
      <point x="230" y="420"/>
      <point x="194" y="420" type="curve" smooth="yes"/>
    </contour>
  </outline>
</glyph>
<glyph name="ellipsis" format="1">
  <advance width="574"/>
  <unicode hex="2026"/>
  <outline>
    <contour>
      <point x="366" y="131" type="line"/>
      <point x="234" y="131" type="line"/>
      <point x="234" y="0" type="line"/>
      <point x="366" y="0" type="line"/>
    </contour>
    <contour>
      <point x="546" y="131" type="line"/>
      <point x="415" y="131" type="line"/>
      <point x="415" y="0" type="line"/>
      <point x="546" y="0" type="line"/>
    </contour>
    <contour>
      <point x="185" y="131" type="line"/>
      <point x="54" y="131" type="line"/>
      <point x="54" y="0" type="line"/>
      <point x="185" y="0" type="line"/>
    </contour>
  </outline>
</glyph>
<glyph name="Euro" format="1">
  <advance width="799"/>
  <unicode hex="20AC"/>
  <outline>
    <contour>
      <point x="268" y="131" type="line" smooth="yes"/>
      <point x="264" y="131"/>
      <point x="261" y="134"/>
      <point x="261" y="138" type="curve" smooth="yes"/>
      <point x="261" y="197" type="line"/>
      <point x="643" y="197" type="line"/>
      <point x="643" y="328" type="line"/>
      <point x="261" y="328" type="line"/>
      <point x="261" y="385" type="line"/>
      <point x="643" y="385" type="line"/>
      <point x="643" y="516" type="line"/>
      <point x="261" y="516" type="line"/>
      <point x="261" y="582" type="line" smooth="yes"/>
      <point x="261" y="586"/>
      <point x="264" y="589"/>
      <point x="268" y="589" type="curve" smooth="yes"/>
      <point x="746" y="589" type="line"/>
      <point x="746" y="720" type="line"/>
      <point x="268" y="720" type="line" smooth="yes"/>
      <point x="192" y="720"/>
      <point x="130" y="658"/>
      <point x="130" y="582" type="curve" smooth="yes"/>
      <point x="130" y="516" type="line"/>
      <point x="35" y="516" type="line"/>
      <point x="35" y="385" type="line"/>
      <point x="130" y="385" type="line"/>
      <point x="130" y="328" type="line"/>
      <point x="35" y="328" type="line"/>
      <point x="35" y="197" type="line"/>
      <point x="130" y="197" type="line"/>
      <point x="130" y="138" type="line" smooth="yes"/>
      <point x="130" y="62"/>
      <point x="192" y="0"/>
      <point x="268" y="0" type="curve" smooth="yes"/>
      <point x="746" y="0" type="line"/>
      <point x="746" y="131" type="line"/>
    </contour>
  </outline>
</glyph>
<glyph name="minus" format="1">
  <advance width="517"/>
  <unicode hex="2212"/>
  <outline>
    <contour>
      <point x="468" y="361" type="line"/>
      <point x="59" y="361" type="line"/>
      <point x="59" y="230" type="line"/>
      <point x="468" y="230" type="line"/>
    </contour>
  </outline>
</glyph>
<glyph name="A.alt" format="1">
  <advance width="774"/>
  <outline>
    <contour>
      <point x="0" y="0" type="line"/>
      <point x="143" y="0" type="line"/>
      <point x="193" y="60"/>
      <point x="247" y="123"/>
      <point x="296" y="183" type="curve"/>
      <point x="581" y="183" type="line"/>
      <point x="581" y="0" type="line"/>
      <point x="713" y="0" type="line"/>
      <point x="713" y="720" type="line"/>
      <point x="570" y="720" type="line"/>
      <point x="0" y="33" type="line"/>
    </contour>
    <contour>
      <point x="581" y="523" type="line"/>
      <point x="581" y="314" type="line"/>
      <point x="406" y="314" type="line"/>
    </contour>
  </outline>
</glyph>
<glyph name="A.alt2" format="1">
  <advance width="774"/>
  <outline>
    <contour>
      <point x="54" y="720" type="line"/>
      <point x="54" y="0" type="line"/>
      <point x="185" y="0" type="line"/>
      <point x="185" y="183" type="line"/>
      <point x="471" y="183" type="line"/>
      <point x="625" y="0" type="line"/>
      <point x="767" y="0" type="line"/>
      <point x="767" y="33" type="line"/>
      <point x="197" y="720" type="line"/>
    </contour>
    <contour>
      <point x="185" y="521" type="line"/>
      <point x="252" y="441"/>
      <point x="299" y="389"/>
      <point x="361" y="314" type="curve"/>
      <point x="185" y="314" type="line"/>
    </contour>
  </outline>
</glyph>
<glyph name="A.alt3" format="1">
  <advance width="827"/>
  <outline>
    <contour>
      <point x="864" y="0" type="line"/>
      <point x="479" y="720" type="line"/>
      <point x="358" y="720" type="line"/>
      <point x="-28" y="0" type="line"/>
      <point x="124" y="0" type="line"/>
      <point x="154" y="53"/>
      <point x="191" y="114"/>
      <point x="222" y="168" type="curve"/>
      <point x="616" y="168" type="line"/>
      <point x="712" y="0" type="line"/>
    </contour>
    <contour>
      <point x="419" y="553" type="line"/>
      <point x="541" y="300" type="line"/>
      <point x="296" y="300" type="line"/>
    </contour>
  </outline>
</glyph>
<glyph name="C.alt" format="1">
  <advance width="822"/>
  <outline>
    <contour>
      <point x="773" y="605" type="line"/>
      <point x="757" y="670"/>
      <point x="701" y="720"/>
      <point x="633" y="720" type="curve" smooth="yes"/>
      <point x="191" y="720" type="line" smooth="yes"/>
      <point x="114" y="720"/>
      <point x="52" y="658"/>
      <point x="52" y="581" type="curve" smooth="yes"/>
      <point x="52" y="139" type="line" smooth="yes"/>
      <point x="52" y="62"/>
      <point x="114" y="0"/>
      <point x="191" y="0" type="curve" smooth="yes"/>
      <point x="633" y="0" type="line" smooth="yes"/>
      <point x="701" y="0"/>
      <point x="758" y="50"/>
      <point x="770" y="115" type="curve"/>
      <point x="770" y="236" type="line"/>
      <point x="640" y="236" type="line"/>
      <point x="640" y="132" type="line"/>
      <point x="191" y="132" type="line" smooth="yes"/>
      <point x="187" y="132"/>
      <point x="184" y="135"/>
      <point x="184" y="139" type="curve" smooth="yes"/>
      <point x="184" y="581" type="line" smooth="yes"/>
      <point x="184" y="585"/>
      <point x="187" y="588"/>
      <point x="191" y="588" type="curve" smooth="yes"/>
      <point x="640" y="588" type="line"/>
      <point x="640" y="484" type="line"/>
      <point x="773" y="484" type="line"/>
    </contour>
  </outline>
</glyph>
<glyph name="I.alt" format="1">
  <advance width="818"/>
  <outline>
    <contour>
      <point x="769" y="720" type="line"/>
      <point x="49" y="720" type="line"/>
      <point x="49" y="588" type="line"/>
      <point x="343" y="588" type="line"/>
      <point x="343" y="132" type="line"/>
      <point x="49" y="132" type="line"/>
      <point x="49" y="0" type="line"/>
      <point x="769" y="0" type="line"/>
      <point x="769" y="132" type="line"/>
      <point x="475" y="132" type="line"/>
      <point x="475" y="588" type="line"/>
      <point x="769" y="588" type="line"/>
    </contour>
  </outline>
</glyph>
<glyph name="J.alt" format="1">
  <advance width="645"/>
  <outline>
    <contour>
      <point x="466" y="139" type="line" smooth="yes"/>
      <point x="466" y="135"/>
      <point x="463" y="132"/>
      <point x="459" y="132" type="curve" smooth="yes"/>
      <point x="3" y="132" type="line"/>
      <point x="3" y="0" type="line"/>
      <point x="459" y="0" type="line" smooth="yes"/>
      <point x="536" y="0"/>
      <point x="599" y="62"/>
      <point x="599" y="139" type="curve" smooth="yes"/>
      <point x="599" y="720" type="line"/>
      <point x="466" y="720" type="line"/>
    </contour>
  </outline>
</glyph>
<glyph name="K.alt" format="1">
  <advance width="829"/>
  <outline>
    <contour>
      <point x="642" y="430" type="line" smooth="yes"/>
      <point x="642" y="426"/>
      <point x="639" y="423"/>
      <point x="635" y="423" type="curve" smooth="yes"/>
      <point x="193" y="423" type="line" smooth="yes"/>
      <point x="189" y="423"/>
      <point x="186" y="426"/>
      <point x="186" y="430" type="curve" smooth="yes"/>
      <point x="186" y="720" type="line"/>
      <point x="54" y="720" type="line"/>
      <point x="54" y="0" type="line"/>
      <point x="186" y="0" type="line"/>
      <point x="186" y="284" type="line" smooth="yes"/>
      <point x="186" y="288"/>
      <point x="189" y="291"/>
      <point x="193" y="291" type="curve" smooth="yes"/>
      <point x="635" y="291" type="line" smooth="yes"/>
      <point x="638" y="291"/>
      <point x="641" y="288"/>
      <point x="641" y="284" type="curve" smooth="yes"/>
      <point x="641" y="0" type="line"/>
      <point x="774" y="0" type="line"/>
      <point x="774" y="265" type="line" smooth="yes"/>
      <point x="774" y="300"/>
      <point x="744" y="337"/>
      <point x="696" y="357" type="curve"/>
      <point x="744" y="376"/>
      <point x="775" y="413"/>
      <point x="775" y="449" type="curve" smooth="yes"/>
      <point x="775" y="720" type="line"/>
      <point x="642" y="720" type="line"/>
    </contour>
  </outline>
</glyph>
<glyph name="M.alt" format="1">
  <advance width="1155"/>
  <outline>
    <contour>
      <point x="54" y="720" type="line"/>
      <point x="54" y="0" type="line"/>
      <point x="186" y="0" type="line"/>
      <point x="186" y="588" type="line"/>
      <point x="487" y="588" type="line" smooth="yes"/>
      <point x="491" y="588"/>
      <point x="494" y="585"/>
      <point x="494" y="581" type="curve" smooth="yes"/>
      <point x="494" y="0" type="line"/>
      <point x="626" y="0" type="line"/>
      <point x="626" y="588" type="line"/>
      <point x="950" y="588" type="line" smooth="yes"/>
      <point x="954" y="588"/>
      <point x="956" y="585"/>
      <point x="956" y="581" type="curve" smooth="yes"/>
      <point x="956" y="0" type="line"/>
      <point x="1089" y="0" type="line"/>
      <point x="1089" y="581" type="line" smooth="yes"/>
      <point x="1089" y="658"/>
      <point x="1026" y="720"/>
      <point x="950" y="720" type="curve" smooth="yes"/>
    </contour>
  </outline>
</glyph>
<glyph name="N.alt" format="1">
  <advance width="827"/>
  <outline>
    <contour>
      <point x="186" y="0" type="line"/>
      <point x="186" y="588" type="line"/>
      <point x="635" y="588" type="line" smooth="yes"/>
      <point x="638" y="588"/>
      <point x="641" y="585"/>
      <point x="641" y="581" type="curve" smooth="yes"/>
      <point x="641" y="0" type="line"/>
      <point x="774" y="0" type="line"/>
      <point x="774" y="581" type="line" smooth="yes"/>
      <point x="774" y="658"/>
      <point x="711" y="720"/>
      <point x="635" y="720" type="curve" smooth="yes"/>
      <point x="54" y="720" type="line"/>
      <point x="54" y="0" type="line"/>
    </contour>
  </outline>
</glyph>
<glyph name="O.alt" format="1">
  <advance width="824"/>
  <outline>
    <contour>
      <point x="191" y="720" type="line" smooth="yes"/>
      <point x="114" y="720"/>
      <point x="52" y="658"/>
      <point x="52" y="581" type="curve" smooth="yes"/>
      <point x="52" y="139" type="line" smooth="yes"/>
      <point x="52" y="62"/>
      <point x="114" y="0"/>
      <point x="191" y="0" type="curve" smooth="yes"/>
      <point x="633" y="0" type="line" smooth="yes"/>
      <point x="709" y="0"/>
      <point x="772" y="62"/>
      <point x="772" y="139" type="curve" smooth="yes"/>
      <point x="772" y="581" type="line" smooth="yes"/>
      <point x="772" y="658"/>
      <point x="709" y="720"/>
      <point x="633" y="720" type="curve" smooth="yes"/>
    </contour>
    <contour>
      <point x="639" y="139" type="line" smooth="yes"/>
      <point x="639" y="135"/>
      <point x="636" y="132"/>
      <point x="633" y="132" type="curve" smooth="yes"/>
      <point x="191" y="132" type="line" smooth="yes"/>
      <point x="187" y="132"/>
      <point x="184" y="135"/>
      <point x="184" y="139" type="curve" smooth="yes"/>
      <point x="184" y="581" type="line" smooth="yes"/>
      <point x="184" y="585"/>
      <point x="187" y="588"/>
      <point x="191" y="588" type="curve" smooth="yes"/>
      <point x="633" y="588" type="line" smooth="yes"/>
      <point x="636" y="588"/>
      <point x="639" y="585"/>
      <point x="639" y="581" type="curve" smooth="yes"/>
    </contour>
    <contour>
      <point x="478" y="294" type="line"/>
      <point x="478" y="426" type="line"/>
      <point x="346" y="426" type="line"/>
      <point x="346" y="294" type="line"/>
    </contour>
  </outline>
</glyph>
<glyph name="R.alt" format="1">
  <advance width="826"/>
  <outline>
    <contour>
      <point x="774" y="580" type="line" smooth="yes"/>
      <point x="774" y="656"/>
      <point x="711" y="719"/>
      <point x="635" y="719" type="curve" smooth="yes"/>
      <point x="54" y="720" type="line"/>
      <point x="54" y="0" type="line"/>
      <point x="186" y="0" type="line"/>
      <point x="186" y="240" type="line" smooth="yes"/>
      <point x="186" y="244"/>
      <point x="189" y="247"/>
      <point x="193" y="247" type="curve" smooth="yes"/>
      <point x="635" y="247" type="line" smooth="yes"/>
      <point x="638" y="247"/>
      <point x="641" y="244"/>
      <point x="641" y="240" type="curve" smooth="yes"/>
      <point x="641" y="0" type="line"/>
      <point x="774" y="0" type="line"/>
      <point x="774" y="240" type="line" smooth="yes"/>
      <point x="774" y="279"/>
      <point x="751" y="301"/>
      <point x="723" y="313" type="curve"/>
      <point x="751" y="325"/>
      <point x="774" y="348"/>
      <point x="774" y="386" type="curve" smooth="yes"/>
    </contour>
    <contour>
      <point x="635" y="587" type="line" smooth="yes"/>
      <point x="638" y="587"/>
      <point x="641" y="584"/>
      <point x="641" y="580" type="curve" smooth="yes"/>
      <point x="641" y="386" type="line" smooth="yes"/>
      <point x="641" y="382"/>
      <point x="638" y="379"/>
      <point x="635" y="379" type="curve" smooth="yes"/>
      <point x="193" y="379" type="line" smooth="yes"/>
      <point x="189" y="379"/>
      <point x="186" y="382"/>
      <point x="186" y="386" type="curve" smooth="yes"/>
      <point x="186" y="580" type="line" smooth="yes"/>
      <point x="186" y="584"/>
      <point x="189" y="587"/>
      <point x="193" y="587" type="curve" smooth="yes"/>
    </contour>
  </outline>
</glyph>
<glyph name="S.alt" format="1">
  <advance width="812"/>
  <outline>
    <contour>
      <point x="185" y="426" type="line" smooth="yes"/>
      <point x="181" y="426"/>
      <point x="178" y="429"/>
      <point x="178" y="433" type="curve" smooth="yes"/>
      <point x="178" y="581" type="line" smooth="yes"/>
      <point x="178" y="585"/>
      <point x="181" y="588"/>
      <point x="185" y="588" type="curve" smooth="yes"/>
      <point x="766" y="588" type="line"/>
      <point x="766" y="720" type="line"/>
      <point x="185" y="720" type="line" smooth="yes"/>
      <point x="108" y="720"/>
      <point x="46" y="658"/>
      <point x="46" y="581" type="curve" smooth="yes"/>
      <point x="46" y="433" type="line" smooth="yes"/>
      <point x="46" y="356"/>
      <point x="108" y="294"/>
      <point x="185" y="294" type="curve" smooth="yes"/>
      <point x="627" y="294" type="line" smooth="yes"/>
      <point x="631" y="294"/>
      <point x="633" y="291"/>
      <point x="633" y="287" type="curve" smooth="yes"/>
      <point x="633" y="139" type="line" smooth="yes"/>
      <point x="633" y="135"/>
      <point x="631" y="132"/>
      <point x="627" y="132" type="curve" smooth="yes"/>
      <point x="46" y="132" type="line"/>
      <point x="46" y="0" type="line"/>
      <point x="627" y="0" type="line" smooth="yes"/>
      <point x="703" y="0"/>
      <point x="766" y="62"/>
      <point x="766" y="139" type="curve" smooth="yes"/>
      <point x="766" y="287" type="line" smooth="yes"/>
      <point x="766" y="364"/>
      <point x="703" y="426"/>
      <point x="627" y="426" type="curve" smooth="yes"/>
    </contour>
  </outline>
</glyph>
<glyph name="V.alt" format="1">
  <advance width="774"/>
  <outline>
    <contour>
      <point x="54" y="720" type="line"/>
      <point x="54" y="0" type="line"/>
      <point x="197" y="0" type="line"/>
      <point x="767" y="680" type="line"/>
      <point x="767" y="720" type="line"/>
      <point x="625" y="720" type="line"/>
      <point x="480" y="547"/>
      <point x="331" y="363"/>
      <point x="185" y="190" type="curve"/>
      <point x="185" y="720" type="line"/>
    </contour>
  </outline>
</glyph>
<glyph name="V.alt2" format="1">
  <advance width="774"/>
  <outline>
    <contour>
      <point x="587" y="192" type="line"/>
      <point x="144" y="720" type="line"/>
      <point x="0" y="720" type="line"/>
      <point x="0" y="686" type="line"/>
      <point x="576" y="0" type="line"/>
      <point x="720" y="0" type="line"/>
      <point x="720" y="720" type="line"/>
      <point x="587" y="720" type="line"/>
    </contour>
  </outline>
</glyph>
<glyph name="V.alt3" format="1">
  <advance width="827"/>
  <outline>
    <contour>
      <point x="640" y="720" type="line"/>
      <point x="640" y="132" type="line"/>
      <point x="192" y="132" type="line" smooth="yes"/>
      <point x="188" y="132"/>
      <point x="185" y="135"/>
      <point x="185" y="139" type="curve" smooth="yes"/>
      <point x="185" y="720" type="line"/>
      <point x="53" y="720" type="line"/>
      <point x="53" y="139" type="line" smooth="yes"/>
      <point x="53" y="62"/>
      <point x="115" y="0"/>
      <point x="192" y="0" type="curve" smooth="yes"/>
      <point x="773" y="0" type="line"/>
      <point x="773" y="720" type="line"/>
    </contour>
  </outline>
</glyph>
<glyph name="W.alt" format="1">
  <advance width="1149"/>
  <outline>
    <contour>
      <point x="1004" y="720" type="line"/>
      <point x="859" y="545"/>
      <point x="708" y="367"/>
      <point x="561" y="192" type="curve"/>
      <point x="561" y="420" type="line"/>
      <point x="785" y="685" type="line"/>
      <point x="785" y="720" type="line"/>
      <point x="641" y="720" type="line"/>
      <point x="495" y="545"/>
      <point x="344" y="367"/>
      <point x="197" y="192" type="curve"/>
      <point x="197" y="720" type="line"/>
      <point x="65" y="720" type="line"/>
      <point x="65" y="0" type="line"/>
      <point x="209" y="0" type="line"/>
      <point x="278" y="82"/>
      <point x="358" y="179"/>
      <point x="428" y="262" type="curve"/>
      <point x="428" y="0" type="line"/>
      <point x="572" y="0" type="line"/>
      <point x="1148" y="686" type="line"/>
      <point x="1148" y="720" type="line"/>
    </contour>
  </outline>
</glyph>
<glyph name="W.alt2" format="1">
  <advance width="1131"/>
  <outline>
    <contour>
      <point x="141" y="720" type="line"/>
      <point x="-3" y="720" type="line"/>
      <point x="-3" y="686" type="line"/>
      <point x="573" y="0" type="line"/>
      <point x="717" y="0" type="line"/>
      <point x="717" y="261" type="line"/>
      <point x="936" y="0" type="line"/>
      <point x="1080" y="0" type="line"/>
      <point x="1080" y="720" type="line"/>
      <point x="948" y="720" type="line"/>
      <point x="948" y="192" type="line"/>
      <point x="504" y="720" type="line"/>
      <point x="360" y="720" type="line"/>
      <point x="360" y="685" type="line"/>
      <point x="584" y="420" type="line"/>
      <point x="584" y="192" type="line"/>
    </contour>
  </outline>
</glyph>
<glyph name="W.alt3" format="1">
  <advance width="1028"/>
  <outline>
    <contour>
      <point x="510" y="372" type="line"/>
      <point x="822" y="0" type="line"/>
      <point x="966" y="0" type="line"/>
      <point x="966" y="720" type="line"/>
      <point x="833" y="720" type="line"/>
      <point x="833" y="192" type="line"/>
      <point x="510" y="577" type="line"/>
      <point x="404" y="452"/>
      <point x="293" y="318"/>
      <point x="186" y="191" type="curve"/>
      <point x="186" y="720" type="line"/>
      <point x="54" y="720" type="line"/>
      <point x="54" y="0" type="line"/>
      <point x="198" y="0" type="line"/>
    </contour>
  </outline>
</glyph>
<glyph name="W.alt4" format="1">
  <advance width="1155"/>
  <outline>
    <contour>
      <point x="1088" y="0" type="line"/>
      <point x="1088" y="720" type="line"/>
      <point x="955" y="720" type="line"/>
      <point x="955" y="132" type="line"/>
      <point x="655" y="132" type="line" smooth="yes"/>
      <point x="651" y="132"/>
      <point x="648" y="135"/>
      <point x="648" y="139" type="curve" smooth="yes"/>
      <point x="648" y="720" type="line"/>
      <point x="516" y="720" type="line"/>
      <point x="516" y="132" type="line"/>
      <point x="192" y="132" type="line" smooth="yes"/>
      <point x="188" y="132"/>
      <point x="185" y="135"/>
      <point x="185" y="139" type="curve" smooth="yes"/>
      <point x="185" y="720" type="line"/>
      <point x="53" y="720" type="line"/>
      <point x="53" y="139" type="line" smooth="yes"/>
      <point x="53" y="62"/>
      <point x="115" y="0"/>
      <point x="192" y="0" type="curve" smooth="yes"/>
    </contour>
  </outline>
</glyph>
<glyph name="X.alt" format="1">
  <advance width="829"/>
  <outline>
    <contour>
      <point x="642" y="720" type="line"/>
      <point x="642" y="430" type="line" smooth="yes"/>
      <point x="642" y="426"/>
      <point x="639" y="423"/>
      <point x="635" y="423" type="curve" smooth="yes"/>
      <point x="193" y="423" type="line" smooth="yes"/>
      <point x="189" y="423"/>
      <point x="186" y="426"/>
      <point x="186" y="430" type="curve" smooth="yes"/>
      <point x="186" y="720" type="line"/>
      <point x="54" y="720" type="line"/>
      <point x="54" y="449" type="line" smooth="yes"/>
      <point x="54" y="407"/>
      <point x="85" y="374"/>
      <point x="130" y="357" type="curve"/>
      <point x="85" y="339"/>
      <point x="55" y="306"/>
      <point x="55" y="265" type="curve" smooth="yes"/>
      <point x="55" y="0" type="line"/>
      <point x="187" y="0" type="line"/>
      <point x="187" y="284" type="line" smooth="yes"/>
      <point x="187" y="288"/>
      <point x="190" y="291"/>
      <point x="194" y="291" type="curve" smooth="yes"/>
      <point x="635" y="291" type="line" smooth="yes"/>
      <point x="638" y="291"/>
      <point x="641" y="288"/>
      <point x="641" y="284" type="curve" smooth="yes"/>
      <point x="641" y="0" type="line"/>
      <point x="774" y="0" type="line"/>
      <point x="774" y="265" type="line" smooth="yes"/>
      <point x="774" y="306"/>
      <point x="742" y="339"/>
      <point x="698" y="357" type="curve"/>
      <point x="742" y="374"/>
      <point x="775" y="407"/>
      <point x="775" y="449" type="curve" smooth="yes"/>
      <point x="775" y="720" type="line"/>
    </contour>
  </outline>
</glyph>
<glyph name="Y.alt" format="1">
  <advance width="824"/>
  <outline>
    <contour>
      <point x="638" y="720" type="line"/>
      <point x="638" y="426" type="line"/>
      <point x="190" y="426" type="line" smooth="yes"/>
      <point x="186" y="426"/>
      <point x="183" y="429"/>
      <point x="183" y="433" type="curve" smooth="yes"/>
      <point x="183" y="720" type="line"/>
      <point x="51" y="720" type="line"/>
      <point x="51" y="433" type="line" smooth="yes"/>
      <point x="51" y="356"/>
      <point x="113" y="294"/>
      <point x="190" y="294" type="curve" smooth="yes"/>
      <point x="632" y="294" type="line" smooth="yes"/>
      <point x="635" y="294"/>
      <point x="638" y="291"/>
      <point x="638" y="287" type="curve" smooth="yes"/>
      <point x="638" y="139" type="line" smooth="yes"/>
      <point x="638" y="135"/>
      <point x="635" y="132"/>
      <point x="632" y="132" type="curve" smooth="yes"/>
      <point x="51" y="132" type="line"/>
      <point x="51" y="0" type="line"/>
      <point x="632" y="0" type="line" smooth="yes"/>
      <point x="708" y="0"/>
      <point x="771" y="62"/>
      <point x="771" y="139" type="curve" smooth="yes"/>
      <point x="771" y="720" type="line"/>
    </contour>
  </outline>
</glyph>
<glyph name="Z.alt" format="1">
  <advance width="818"/>
  <outline>
    <contour>
      <point x="188" y="426" type="line" smooth="yes"/>
      <point x="111" y="426"/>
      <point x="49" y="364"/>
      <point x="49" y="287" type="curve" smooth="yes"/>
      <point x="49" y="139" type="line" smooth="yes"/>
      <point x="49" y="62"/>
      <point x="111" y="0"/>
      <point x="188" y="0" type="curve" smooth="yes"/>
      <point x="769" y="0" type="line"/>
      <point x="769" y="132" type="line"/>
      <point x="188" y="132" type="line" smooth="yes"/>
      <point x="184" y="132"/>
      <point x="181" y="135"/>
      <point x="181" y="139" type="curve" smooth="yes"/>
      <point x="181" y="287" type="line" smooth="yes"/>
      <point x="181" y="291"/>
      <point x="184" y="294"/>
      <point x="188" y="294" type="curve" smooth="yes"/>
      <point x="630" y="294" type="line" smooth="yes"/>
      <point x="706" y="294"/>
      <point x="769" y="356"/>
      <point x="769" y="433" type="curve" smooth="yes"/>
      <point x="769" y="581" type="line" smooth="yes"/>
      <point x="769" y="658"/>
      <point x="706" y="720"/>
      <point x="630" y="720" type="curve" smooth="yes"/>
      <point x="49" y="720" type="line"/>
      <point x="49" y="588" type="line"/>
      <point x="630" y="588" type="line" smooth="yes"/>
      <point x="633" y="588"/>
      <point x="636" y="585"/>
      <point x="636" y="581" type="curve" smooth="yes"/>
      <point x="636" y="433" type="line" smooth="yes"/>
      <point x="636" y="429"/>
      <point x="633" y="426"/>
      <point x="630" y="426" type="curve" smooth="yes"/>
    </contour>
  </outline>
</glyph>
<glyph name="a.sc" format="1">
  <advance width="725"/>
  <outline>
    <contour>
      <point x="191" y="580" type="line" smooth="yes"/>
      <point x="115" y="580"/>
      <point x="53" y="518"/>
      <point x="53" y="442" type="curve" smooth="yes"/>
      <point x="53" y="0" type="line"/>
      <point x="184" y="0" type="line"/>
      <point x="184" y="145" type="line"/>
      <point x="540" y="145" type="line"/>
      <point x="540" y="0" type="line"/>
      <point x="671" y="0" type="line"/>
      <point x="671" y="442" type="line" smooth="yes"/>
      <point x="671" y="518"/>
      <point x="609" y="580"/>
      <point x="533" y="580" type="curve" smooth="yes"/>
    </contour>
    <contour>
      <point x="184" y="276" type="line"/>
      <point x="184" y="442" type="line" smooth="yes"/>
      <point x="184" y="446"/>
      <point x="187" y="449"/>
      <point x="191" y="449" type="curve" smooth="yes"/>
      <point x="533" y="449" type="line" smooth="yes"/>
      <point x="537" y="449"/>
      <point x="540" y="446"/>
      <point x="540" y="442" type="curve" smooth="yes"/>
      <point x="540" y="276" type="line"/>
    </contour>
  </outline>
</glyph>
<glyph name="b.sc" format="1">
  <advance width="700"/>
  <outline>
    <contour>
      <point x="624" y="443" type="line" smooth="yes"/>
      <point x="624" y="519"/>
      <point x="562" y="581"/>
      <point x="486" y="581" type="curve" smooth="yes"/>
      <point x="54" y="581" type="line"/>
      <point x="54" y="0" type="line"/>
      <point x="515" y="0" type="line" smooth="yes"/>
      <point x="591" y="0"/>
      <point x="653" y="62"/>
      <point x="653" y="138" type="curve" smooth="yes"/>
      <point x="653" y="215" type="line" smooth="yes"/>
      <point x="653" y="251"/>
      <point x="638" y="285"/>
      <point x="615" y="309" type="curve"/>
      <point x="621" y="324"/>
      <point x="624" y="341"/>
      <point x="624" y="359" type="curve" smooth="yes"/>
    </contour>
    <contour>
      <point x="486" y="450" type="line" smooth="yes"/>
      <point x="490" y="450"/>
      <point x="493" y="447"/>
      <point x="493" y="443" type="curve" smooth="yes"/>
      <point x="493" y="359" type="line" smooth="yes"/>
      <point x="493" y="356"/>
      <point x="490" y="353"/>
      <point x="486" y="353" type="curve" smooth="yes"/>
      <point x="192" y="353" type="line" smooth="yes"/>
      <point x="188" y="353"/>
      <point x="185" y="356"/>
      <point x="185" y="359" type="curve" smooth="yes"/>
      <point x="185" y="443" type="line" smooth="yes"/>
      <point x="185" y="447"/>
      <point x="188" y="450"/>
      <point x="192" y="450" type="curve" smooth="yes"/>
    </contour>
    <contour>
      <point x="522" y="138" type="line" smooth="yes"/>
      <point x="522" y="134"/>
      <point x="519" y="131"/>
      <point x="515" y="131" type="curve" smooth="yes"/>
      <point x="192" y="131" type="line" smooth="yes"/>
      <point x="188" y="131"/>
      <point x="185" y="134"/>
      <point x="185" y="138" type="curve" smooth="yes"/>
      <point x="185" y="215" type="line" smooth="yes"/>
      <point x="185" y="219"/>
      <point x="188" y="222"/>
      <point x="192" y="222" type="curve" smooth="yes"/>
      <point x="515" y="222" type="line" smooth="yes"/>
      <point x="519" y="222"/>
      <point x="522" y="219"/>
      <point x="522" y="215" type="curve" smooth="yes"/>
    </contour>
  </outline>
</glyph>
<glyph name="c.sc" format="1">
  <advance width="693"/>
  <outline>
    <contour>
      <point x="638" y="450" type="line"/>
      <point x="638" y="581" type="line"/>
      <point x="189" y="581" type="line" smooth="yes"/>
      <point x="113" y="581"/>
      <point x="51" y="519"/>
      <point x="51" y="443" type="curve" smooth="yes"/>
      <point x="51" y="138" type="line" smooth="yes"/>
      <point x="51" y="62"/>
      <point x="113" y="0"/>
      <point x="189" y="0" type="curve" smooth="yes"/>
      <point x="638" y="0" type="line"/>
      <point x="638" y="131" type="line"/>
      <point x="189" y="131" type="line" smooth="yes"/>
      <point x="185" y="131"/>
      <point x="182" y="134"/>
      <point x="182" y="138" type="curve" smooth="yes"/>
      <point x="182" y="443" type="line" smooth="yes"/>
      <point x="182" y="447"/>
      <point x="185" y="450"/>
      <point x="189" y="450" type="curve" smooth="yes"/>
    </contour>
  </outline>
</glyph>
